<svg width="92.000000" height="60.000000" viewBox="0 0 92 60" fill="none" xmlns="http://www.w3.org/2000/svg" xmlns:xlink="http://www.w3.org/1999/xlink">
	<desc>
			Created with Pixso.
	</desc>
	<defs>
		<clipPath id="clip10_51437">
			<rect id="American express" width="92.000000" height="60.000000" fill="white" fill-opacity="0"/>
		</clipPath>
	</defs>
	<g opacity="0.500000">
		<g clip-path="url(#clip10_51437)">
			<path id="Vector" d="M92 54.84C92 57.68 89.56 59.98 86.56 59.98L5.43 59.98C2.43 59.98 0 57.68 0 54.84L0 5.15C0 2.31 2.43 0.01 5.43 0.01L86.56 0.01C89.56 0.01 92 2.31 92 5.15L92 54.84Z" fill="#FDFEFF" fill-opacity="1.000000" fill-rule="nonzero"/>
			<path id="Vector" d="M13.8 23.37L16.54 23.37L15.17 20.07L13.8 23.37Z" fill="#306FC5" fill-opacity="1.000000" fill-rule="nonzero"/>
			<path id="Vector" d="M28.41 34.47L28.41 36.01L33.04 36.01L33.04 37.66L28.41 37.66L28.41 39.43L33.54 39.43L35.91 36.95L33.66 34.47L28.41 34.47Z" fill="#306FC5" fill-opacity="1.000000" fill-rule="nonzero"/>
			<path id="Vector" d="M64.52 20.07L63.02 23.37L65.9 23.37L64.52 20.07Z" fill="#306FC5" fill-opacity="1.000000" fill-rule="nonzero"/>
			<path id="Vector" d="M41.78 40.38L41.78 33.65L38.53 36.95L41.78 40.38Z" fill="#306FC5" fill-opacity="1.000000" fill-rule="nonzero"/>
			<path id="Vector" d="M47.91 35.54C47.78 34.83 47.28 34.47 46.53 34.47L43.91 34.47L43.91 36.6L46.66 36.6C47.41 36.6 47.91 36.24 47.91 35.54Z" fill="#306FC5" fill-opacity="1.000000" fill-rule="nonzero"/>
			<path id="Vector" d="M56.65 36.36C56.9 36.24 57.02 35.89 57.02 35.54C57.15 35.06 56.9 34.83 56.65 34.71C56.4 34.59 56.02 34.59 55.65 34.59L53.15 34.59L53.15 36.48L55.65 36.48C56.02 36.48 56.4 36.48 56.65 36.36Z" fill="#306FC5" fill-opacity="1.000000" fill-rule="nonzero"/>
			<path id="Vector" d="M74.64 17L74.64 18.41L73.89 17L68.02 17L68.02 18.41L67.27 17L59.27 17C57.9 17 56.78 17.23 55.78 17.7L55.78 17L50.15 17L50.15 17.11L50.15 17.7C49.53 17.23 48.78 17 47.78 17L27.66 17L26.29 19.95L24.91 17L20.42 17L18.54 17L18.54 18.41L17.92 17L17.79 17L12.42 17L9.92 22.55L7.05 28.57L7 28.69L7.05 28.69L13.42 28.69L13.5 28.69L13.55 28.57L14.3 26.8L15.92 26.8L16.67 28.69L23.91 28.69L23.91 28.57L23.91 27.27L24.54 28.69L28.16 28.69L28.79 27.27L28.79 28.57L28.79 28.69L31.66 28.69L46.03 28.69L46.16 28.69L46.16 25.62L46.41 25.62C46.66 25.62 46.66 25.62 46.66 25.97L46.66 28.57L55.65 28.57L55.65 27.86C56.4 28.21 57.52 28.57 59.02 28.57L62.77 28.57L63.52 26.68L65.27 26.68L66.02 28.57L73.27 28.57L73.27 27.39L73.27 26.8L74.39 28.57L74.64 28.57L74.77 28.57L80.26 28.57L80.26 17L74.64 17L74.64 17ZM32.29 26.92L31.04 26.92L30.29 26.92L30.29 26.21L30.29 20.42L30.16 20.69L30.16 20.69L27.26 26.92L27.16 26.92L26.5 26.92L25.41 26.92L22.42 20.42L22.42 26.92L18.17 26.92L17.29 25.14L13.04 25.14L12.17 26.92L9.97 26.92L13.67 18.65L16.79 18.65L20.29 26.56L20.29 18.65L21.04 18.65L23.6 18.65L23.66 18.77L23.66 18.77L25.24 22.01L26.37 24.44L26.41 24.32L28.91 18.65L32.29 18.65L32.29 26.92L32.29 26.92ZM40.91 20.42L36.04 20.42L36.04 21.96L40.78 21.96L40.78 23.61L36.04 23.61L36.04 25.26L40.91 25.26L40.91 27.03L33.91 27.03L33.91 18.65L40.91 18.65L40.91 20.42ZM49.82 23.47C49.82 23.47 49.83 23.47 49.83 23.47C49.88 23.52 49.92 23.57 49.95 23.61C50.19 23.91 50.39 24.35 50.4 25C50.4 25.01 50.4 25.02 50.4 25.03C50.4 25.04 50.4 25.04 50.4 25.05C50.4 25.05 50.4 25.06 50.4 25.06C50.4 25.12 50.4 25.19 50.4 25.26L50.4 26.92L48.53 26.92L48.53 25.97C48.53 25.5 48.53 24.79 48.15 24.32C48.04 24.21 47.92 24.13 47.79 24.08C47.6 23.97 47.24 23.96 46.66 23.96L44.41 23.96L44.41 26.92L42.28 26.92L42.28 18.65L47.03 18.65C48.15 18.65 48.9 18.65 49.53 19C50.14 19.35 50.51 19.93 50.52 20.84C50.5 22.1 49.64 22.79 49.03 23.02C49.03 23.02 49.45 23.1 49.82 23.47ZM54.03 26.92L51.9 26.92L51.9 18.65L54.03 18.65L54.03 26.92ZM78.39 26.92L75.64 26.92L71.64 20.66L71.64 25.85L71.63 25.84L71.63 26.92L69.52 26.92L69.52 26.92L67.4 26.92L66.65 25.14L62.27 25.14L61.52 27.03L59.15 27.03C58.15 27.03 56.9 26.8 56.15 26.09C55.4 25.38 55.03 24.44 55.03 22.9C55.03 21.72 55.28 20.54 56.15 19.59C56.77 18.88 57.9 18.65 59.27 18.65L61.27 18.65L61.27 20.42L59.27 20.42C58.52 20.42 58.15 20.54 57.65 20.89C57.28 21.25 57.03 21.96 57.03 22.78C57.03 23.73 57.15 24.32 57.65 24.79C58.03 25.14 58.52 25.26 59.15 25.26L60.02 25.26L62.9 18.77L64.15 18.77L66.02 18.77L69.52 26.68L69.52 26.28L69.52 23.61L69.52 23.37L69.52 18.77L72.64 18.77L76.27 24.55L76.27 18.77L78.39 18.77L78.39 26.92L78.39 26.92L78.39 26.92Z" fill="#306FC5" fill-opacity="1.000000" fill-rule="nonzero"/>
			<path id="Vector" d="M48.04 22.09C48.07 22.05 48.11 22.01 48.14 21.97C48.25 21.8 48.38 21.49 48.31 21.07C48.31 21.04 48.3 21 48.29 20.97C48.29 20.96 48.29 20.95 48.29 20.94L48.28 20.94C48.22 20.74 48.06 20.61 47.9 20.54C47.65 20.42 47.28 20.42 46.91 20.42L44.41 20.42L44.41 22.31L46.91 22.31C47.28 22.31 47.65 22.31 47.9 22.19C47.94 22.17 47.98 22.15 48.01 22.12L48.01 22.12C48.01 22.12 48.02 22.11 48.04 22.09Z" fill="#306FC5" fill-opacity="1.000000" fill-rule="nonzero"/>
			<path id="Vector" d="M85.76 38.73C85.76 37.9 85.51 37.07 85.14 36.48L85.14 31.17L85.13 31.17L85.13 30.81C85.13 30.81 79.89 30.81 79.12 30.81C78.34 30.81 77.39 31.52 77.39 31.52L77.39 30.81L71.64 30.81C70.77 30.81 69.64 31.05 69.14 31.52L69.14 30.81L58.9 30.81L58.9 31.17L58.9 31.52C58.15 30.93 56.77 30.81 56.15 30.81L49.4 30.81L49.4 31.17L49.4 31.52C48.78 30.93 47.28 30.81 46.53 30.81L39.03 30.81L37.28 32.58L35.66 30.81L35.14 30.81L34.29 30.81L24.41 30.81L24.41 31.17L24.41 32.1L24.41 42.74L35.41 42.74L37.22 41.03L38.78 42.74L38.91 42.74L45.24 42.74L45.53 42.74L45.66 42.74L45.78 42.74L45.78 41.56L45.78 40.02L46.41 40.02C47.28 40.02 48.4 40.02 49.28 39.67L49.28 42.62L49.28 42.86L54.9 42.86L54.9 42.62L54.9 39.79L55.15 39.79C55.53 39.79 55.53 39.79 55.53 40.14L55.53 42.62L55.53 42.86L72.52 42.86C73.64 42.86 74.77 42.62 75.39 42.15L75.39 42.62L75.39 42.86L80.76 42.86C81.89 42.86 83.01 42.74 83.76 42.27C84.91 41.62 85.64 40.46 85.75 39.08C85.75 39.04 85.76 39 85.76 38.96L85.75 38.95C85.76 38.88 85.76 38.8 85.76 38.73ZM46.41 38.02L43.91 38.02L43.91 38.37L43.91 39.08L43.91 39.79L43.91 41.09L39.8 41.09L37.41 38.49L37.4 38.5L37.28 38.37L34.54 41.09L26.54 41.09L26.54 32.82L34.66 32.82L36.88 35.12L37.35 35.6L37.41 35.54L40.03 32.82L46.65 32.82C47.94 32.82 49.38 33.12 49.92 34.36C49.99 34.6 50.03 34.87 50.03 35.18C50.03 37.54 48.28 38.02 46.41 38.02ZM58.9 37.9C59.15 38.25 59.27 38.73 59.27 39.43L59.27 41.09L57.15 41.09L57.15 40.02C57.15 39.55 57.15 38.73 56.77 38.37C56.53 38.02 56.03 38.02 55.28 38.02L53.03 38.02L53.03 41.09L50.9 41.09L50.9 32.7L55.65 32.7C56.65 32.7 57.52 32.7 58.15 33.06C58.77 33.41 59.27 34 59.27 34.95C59.27 36.25 58.4 36.95 57.77 37.19C58.4 37.43 58.77 37.66 58.9 37.9ZM67.52 34.47L62.65 34.47L62.65 36.01L67.4 36.01L67.4 37.66L62.65 37.66L62.65 39.32L67.52 39.32L67.52 41.09L60.52 41.09L60.52 32.7L67.52 32.7L67.52 34.47ZM72.77 41.09L68.77 41.09L68.77 39.32L72.77 39.32C73.14 39.32 73.39 39.32 73.64 39.08C73.77 38.96 73.89 38.73 73.89 38.49C73.89 38.25 73.77 38.02 73.64 37.9C73.52 37.78 73.27 37.66 72.89 37.66C70.89 37.54 68.52 37.66 68.52 35.06C68.52 33.88 69.27 32.58 71.52 32.58L75.64 32.58L75.64 34.59L71.77 34.59C71.39 34.59 71.14 34.59 70.89 34.71C70.64 34.83 70.64 35.06 70.64 35.3C70.64 35.66 70.89 35.77 71.14 35.89C71.39 36.01 71.64 36.01 71.89 36.01L73.02 36.01C74.14 36.01 74.89 36.25 75.39 36.72C75.77 37.07 76.02 37.66 76.02 38.49C76.02 40.26 74.89 41.09 72.77 41.09ZM83.51 40.26C83.01 40.73 82.14 41.09 80.89 41.09L76.89 41.09L76.89 39.32L80.89 39.32C81.26 39.32 81.51 39.32 81.76 39.08C81.89 38.96 82.01 38.73 82.01 38.49C82.01 38.25 81.89 38.02 81.76 37.9C81.64 37.78 81.39 37.66 81.01 37.66C79.02 37.54 76.64 37.66 76.64 35.06C76.64 33.94 77.32 32.93 79 32.63C79.2 32.6 79.41 32.58 79.64 32.58L83.76 32.58L83.76 34.59L81.01 34.59L80.01 34.59L79.89 34.59C79.51 34.59 79.27 34.59 79.02 34.71C78.89 34.83 78.76 35.06 78.76 35.3C78.76 35.66 78.89 35.77 79.27 35.89C79.51 36.01 79.76 36.01 80.01 36.01L80.14 36.01L81.14 36.01C81.69 36.01 82.1 36.07 82.48 36.2C82.82 36.32 83.97 36.8 84.22 38.07C84.25 38.2 84.26 38.34 84.26 38.49C84.26 39.2 84.01 39.79 83.51 40.26Z" fill="#306FC5" fill-opacity="1.000000" fill-rule="nonzero"/>
		</g>
	</g>
</svg>
