<svg width="92.000000" height="60.000000" viewBox="0 0 92 60" fill="none" xmlns="http://www.w3.org/2000/svg" xmlns:xlink="http://www.w3.org/1999/xlink">
	<desc>
			Created with Pixso.
	</desc>
	<defs>
		<clipPath id="clip10_51447">
			<rect id="simple-icons:applepay" rx="5.000000" width="92.000000" height="60.000000" fill="white" fill-opacity="0"/>
		</clipPath>
	</defs>
	<g opacity="0.500000">
		<rect id="simple-icons:applepay" rx="5.000000" width="92.000000" height="60.000000" fill="#FFFFFF" fill-opacity="1.000000"/>
		<g clip-path="url(#clip10_51447)">
			<mask id="mask10_51445" mask-type="alpha" maskUnits="userSpaceOnUse" x="0.000000" y="1.188477" width="92.000000" height="57.619442">
				<path id="Vector" d="M8.24 1.19C7.66 1.19 7.08 1.19 6.5 1.2C5.92 1.22 5.33 1.25 4.76 1.35C3.9 1.48 3.08 1.81 2.38 2.32C1.67 2.82 1.1 3.48 0.7 4.24C0.43 4.76 0.26 5.29 0.16 5.86C0.06 6.41 0.02 6.98 0.01 7.54C0 7.81 0 8.07 0 8.33L0 51.67C0 51.93 0 52.18 0.01 52.44C0.02 53.01 0.06 53.58 0.16 54.14C0.26 54.7 0.44 55.23 0.7 55.75C1.23 56.76 2.08 57.59 3.12 58.11C3.65 58.37 4.18 58.54 4.77 58.64C5.33 58.74 5.92 58.78 6.49 58.79L7.29 58.8L84.7 58.8L85.49 58.79C86.07 58.78 86.66 58.74 87.23 58.64C87.8 58.54 88.34 58.38 88.87 58.11C89.91 57.6 90.76 56.77 91.29 55.75C91.55 55.23 91.73 54.7 91.83 54.13C91.93 53.58 91.96 53.01 91.98 52.45C91.99 52.18 91.99 51.93 91.99 51.67L92 50.74L92 8.32C92 8.06 91.99 7.81 91.98 7.55C91.97 6.98 91.92 6.41 91.83 5.85C91.64 4.72 91.1 3.68 90.27 2.87C89.45 2.06 88.38 1.53 87.23 1.35C86.65 1.26 86.07 1.21 85.49 1.2C84.91 1.18 84.34 1.18 83.76 1.19L8.24 1.19ZM8.24 3.11L84.68 3.11C84.93 3.11 85.18 3.12 85.44 3.12C85.88 3.13 86.39 3.16 86.87 3.24C87.29 3.31 87.64 3.43 87.97 3.59C88.65 3.93 89.19 4.46 89.53 5.12C89.71 5.46 89.83 5.82 89.89 6.2C89.98 6.66 90 7.17 90.01 7.6C90.02 7.84 90.02 8.09 90.02 8.34L90.02 51.66C90.02 51.9 90.02 52.15 90.01 52.39C90 52.83 89.98 53.33 89.89 53.8C89.81 54.35 89.59 54.88 89.26 55.33C88.92 55.78 88.48 56.15 87.97 56.4C87.63 56.57 87.26 56.69 86.88 56.75C86.4 56.83 85.93 56.87 85.45 56.87L84.68 56.88L7.3 56.88C7.05 56.88 6.79 56.88 6.55 56.87C6.07 56.87 5.59 56.83 5.11 56.75C4.69 56.68 4.35 56.56 4.01 56.4C3.34 56.07 2.79 55.53 2.45 54.87C2.28 54.53 2.16 54.17 2.09 53.79C2.02 53.33 1.97 52.86 1.97 52.39C1.96 52.15 1.96 51.9 1.96 51.66L1.96 8.34C1.96 8.09 1.96 7.84 1.97 7.6C1.98 7.17 2.01 6.67 2.09 6.19C2.17 5.79 2.28 5.44 2.45 5.11C2.79 4.46 3.34 3.92 4.01 3.59C4.36 3.42 4.73 3.3 5.11 3.24C5.59 3.16 6.11 3.13 6.55 3.12C6.8 3.11 7.05 3.11 7.3 3.11L8.24 3.11ZM26.29 16.98C25.14 17.04 23.73 17.73 22.92 18.69C22.19 19.52 21.54 20.87 21.71 22.14C23 22.25 24.29 21.5 25.11 20.57C25.9 19.6 26.43 18.31 26.29 16.99L26.29 16.98ZM34.75 18.56L34.75 39.16L38.02 39.16L38.02 32.12L42.54 32.12C46.67 32.12 49.58 29.35 49.58 25.32C49.58 21.31 46.73 18.55 42.64 18.55L34.75 18.56ZM38.02 21.25L41.78 21.25C44.62 21.25 46.23 22.74 46.23 25.34C46.23 27.93 44.62 29.43 41.77 29.43L38.02 29.43L38.02 21.25ZM25.93 22.38C24.2 22.42 22.75 23.43 21.9 23.43C21 23.43 19.63 22.44 18.14 22.47C17.17 22.49 16.23 22.76 15.4 23.25C14.58 23.74 13.89 24.44 13.43 25.27C11.41 28.67 12.89 33.72 14.86 36.5C15.82 37.87 16.97 39.38 18.48 39.33C19.91 39.27 20.47 38.42 22.21 38.42C23.95 38.42 24.46 39.33 25.97 39.3C27.54 39.27 28.52 37.93 29.47 36.55C30.57 34.99 31.02 33.48 31.04 33.4C31.02 33.37 28.02 32.24 27.99 28.86C27.96 26.04 30.35 24.69 30.46 24.61C29.11 22.66 27.01 22.44 26.28 22.38C26.16 22.38 26.05 22.38 25.93 22.38ZM57.38 23.87C53.58 23.87 51.22 25.87 51.04 28.58L54.02 28.58C54.3 27.24 55.44 26.38 57.26 26.38C59.19 26.38 60.34 27.38 60.34 29.05L60.34 30.21L56.13 30.45C52.49 30.65 50.43 32.26 50.43 34.89C50.43 37.59 52.53 39.41 55.54 39.41C57.55 39.41 59.49 38.36 60.38 36.69L60.45 36.69L60.45 39.16L63.48 39.16L63.48 28.81C63.48 25.8 61.1 23.87 57.38 23.87ZM64.81 24.14L70.36 39.17C70.36 39.18 70.08 40.07 70.08 40.1C69.6 41.64 68.81 42.24 67.35 42.24C67.09 42.24 66.56 42.24 66.33 42.18L66.33 44.68C66.56 44.72 67.35 44.75 67.61 44.75C70.79 44.75 72.31 43.58 73.62 39.94L79.37 24.14L76.04 24.14L72.16 36.36L72.11 36.36L68.22 24.13L64.81 24.14ZM60.34 32.35L60.34 33.53C60.34 35.49 58.61 36.97 56.41 36.97C54.72 36.97 53.61 36.12 53.61 34.8C53.61 33.52 54.68 32.7 56.56 32.58L60.34 32.35Z" fill="#FFFFFF" fill-opacity="1.000000" fill-rule="nonzero"/>
			</mask>
			<g mask="url(#mask10_51445)">
				<rect id="Rectangle 121" x="11.333984" y="13.000000" width="70.000000" height="33.870968" fill="#505050" fill-opacity="1.000000"/>
			</g>
		</g>
	</g>
</svg>
