<svg width="92.000000" height="60.000000" viewBox="0 0 92 60" fill="none" xmlns="http://www.w3.org/2000/svg" xmlns:xlink="http://www.w3.org/1999/xlink">
	<desc>
			Created with Pixso.
	</desc>
	<defs>
		<clipPath id="clip10_51443">
			<rect id="logos:google-pay" width="70.000000" height="29.000000" transform="translate(11.000000 16.000000)" fill="white" fill-opacity="0"/>
		</clipPath>
		<clipPath id="clip10_51444">
			<rect id="simple-icons:googlepay" rx="4.000000" width="90.000000" height="58.000000" transform="translate(1.000000 1.000000)" fill="white" fill-opacity="0"/>
		</clipPath>
	</defs>
	<g opacity="0.500000">
		<rect id="simple-icons:googlepay" rx="4.000000" width="90.000000" height="58.000000" transform="translate(1.000000 1.000000)" fill="#FFFFFF" fill-opacity="1.000000"/>
		<g clip-path="url(#clip10_51444)">
			<rect id="logos:google-pay" width="70.000000" height="29.000000" transform="translate(11.000000 16.000000)" fill="#FFFFFF" fill-opacity="0"/>
			<g clip-path="url(#clip10_51443)">
				<path id="Vector" d="M60.61 23.82C62.54 23.82 64.03 24.37 65.16 25.46C66.3 26.55 66.83 28.01 66.83 29.82L66.83 38.56L64.38 38.56L64.38 36.55L64.29 36.55C63.24 38.19 61.75 39.01 60 39.01C58.52 39.01 57.2 38.56 56.15 37.65C55.19 36.74 54.58 35.46 54.58 34.1C54.58 32.64 55.1 31.46 56.15 30.55C57.2 29.64 58.69 29.28 60.44 29.28C62.01 29.28 63.24 29.55 64.2 30.19L64.2 29.55C64.2 28.7 63.9 27.85 63.29 27.3L63.15 27.19C62.45 26.55 61.58 26.19 60.61 26.19C59.13 26.19 57.99 26.82 57.2 28.1L54.93 26.64C56.33 24.73 58.17 23.82 60.61 23.82ZM48.28 17.64C49.85 17.64 51.34 18.2 52.53 19.26L52.74 19.46C53.97 20.55 54.58 22.18 54.58 23.91C54.58 25.64 53.97 27.19 52.74 28.37C51.52 29.55 50.03 30.19 48.28 30.19L44.08 30.1L44.08 38.56L41.46 38.56L41.46 17.64L48.28 17.64ZM60.96 31.46C59.91 31.46 59.04 31.73 58.34 32.28C57.64 32.73 57.29 33.37 57.29 34.19C57.29 34.92 57.64 35.55 58.17 35.92C58.78 36.37 59.48 36.65 60.18 36.65C61.16 36.65 62.14 36.25 62.9 35.53L63.06 35.37C63.94 34.55 64.38 33.55 64.38 32.46C63.59 31.83 62.45 31.46 60.96 31.46L60.96 31.46ZM48.46 20.18L44.08 20.18L44.08 27.46L48.46 27.46C49.42 27.46 50.38 27.1 50.99 26.37C52.39 25 52.39 22.73 51.08 21.37L50.99 21.27C50.29 20.55 49.42 20.09 48.46 20.18L48.46 20.18ZM81 24.28L72.34 44.92L69.71 44.92L72.95 37.74L67.26 24.37L70.06 24.37L74.17 34.64L74.26 34.64L78.28 24.37L81 24.37L81 24.28Z" fill="#5F6368" fill-opacity="1.000000" fill-rule="nonzero"/>
				<path id="Vector" d="M33.67 28.28C33.67 27.46 33.58 26.64 33.5 25.82L22.56 25.82L22.56 30.46L28.77 30.46C28.51 31.92 27.72 33.28 26.5 34.1L26.5 37.1L30.26 37.1C32.45 35.01 33.67 31.92 33.67 28.28L33.67 28.28Z" fill="#4285F4" fill-opacity="1.000000" fill-rule="nonzero"/>
				<path id="Vector" d="M22.56 40.01C25.71 40.01 28.34 38.92 30.26 37.1L26.5 34.1C25.45 34.83 24.14 35.28 22.56 35.28C19.59 35.28 16.96 33.19 16.09 30.28L12.24 30.28L12.24 33.37C14.25 37.46 18.19 40.01 22.56 40.01Z" fill="#34A853" fill-opacity="1.000000" fill-rule="nonzero"/>
				<path id="Vector" d="M16.09 30.28C15.57 28.82 15.57 27.19 16.09 25.64L16.09 22.55L12.24 22.55C10.58 25.91 10.58 29.92 12.24 33.37L16.09 30.28Z" fill="#FBBC04" fill-opacity="1.000000" fill-rule="nonzero"/>
				<path id="Vector" d="M22.56 20.73C24.23 20.73 25.8 21.37 27.02 22.55L30.35 19.09C28.25 17.09 25.45 15.91 22.65 16C18.28 16 14.25 18.55 12.33 22.64L16.18 25.73C16.97 22.82 19.59 20.73 22.56 20.73Z" fill="#EA4335" fill-opacity="1.000000" fill-rule="nonzero"/>
			</g>
		</g>
		<rect id="simple-icons:googlepay" rx="4.000000" width="90.000000" height="58.000000" transform="translate(1.000000 1.000000)" stroke="#FFFFFF" stroke-opacity="1.000000" stroke-width="2.000000"/>
	</g>
</svg>
