<svg width="92.000000" height="60.000000" viewBox="0 0 92 60" fill="none" xmlns="http://www.w3.org/2000/svg" xmlns:xlink="http://www.w3.org/1999/xlink">
	<desc>
			Created with Pixso.
	</desc>
	<defs>
		<clipPath id="clip10_51421">
			<rect id="fontisto:mastercard" width="92.000000" height="60.000000" fill="white" fill-opacity="0"/>
		</clipPath>
	</defs>
	<g opacity="0.500000">
		<rect id="fontisto:mastercard" width="92.000000" height="60.000000" fill="#FFFFFF" fill-opacity="0"/>
		<g clip-path="url(#clip10_51421)">
			<rect id="Rectangle 112" x="11.000000" y="3.871094" width="35.000000" height="42.580647" fill="#EB001B" fill-opacity="1.000000"/>
			<rect id="Rectangle 113" x="46.000000" y="3.871094" width="35.000000" height="42.580647" fill="#F79E1B" fill-opacity="1.000000"/>
			<rect id="Rectangle 115" x="15.000000" y="47.418945" width="63.000000" height="7.741935" fill="#505050" fill-opacity="1.000000"/>
			<path id="Rectangle 114" d="M41.5 13.54L43.5 11.12L46 8.7L48 10.16L51 13.06L52.5 16.93L54 24.19L53 31.45L50.5 37.25L48 39.67L46 40.64L43.5 39.67L41.5 37.25L39.5 34.35L38.5 31.45L38 24.67L39 17.41L41.5 13.54Z" fill="#FF5F00" fill-opacity="1.000000" fill-rule="nonzero"/>
			<path id="Vector" d="M85.86 60L6.13 60C4.5 60 2.94 59.36 1.79 58.24C0.64 57.11 0 55.59 0 54L0 6C0 4.4 0.64 2.88 1.79 1.75C2.94 0.63 4.5 0 6.13 0L85.86 0C87.49 0 89.05 0.63 90.2 1.75C91.35 2.88 92 4.4 92 6L92 54C92 55.59 91.35 57.11 90.2 58.24C89.05 59.36 87.49 60 85.86 60ZM72.79 49.29L72.75 49.29C72.4 49.29 72.06 49.36 71.74 49.5C71.42 49.64 71.13 49.84 70.89 50.09L70.89 50.09C70.39 50.63 70.11 51.34 70.11 52.07C70.11 52.8 70.39 53.5 70.89 54.04L70.89 54.04C71.35 54.53 72.02 54.84 72.75 54.84L72.79 54.84C73.12 54.86 73.44 54.8 73.74 54.66C74.04 54.53 74.3 54.32 74.5 54.06L74.5 54.06L74.5 54.72L75.66 54.72L75.66 47.3L74.5 47.3L74.5 50.08C74.31 49.83 74.07 49.63 73.79 49.5C73.51 49.36 73.2 49.29 72.89 49.29L72.78 49.29L72.79 49.29ZM61.93 49.29L61.87 49.29C61.13 49.29 60.46 49.59 59.99 50.08C59.48 50.62 59.21 51.33 59.21 52.07C59.21 52.81 59.49 53.52 59.99 54.06L59.99 54.06C60.46 54.54 61.13 54.84 61.87 54.84L61.93 54.84L62.04 54.85C62.35 54.85 62.65 54.77 62.92 54.64C63.19 54.5 63.42 54.31 63.6 54.06L63.61 54.06L63.61 54.73L64.81 54.73L64.81 49.45L63.61 49.45L63.61 50.08C63.41 49.82 63.16 49.62 62.87 49.48C62.57 49.34 62.25 49.28 61.93 49.29ZM56.69 49.29L56.59 49.29C55.83 49.29 55.11 49.58 54.58 50.1C54.05 50.62 53.75 51.33 53.75 52.06C53.75 52.8 54.05 53.51 54.58 54.03C55.11 54.55 55.83 54.84 56.59 54.84L56.7 54.84L56.69 54.84L56.8 54.84C57.49 54.84 58.12 54.61 58.62 54.21L58.61 54.22L58.05 53.28C57.68 53.56 57.23 53.73 56.76 53.75L56.75 53.75C56.52 53.76 56.28 53.73 56.06 53.65C55.84 53.57 55.64 53.44 55.48 53.28C55.18 52.94 55.02 52.51 55.02 52.07C55.02 51.62 55.18 51.19 55.48 50.86L55.48 50.86C55.62 50.71 55.8 50.59 55.99 50.51C56.18 50.43 56.39 50.39 56.6 50.39L56.66 50.39L56.65 50.39C57.16 50.39 57.66 50.55 58.06 50.86L58.05 50.86L58.61 49.92C58.08 49.51 57.43 49.29 56.76 49.29L56.69 49.29ZM46.27 49.29L46.2 49.29C45.85 49.29 45.51 49.36 45.19 49.5C44.87 49.63 44.59 49.83 44.35 50.08C44.09 50.34 43.9 50.66 43.77 51C43.64 51.35 43.58 51.71 43.59 52.08L43.59 52.08L43.59 52.19C43.59 52.93 43.89 53.6 44.37 54.09C44.86 54.56 45.52 54.85 46.26 54.85L46.35 54.85L46.35 54.85L46.45 54.85C47.25 54.85 47.98 54.57 48.55 54.1L48.54 54.11L47.98 53.25C47.55 53.62 47 53.83 46.43 53.83C46.04 53.87 45.65 53.75 45.35 53.51C45.04 53.27 44.84 52.93 44.79 52.55L44.79 52.54L48.82 52.54L48.82 52.08C48.86 51.34 48.6 50.61 48.1 50.06L48.1 50.06C47.88 49.82 47.6 49.62 47.3 49.49C46.99 49.36 46.66 49.29 46.32 49.29L46.27 49.29L46.27 49.29ZM38.4 49.45L38.4 50.51L39.52 50.51L39.52 52.89C39.52 54.18 40.15 54.84 41.39 54.84L41.44 54.84C41.95 54.84 42.43 54.69 42.83 54.44L42.82 54.44L42.5 53.47C42.18 53.64 41.83 53.73 41.46 53.74C40.96 53.74 40.7 53.45 40.7 52.88L40.7 50.51L42.62 50.51L42.62 49.45L40.7 49.45L40.7 47.85L39.5 47.85L39.5 49.45L38.4 49.45ZM33.38 53.28L32.86 54.18C33.49 54.59 34.27 54.84 35.1 54.84L35.18 54.84L35.17 54.84L35.34 54.85C35.95 54.85 36.52 54.67 37 54.36L36.99 54.37C37.19 54.23 37.36 54.05 37.47 53.84C37.59 53.63 37.65 53.39 37.65 53.15L37.65 53.12C37.65 52.24 37.02 51.72 35.77 51.56L35.21 51.48C34.6 51.38 34.29 51.19 34.29 50.93C34.29 50.54 34.63 50.35 35.29 50.35L35.31 50.35C35.93 50.35 36.52 50.51 37.03 50.79L37.01 50.78L37.49 49.84C36.82 49.45 36.06 49.26 35.28 49.29L35.29 49.29L35.15 49.29C34.61 49.29 34.09 49.46 33.65 49.77L33.66 49.76C33.47 49.9 33.32 50.09 33.22 50.29C33.11 50.5 33.06 50.73 33.06 50.96L33.06 51.02L33.06 51.01C33.06 51.87 33.69 52.38 34.93 52.54L35.45 52.62C36.09 52.72 36.41 52.9 36.41 53.16C36.41 53.6 36 53.83 35.17 53.83L35.15 53.83C34.51 53.83 33.89 53.63 33.37 53.27L33.38 53.28L33.38 53.28ZM28.82 49.29L28.76 49.29C28.41 49.29 28.07 49.36 27.75 49.49C27.43 49.63 27.14 49.83 26.91 50.07C26.42 50.63 26.14 51.33 26.15 52.07C26.15 52.8 26.42 53.51 26.91 54.06L26.91 54.06C27.15 54.31 27.43 54.5 27.75 54.64C28.07 54.77 28.41 54.84 28.76 54.84L28.83 54.84C29.16 54.86 29.48 54.8 29.78 54.66C30.08 54.53 30.34 54.32 30.54 54.06L30.54 54.06L30.54 54.73L31.7 54.73L31.7 49.45L30.54 49.45L30.54 50.08C30.34 49.83 30.08 49.63 29.79 49.5C29.5 49.36 29.18 49.29 28.86 49.29L28.82 49.29ZM66.36 49.45L66.36 54.72L67.52 54.72L67.52 51.76C67.52 50.85 67.9 50.39 68.67 50.39L68.7 50.39C68.95 50.39 69.19 50.45 69.4 50.55L69.39 50.55L69.75 49.45C69.51 49.35 69.25 49.29 68.99 49.29L68.91 49.3L68.91 49.3L68.87 49.3C68.59 49.29 68.32 49.37 68.09 49.5C67.85 49.64 67.65 49.84 67.52 50.07L67.52 50.08L67.52 49.45L66.36 49.45ZM50.03 49.45L50.03 54.72L51.23 54.72L51.23 51.76C51.23 50.85 51.61 50.39 52.38 50.39L52.41 50.39C52.66 50.39 52.9 50.45 53.11 50.55L53.1 50.55L53.46 49.45C53.21 49.35 52.95 49.29 52.67 49.29L52.62 49.29L52.58 49.29C52.31 49.29 52.04 49.36 51.8 49.5C51.56 49.64 51.37 49.83 51.23 50.07L51.23 50.08L51.23 49.45L50.03 49.45ZM22.71 50.39C23.51 50.39 23.91 50.86 23.91 51.79L23.91 54.72L25.11 54.72L25.11 51.4L25.11 51.31C25.11 50.78 24.91 50.28 24.53 49.9C24.11 49.51 23.55 49.3 22.97 49.3L22.95 49.3C22.58 49.27 22.22 49.35 21.89 49.51C21.56 49.68 21.28 49.92 21.08 50.23L21.08 50.24C20.89 49.93 20.63 49.68 20.31 49.51C19.99 49.35 19.63 49.27 19.27 49.3L19.28 49.3L19.26 49.3C18.96 49.3 18.66 49.37 18.39 49.5C18.13 49.64 17.9 49.83 17.73 50.08L17.72 50.08L17.72 49.46L16.53 49.46L16.53 54.73L17.73 54.73L17.73 51.8C17.73 50.86 18.17 50.4 19.04 50.4C19.84 50.4 20.24 50.87 20.24 51.8L20.24 54.73L21.4 54.73L21.4 51.8C21.4 50.86 21.85 50.4 22.72 50.4L22.71 50.39ZM58.53 5L58.45 5C54.45 4.99 50.55 6.16 47.24 8.36L47.31 8.32C50.65 10.96 53.1 14.52 54.36 18.54L54.4 18.69C55 20.55 55.35 22.69 55.35 24.92C55.35 27.11 55.01 29.23 54.38 31.23L54.42 31.08C53.19 35.13 50.73 38.72 47.35 41.37L47.31 41.4C50.62 43.58 54.53 44.73 58.52 44.72C61.38 44.72 64.1 44.14 66.57 43.09L66.44 43.14C71.27 41.16 75.13 37.42 77.19 32.7L77.24 32.58C78.26 30.3 78.85 27.65 78.85 24.86C78.85 22.07 78.26 19.42 77.19 17.02L77.24 17.15C75.21 12.41 71.37 8.64 66.55 6.63L66.42 6.58C63.94 5.53 61.26 4.99 58.56 5L58.53 5L58.53 5ZM33.46 5L33.43 5C30.68 4.99 27.96 5.55 25.44 6.63L25.57 6.57C20.73 8.55 16.86 12.29 14.8 17.01L14.75 17.14C13.73 19.42 13.13 22.07 13.13 24.86C13.13 27.64 13.73 30.3 14.8 32.7L14.75 32.57C16.77 37.3 20.6 41.07 25.42 43.09L25.55 43.14C27.88 44.14 30.61 44.72 33.47 44.72C37.49 44.72 41.41 43.55 44.75 41.35L44.67 41.4C41.32 38.76 38.86 35.2 37.61 31.18L37.57 31.03C36.95 29.03 36.64 26.96 36.64 24.88C36.64 21.72 37.36 18.59 38.74 15.73C40.12 12.87 42.14 10.35 44.64 8.34L44.68 8.31C41.39 6.14 37.51 4.98 33.54 4.99L33.45 4.99L33.46 4.99L33.46 5ZM46 9.25C42.77 11.69 40.38 15.05 39.16 18.86L39.13 19C38.51 20.9 38.2 22.89 38.21 24.89C38.21 26.98 38.54 28.99 39.15 30.87L39.11 30.73C40.3 34.58 42.69 37.97 45.95 40.43L46 40.46C49.24 38.04 51.63 34.68 52.85 30.87L52.88 30.74C53.49 28.84 53.79 26.87 53.79 24.89C53.79 22.79 53.45 20.76 52.83 18.85L52.87 18.99C51.67 15.15 49.29 11.75 46.04 9.28L46 9.25L46 9.25ZM72.95 53.75L72.9 53.75C72.69 53.75 72.48 53.7 72.28 53.62C72.09 53.53 71.91 53.41 71.77 53.26C71.47 52.93 71.31 52.5 71.31 52.06C71.31 51.62 71.47 51.2 71.77 50.87L71.77 50.87C71.92 50.72 72.11 50.59 72.31 50.51C72.51 50.42 72.73 50.38 72.95 50.38C73.17 50.38 73.39 50.42 73.59 50.51C73.79 50.59 73.97 50.72 74.13 50.87C74.42 51.21 74.59 51.63 74.59 52.07C74.59 52.52 74.42 52.94 74.12 53.28L74.13 53.27C73.98 53.42 73.8 53.54 73.61 53.62C73.41 53.7 73.2 53.75 72.99 53.75L72.95 53.75ZM62.05 53.75L61.99 53.75C61.78 53.75 61.58 53.7 61.39 53.62C61.2 53.54 61.03 53.43 60.89 53.28C60.6 52.94 60.45 52.51 60.45 52.06C60.45 51.62 60.6 51.19 60.89 50.85L60.89 50.86C61.03 50.71 61.2 50.59 61.39 50.51C61.58 50.43 61.78 50.38 61.99 50.39L62.05 50.39L62.09 50.39C62.54 50.39 62.94 50.57 63.22 50.87C63.51 51.18 63.68 51.58 63.68 52.03L63.68 52.08L63.68 52.07L63.68 52.14C63.69 52.56 63.53 52.97 63.24 53.29L63.25 53.29C63.1 53.43 62.93 53.55 62.74 53.63C62.54 53.71 62.34 53.75 62.13 53.75L62.04 53.74L62.05 53.74L62.05 53.75ZM28.98 53.75L28.91 53.75C28.7 53.75 28.49 53.71 28.3 53.63C28.1 53.54 27.93 53.43 27.79 53.28C27.5 52.94 27.34 52.51 27.34 52.06C27.34 51.62 27.5 51.19 27.79 50.85L27.79 50.86C27.94 50.7 28.13 50.57 28.34 50.49C28.54 50.41 28.77 50.38 28.99 50.39L29.05 50.39C29.25 50.39 29.46 50.43 29.65 50.51C29.84 50.6 30.01 50.72 30.15 50.88L30.15 50.88C30.43 51.22 30.59 51.64 30.59 52.08C30.59 52.52 30.43 52.94 30.15 53.28L30.15 53.28C30.01 53.43 29.84 53.54 29.64 53.63C29.45 53.71 29.25 53.75 29.04 53.75L28.99 53.75L28.99 53.75L28.98 53.75ZM47.63 51.6L44.84 51.6C44.87 51.26 45.04 50.94 45.29 50.72C45.55 50.49 45.89 50.36 46.23 50.36C46.58 50.36 46.92 50.49 47.17 50.71C47.43 50.94 47.6 51.25 47.63 51.59L47.63 51.6L47.63 51.6Z" fill="#FFFFFF" fill-opacity="1.000000" fill-rule="nonzero"/>
		</g>
	</g>
</svg>
