<svg width="92.000000" height="60.000000" viewBox="0 0 92 60" fill="none" xmlns="http://www.w3.org/2000/svg" xmlns:xlink="http://www.w3.org/1999/xlink">
	<desc>
			Created with Pixso.
	</desc>
	<defs>
		<clipPath id="clip10_51425">
			<rect id="cib:cc-paypal" width="92.000000" height="60.000000" fill="white" fill-opacity="0"/>
		</clipPath>
	</defs>
	<g opacity="0.500000">
		<rect id="cib:cc-paypal" width="92.000000" height="60.000000" fill="#FFFFFF" fill-opacity="0"/>
		<g clip-path="url(#clip10_51425)">
			<path id="Rectangle 116" d="M5 20.32L50 20.32L51 26.12L50 31.45L50 42.58L5 42.58L5 20.32Z" fill="#283B82" fill-opacity="1.000000" fill-rule="nonzero"/>
			<path id="Rectangle 117" d="M51 20.32L88.17 20.32L89 26.12L88.17 31.45L88.17 42.58L51 42.58L51 20.32Z" fill="#469BDB" fill-opacity="1.000000" fill-rule="nonzero"/>
			<path id="Vector" d="M29.75 31.13C29.75 32.83 28.2 34.12 26.24 34.12C24.77 34.12 23.68 33.4 23.68 32.04C23.68 30.34 25.2 28.98 27.15 28.98C28.63 28.98 29.75 29.77 29.75 31.13ZM12.85 24.4L12.1 24.4C11.86 24.4 11.62 24.54 11.59 24.77L10.9 28.48L12.21 28.44C13.97 28.44 15.33 28.23 15.65 26.47C16.01 24.61 14.66 24.4 12.85 24.4ZM58.21 24.4L57.49 24.4C57.21 24.4 57.01 24.54 56.98 24.77L56.31 28.48L57.59 28.44C59.66 28.44 61.1 28.02 61.1 25.94C61.08 24.47 59.57 24.4 58.21 24.4ZM91.99 6.38L91.99 55.27C91.99 57.04 91.18 58.74 89.75 59.99C88.31 61.24 86.36 61.94 84.33 61.94L7.66 61.94C5.63 61.94 3.68 61.24 2.24 59.99C0.8 58.74 -0.01 57.04 -0.01 55.27L-0.01 6.38C-0.01 4.62 0.8 2.92 2.24 1.67C3.68 0.42 5.63 -0.28 7.66 -0.28L84.33 -0.28C86.36 -0.28 88.31 0.42 89.75 1.67C91.18 2.92 91.99 4.62 91.99 6.38ZM20.49 25.19C20.49 22.27 17.9 21.3 14.94 21.3L8.56 21.3C8.35 21.3 8.15 21.37 8 21.49C7.84 21.61 7.75 21.77 7.72 21.95L5.11 36.13C5.06 36.41 5.3 36.69 5.62 36.69L8.65 36.69C9.08 36.69 9.48 36.28 9.53 35.89L10.25 32.2C10.41 31.2 12.36 31.55 13.13 31.55C17.7 31.55 20.49 29.19 20.49 25.19L20.49 25.19ZM33.94 26.41L30.9 26.41C30.29 26.41 30.26 27.18 30.23 27.55C29.3 26.37 27.96 26.16 26.44 26.16C22.53 26.16 19.54 29.15 19.54 32.44C19.54 35.15 21.49 36.91 24.61 36.91C26.04 36.91 27.83 36.23 28.84 35.26C28.75 35.54 28.69 35.83 28.68 36.12C28.68 36.44 28.84 36.68 29.19 36.68L31.94 36.68C32.37 36.68 32.74 36.27 32.82 35.88L34.45 26.95C34.5 26.69 34.26 26.41 33.94 26.41ZM40.41 40.01L50.58 27.15C50.66 27.08 50.66 27.01 50.66 26.91C50.66 26.68 50.42 26.43 50.15 26.43L47.08 26.43C46.94 26.43 46.8 26.46 46.67 26.52C46.55 26.59 46.44 26.67 46.36 26.77L42.13 32.19L40.37 26.98C40.31 26.82 40.19 26.69 40.03 26.59C39.87 26.49 39.69 26.43 39.49 26.43L36.51 26.43C36.23 26.43 35.99 26.68 35.99 26.91C35.99 27.08 39.11 34.8 39.38 35.54C38.95 36.07 36.11 39.51 36.11 39.93C36.11 40.18 36.35 40.37 36.62 40.37L39.69 40.37C39.83 40.37 39.97 40.33 40.09 40.27C40.22 40.2 40.32 40.12 40.41 40.01L40.41 40.01ZM65.85 25.19C65.85 22.27 63.26 21.3 60.31 21.3L53.96 21.3C53.75 21.3 53.55 21.36 53.38 21.48C53.22 21.6 53.12 21.77 53.08 21.95L50.5 36.12C50.46 36.4 50.7 36.67 51.01 36.67L54.28 36.67C54.6 36.67 54.84 36.47 54.92 36.23L55.64 32.2C55.8 31.2 57.75 31.55 58.51 31.55C63.05 31.55 65.85 29.19 65.85 25.19ZM79.3 26.41L76.26 26.41C75.65 26.41 75.62 27.18 75.57 27.55C74.69 26.37 73.34 26.16 71.79 26.16C67.87 26.16 64.89 29.15 64.89 32.44C64.89 35.15 66.83 36.91 69.95 36.91C71.43 36.91 73.22 36.23 74.18 35.26C74.13 35.47 74.02 35.91 74.02 36.12C74.02 36.44 74.18 36.68 74.53 36.68L77.29 36.68C77.73 36.68 78.09 36.27 78.17 35.88L79.8 26.95C79.85 26.69 79.61 26.41 79.3 26.41ZM86.88 21.79C86.88 21.51 86.64 21.3 86.37 21.3L83.41 21.3C83.18 21.3 82.93 21.47 82.9 21.68L80.32 36.12L80.27 36.19C80.27 36.44 80.51 36.68 80.83 36.68L83.46 36.68C83.86 36.68 84.26 36.27 84.29 35.88L86.88 21.83L86.88 21.79ZM72.51 28.98C70.56 28.98 69.04 30.33 69.04 32.04C69.04 33.38 70.16 34.12 71.63 34.12C73.55 34.12 75.09 32.84 75.09 31.13C75.11 29.77 73.99 28.98 72.51 28.98Z" fill="#FFFFFF" fill-opacity="1.000000" fill-rule="nonzero"/>
		</g>
	</g>
</svg>
