<svg width="92.000000" height="60.000000" viewBox="0 0 92 60" fill="none" xmlns="http://www.w3.org/2000/svg" xmlns:xlink="http://www.w3.org/1999/xlink">
	<desc>
			Created with Pixso.
	</desc>
	<defs>
		<clipPath id="clip10_51415">
			<rect id="fontisto:visa" width="92.000000" height="60.000000" fill="white" fill-opacity="0"/>
		</clipPath>
	</defs>
	<g opacity="0.500000">
		<rect id="fontisto:visa" width="92.000000" height="60.000000" fill="#FFFFFF" fill-opacity="0"/>
		<g clip-path="url(#clip10_51415)">
			<rect id="Rectangle 111" x="4.333984" y="15.000000" width="83.000000" height="30.967741" fill="#1434CB" fill-opacity="1.000000"/>
			<path id="Vector" d="M85.86 60L6.13 60C4.5 60 2.94 59.36 1.79 58.24C0.64 57.11 0 55.59 0 54L0 6C0 4.4 0.64 2.88 1.79 1.75C2.94 0.63 4.5 0 6.13 0L85.86 0C87.49 0 89.05 0.63 90.2 1.75C91.35 2.88 92 4.4 92 6L92 54C92 55.59 91.35 57.11 90.2 58.24C89.05 59.36 87.49 60 85.86 60ZM45.59 36.9L44.67 42.53C47.01 43.49 49.55 43.94 52.09 43.85L52.06 43.85C55.04 44.02 57.99 43.2 60.43 41.52L60.39 41.55C61.38 40.83 62.19 39.9 62.75 38.82C63.31 37.74 63.6 36.54 63.6 35.34L63.6 35.3C63.6 32.55 61.72 30.27 58.01 28.5C57 28.02 56.03 27.46 55.12 26.82L55.18 26.86C54.92 26.7 54.71 26.48 54.56 26.22C54.41 25.97 54.32 25.68 54.3 25.38L54.3 25.38C54.32 25.07 54.42 24.77 54.59 24.5C54.76 24.24 54.99 24.02 55.27 23.88L55.28 23.87C56.14 23.39 57.12 23.16 58.11 23.23L58.1 23.23L58.3 23.23L58.5 23.23C60.14 23.23 61.7 23.57 63.11 24.2L63.04 24.17L63.64 24.48L64.56 19.05C62.7 18.35 60.73 17.99 58.74 18L58.61 18L58.62 18C55.74 17.87 52.9 18.69 50.55 20.33L50.59 20.3C49.62 20.97 48.82 21.87 48.27 22.91C47.72 23.94 47.43 25.1 47.43 26.27L47.43 26.28C47.41 28.92 49.35 31.21 53.22 33.08C54.24 33.52 55.13 34.05 55.92 34.69L55.9 34.68C56.13 34.87 56.31 35.1 56.44 35.36C56.57 35.62 56.65 35.91 56.66 36.2L56.66 36.21C56.66 37 56.17 37.69 55.47 38L55.46 38C54.69 38.4 53.78 38.63 52.82 38.63L52.7 38.63L52.7 38.63L52.51 38.63C50.32 38.63 48.25 38.15 46.39 37.3L46.48 37.34L45.6 36.91L45.59 36.9ZM71.46 39.75L79.93 39.75C80.07 40.32 80.34 41.57 80.73 43.5L86.88 43.5L81.53 18.43L76.42 18.43C75.69 18.36 74.96 18.53 74.33 18.91C73.71 19.28 73.23 19.85 72.95 20.51L72.95 20.54L63.13 43.5L70.08 43.5L71.48 39.75L71.46 39.75ZM38.05 18.43L33.89 43.5L40.52 43.5L44.68 18.43L38.05 18.43ZM12.57 23.54L17.97 43.46L24.95 43.46L35.37 18.43L28.35 18.43L21.87 35.54L21.19 32.06L18.88 20.54C18.76 19.87 18.38 19.28 17.82 18.89C17.25 18.49 16.56 18.33 15.88 18.43L15.89 18.42L5.19 18.42L5.11 18.93C13.35 20.98 18.76 25.4 21.2 32.06C20.45 30.15 19.3 28.43 17.81 27L17.81 26.99C16.35 25.53 14.61 24.36 12.68 23.57L12.58 23.54L12.57 23.54ZM78.86 34.59L73.34 34.59C73.71 33.63 74.59 31.3 75.97 27.6L76.09 27.24L76.5 26.23C76.67 25.81 76.78 25.47 76.86 25.21L77.34 27.36L78.85 34.59L78.86 34.59Z" fill="#FFFFFF" fill-opacity="1.000000" fill-rule="nonzero"/>
		</g>
	</g>
</svg>
