<svg width="44.000000" height="44.000000" viewBox="0 0 44 44" fill="none" xmlns="http://www.w3.org/2000/svg" xmlns:xlink="http://www.w3.org/1999/xlink">
	<desc>
			Created with Pixso.
	</desc>
	<defs>
		<clipPath id="clip15_23890">
			<rect id="ion:logo-instagram" width="44.561779" height="44.561779" transform="translate(-0.789062 -0.690430)" fill="white" fill-opacity="0"/>
		</clipPath>
	</defs>
	<rect id="ion:logo-instagram" width="44.561779" height="44.561779" transform="translate(-0.789062 -0.690430)" fill="#FFFFFF" fill-opacity="0"/>
	<g clip-path="url(#clip15_23890)">
		<path id="Vector" d="M29.61 5.34C31.76 5.35 33.83 6.2 35.35 7.73C36.87 9.25 37.73 11.31 37.73 13.46L37.73 29.71C37.73 31.86 36.87 33.92 35.35 35.45C33.83 36.97 31.76 37.83 29.61 37.83L13.36 37.83C11.21 37.83 9.15 36.97 7.63 35.45C6.1 33.92 5.25 31.86 5.24 29.71L5.24 13.46C5.25 11.31 6.1 9.25 7.63 7.73C9.15 6.2 11.21 5.35 13.36 5.34L29.61 5.34ZM29.61 2.09L13.36 2.09C7.11 2.09 1.99 7.21 1.99 13.46L1.99 29.71C1.99 35.96 7.11 41.08 13.36 41.08L29.61 41.08C35.87 41.08 40.98 35.96 40.98 29.71L40.98 13.46C40.98 7.21 35.87 2.09 29.61 2.09Z" fill="#FFFFFF" fill-opacity="1.000000" fill-rule="nonzero"/>
		<path id="Vector" d="M32.05 13.46C31.57 13.46 31.09 13.32 30.69 13.05C30.29 12.78 29.98 12.4 29.8 11.96C29.61 11.51 29.56 11.02 29.66 10.55C29.75 10.08 29.98 9.64 30.32 9.3C30.66 8.96 31.1 8.73 31.57 8.64C32.04 8.54 32.53 8.59 32.98 8.77C33.42 8.96 33.81 9.27 34.07 9.67C34.34 10.07 34.48 10.54 34.48 11.03C34.48 11.35 34.42 11.66 34.3 11.96C34.18 12.25 34 12.52 33.77 12.75C33.55 12.98 33.28 13.16 32.98 13.28C32.68 13.4 32.37 13.46 32.05 13.46ZM21.49 15.09C22.77 15.09 24.03 15.47 25.1 16.18C26.17 16.9 27 17.91 27.49 19.1C27.98 20.29 28.11 21.59 27.86 22.85C27.61 24.11 26.99 25.27 26.08 26.18C25.17 27.09 24.02 27.71 22.76 27.96C21.49 28.21 20.19 28.08 19 27.59C17.81 27.1 16.8 26.26 16.08 25.2C15.37 24.13 14.99 22.87 14.99 21.59C14.99 19.86 15.68 18.21 16.89 16.99C18.11 15.77 19.76 15.09 21.49 15.09ZM21.49 11.84C19.56 11.84 17.67 12.41 16.07 13.48C14.47 14.55 13.22 16.07 12.48 17.86C11.74 19.64 11.55 21.6 11.93 23.49C12.3 25.38 13.23 27.12 14.59 28.48C15.96 29.84 17.69 30.77 19.59 31.15C21.48 31.52 23.44 31.33 25.22 30.59C27 29.85 28.52 28.6 29.59 27C30.66 25.4 31.24 23.51 31.24 21.59C31.24 19 30.21 16.52 28.38 14.69C26.55 12.87 24.07 11.84 21.49 11.84Z" fill="#FFFFFF" fill-opacity="1.000000" fill-rule="nonzero"/>
	</g>
</svg>
