<svg width="68.000000" height="68.000000" viewBox="0 0 68 68" fill="none" xmlns="http://www.w3.org/2000/svg" xmlns:xlink="http://www.w3.org/1999/xlink">
	<desc>
			Created with Pixso.
	</desc>
	<defs>
		<clipPath id="clip15_23897">
			<rect id="reddit-logo-2436 1" width="68.000000" height="68.000000" transform="translate(-0.969727 0.000000)" fill="white" fill-opacity="0"/>
		</clipPath>
	</defs>
	<rect id="reddit-logo-2436 1" width="68.000000" height="68.000000" transform="translate(-0.969727 0.000000)" fill="#FFFFFF" fill-opacity="0"/>
	<g clip-path="url(#clip15_23897)">
		<path id="Vector" d="M55.39 33.96C55.29 31.25 53.02 29.14 50.3 29.23C49.1 29.27 47.96 29.77 47.09 30.59C43.27 27.99 38.77 26.56 34.16 26.46L36.33 15.98L43.52 17.49C43.72 19.34 45.38 20.67 47.22 20.47C49.07 20.27 50.4 18.62 50.2 16.77C50 14.93 48.35 13.59 46.5 13.79C45.44 13.9 44.49 14.52 43.97 15.44L35.73 13.79C35.17 13.67 34.62 14.02 34.49 14.59C34.49 14.6 34.49 14.6 34.49 14.6L32.01 26.26C27.33 26.33 22.78 27.77 18.91 30.39C16.94 28.54 13.83 28.63 11.98 30.61C10.13 32.58 10.22 35.69 12.2 37.54C12.58 37.9 13.02 38.21 13.52 38.42C13.48 38.92 13.48 39.41 13.52 39.9C13.52 47.42 22.28 53.54 33.1 53.54C43.91 53.54 52.67 47.43 52.67 39.9C52.71 39.41 52.71 38.92 52.67 38.42C54.36 37.58 55.42 35.84 55.39 33.96ZM21.8 37.32C21.8 35.47 23.31 33.96 25.16 33.96C27.02 33.96 28.53 35.47 28.53 37.32C28.53 39.17 27.02 40.69 25.16 40.69C23.3 40.67 21.8 39.17 21.8 37.32ZM41.31 46.69L41.31 46.56C38.92 48.35 36 49.27 33.01 49.14C30.02 49.27 27.1 48.35 24.71 46.56C24.4 46.17 24.45 45.6 24.84 45.28C25.17 45 25.65 45 25.99 45.28C28.01 46.76 30.47 47.51 32.98 47.39C35.48 47.52 37.95 46.81 40 45.35C40.37 44.99 40.97 44.99 41.33 45.36C41.69 45.73 41.68 46.33 41.31 46.69ZM40.85 40.93C40.79 40.93 40.74 40.93 40.68 40.93L40.71 40.8C38.86 40.8 37.35 39.29 37.35 37.44C37.35 35.58 38.86 34.07 40.71 34.07C42.56 34.07 44.08 35.58 44.08 37.44C44.15 39.29 42.71 40.85 40.85 40.93Z" fill="#FFFFFF" fill-opacity="1.000000" fill-rule="nonzero"/>
	</g>
</svg>
