<svg width="19.000000" height="24.000000" viewBox="0 0 19 24" fill="none" xmlns="http://www.w3.org/2000/svg" xmlns:xlink="http://www.w3.org/1999/xlink">
	<desc>
			Created with Pixso.
	</desc>
	<defs>
		<clipPath id="clip950_18199">
			<rect id="Icon / Apple" width="19.000000" height="24.000000" fill="white" fill-opacity="0"/>
		</clipPath>
	</defs>
	<g clip-path="url(#clip950_18199)">
		<path id="" d="M9.17 5.26C10.15 5.26 11.39 4.56 12.13 3.63C12.8 2.79 13.29 1.62 13.29 0.44C13.29 0.28 13.27 0.13 13.24 0C12.14 0.04 10.82 0.76 10.03 1.74C9.4 2.47 8.83 3.63 8.83 4.82C8.83 5 8.86 5.17 8.87 5.23C8.94 5.24 9.05 5.26 9.17 5.26ZM5.69 22.8C7.04 22.8 7.63 21.85 9.32 21.85C11.03 21.85 11.41 22.77 12.91 22.77C14.38 22.77 15.37 21.34 16.3 19.95C17.35 18.36 17.78 16.79 17.81 16.72C17.71 16.69 14.89 15.49 14.89 12.11C14.89 9.18 17.11 7.87 17.24 7.76C15.76 5.56 13.52 5.5 12.91 5.5C11.25 5.5 9.9 6.55 9.05 6.55C8.14 6.55 6.93 5.56 5.49 5.56C2.76 5.56 0 7.91 0 12.34C0 15.1 1.02 18.01 2.29 19.9C3.38 21.49 4.32 22.8 5.69 22.8Z" fill="#282828" fill-opacity="1.000000" fill-rule="nonzero"/>
	</g>
</svg>
