<svg width="18.000000" height="18.000000" viewBox="0 0 18 18" fill="none" xmlns="http://www.w3.org/2000/svg" xmlns:xlink="http://www.w3.org/1999/xlink">
	<desc>
			Created with Pixso.
	</desc>
	<defs/>
	<path id="Shape" d="M17.64 9.2C17.64 8.56 17.58 7.95 17.47 7.36L9 7.36L9 10.84L13.84 10.84C13.63 11.96 13 12.92 12.04 13.56L12.04 15.81L14.95 15.81C16.65 14.25 17.64 11.94 17.64 9.2Z" fill="#4285F4" fill-opacity="1.000000" fill-rule="evenodd"/>
	<path id="Shape" d="M9 18C11.42 18 13.46 17.19 14.95 15.82L12.04 13.56C11.24 14.1 10.21 14.42 9 14.42C6.65 14.42 4.67 12.83 3.96 10.71L0.95 10.71L0.95 13.04C2.43 15.98 5.48 18 9 18Z" fill="#34A853" fill-opacity="1.000000" fill-rule="evenodd"/>
	<path id="Shape" d="M3.96 10.71C3.78 10.16 3.68 9.59 3.68 9C3.68 8.4 3.78 7.83 3.96 7.29L3.96 4.95L0.95 4.95C0.34 6.17 0 7.54 0 9C0 10.45 0.34 11.82 0.95 13.04L3.96 10.71Z" fill="#FBBC05" fill-opacity="1.000000" fill-rule="evenodd"/>
	<path id="Shape" d="M9 3.58C10.32 3.58 11.5 4.03 12.44 4.92L15.02 2.34C13.46 0.89 11.42 0 9 0C5.48 0 2.43 2.01 0.95 4.95L3.96 7.28C4.67 5.16 6.65 3.58 9 3.58Z" fill="#EA4335" fill-opacity="1.000000" fill-rule="evenodd"/>
</svg>
