<svg width="27.000000" height="36.000000" viewBox="0 0 27 36" fill="none" xmlns="http://www.w3.org/2000/svg" xmlns:xlink="http://www.w3.org/1999/xlink">
	<desc>
			Created with Pixso.
	</desc>
	<defs>
		<clipPath id="clip3_14090">
			<rect id="BtnIcons" width="27.000000" height="36.000000" transform="translate(0.000000 -0.500000)" fill="white" fill-opacity="0"/>
		</clipPath>
	</defs>
	<g clip-path="url(#clip3_14090)">
		<mask id="mask3_14086" mask-type="alpha" maskUnits="userSpaceOnUse" x="5.000000" y="11.210938" width="17.656786" height="13.289424">
			<path id="Vector" d="M5.29 17.14C5.1 17.33 5 17.58 5 17.85C5 18.12 5.1 18.37 5.29 18.56L10.95 24.21C11.13 24.4 11.39 24.5 11.65 24.5C11.91 24.49 12.16 24.39 12.35 24.2C12.53 24.02 12.64 23.77 12.64 23.5C12.64 23.24 12.54 22.99 12.36 22.8L8.41 18.85L21.65 18.85C21.92 18.85 22.17 18.75 22.36 18.56C22.55 18.37 22.65 18.12 22.65 17.85C22.65 17.58 22.55 17.33 22.36 17.14C22.17 16.96 21.92 16.85 21.65 16.85L8.41 16.85L12.36 12.9C12.54 12.71 12.64 12.46 12.64 12.2C12.64 11.93 12.53 11.68 12.35 11.5C12.16 11.31 11.91 11.21 11.65 11.21C11.39 11.2 11.13 11.3 10.95 11.49L5.29 17.14Z" fill="#000000" fill-opacity="1.000000" fill-rule="nonzero"/>
		</mask>
		<g mask="url(#mask3_14086)">
			<rect id="Default" width="27.000000" height="36.000000" transform="matrix(1 1.22465e-16 1.22465e-16 -1 0 35.5)" fill="#B3B3B3" fill-opacity="1.000000"/>
		</g>
		<g mask="url(#mask3_14086)"/>
		<g mask="url(#mask3_14086)"/>
	</g>
</svg>
