<svg width="39.000000" height="40.000000" viewBox="0 0 39 40" fill="none" xmlns="http://www.w3.org/2000/svg" xmlns:xlink="http://www.w3.org/1999/xlink">
	<desc>
			Created with Pixso.
	</desc>
	<defs/>
	<path id="Vector" d="M8.41 7.67L19.52 18.98L19 19.5L18.47 18.98L29.58 7.67L30.63 8.71L19.52 20.01Q19.52 20.02 19.51 20.02Q19.46 20.07 19.4 20.11Q19.34 20.15 19.27 20.18Q19.2 20.21 19.13 20.22Q19.06 20.24 18.99 20.24Q18.92 20.24 18.84 20.22Q18.77 20.21 18.71 20.18Q18.64 20.15 18.58 20.11Q18.52 20.07 18.47 20.01L7.36 8.71L8.41 7.67ZM8.41 18.98L19.52 30.28L19 30.8L18.47 30.28L29.58 18.98L30.63 20.01L19.52 31.32Q19.52 31.32 19.51 31.33Q19.46 31.38 19.4 31.42Q19.34 31.46 19.27 31.49Q19.2 31.51 19.13 31.53Q19.06 31.54 18.99 31.54Q18.92 31.54 18.84 31.52Q18.77 31.51 18.71 31.48Q18.64 31.45 18.58 31.41Q18.52 31.37 18.47 31.32L7.36 20.01L8.41 18.98ZM29.58 7.7L29.58 7.67C29.87 7.38 30.33 7.37 30.62 7.66C30.92 7.95 30.92 8.41 30.63 8.71L30.61 8.71L29.58 7.7ZM7.38 8.71L7.36 8.71C7.06 8.41 7.07 7.95 7.36 7.66C7.66 7.37 8.12 7.38 8.41 7.67L8.41 7.7L7.38 8.71ZM29.58 19L29.58 18.98C29.87 18.68 30.33 18.68 30.62 18.97C30.92 19.26 30.92 19.72 30.63 20.01L30.61 20.01L29.58 19ZM7.38 20.01L7.36 20.01C7.06 19.72 7.07 19.26 7.36 18.97C7.66 18.68 8.12 18.68 8.41 18.98L8.41 19L7.38 20.01Z" fill="#FFFFFF" fill-opacity="1.000000" fill-rule="evenodd"/>
</svg>
