<svg width="27.000000" height="36.000000" viewBox="0 0 27 36" fill="none" xmlns="http://www.w3.org/2000/svg" xmlns:xlink="http://www.w3.org/1999/xlink">
	<desc>
			Created with Pixso.
	</desc>
	<defs>
		<clipPath id="clip2_11863">
			<rect id="Target=document" width="27.000000" height="36.000000" transform="translate(-0.500000 -0.500000)" fill="white" fill-opacity="0"/>
		</clipPath>
	</defs>
	<rect id="Target=document" width="27.000000" height="36.000000" transform="translate(-0.500000 -0.500000)" fill="#FFFFFF" fill-opacity="0"/>
	<g clip-path="url(#clip2_11863)">
		<mask id="mask2_11864" mask-type="alpha" maskUnits="userSpaceOnUse" x="-0.500000" y="2.500000" width="26.999868" height="31.528061">
			<path id="Vector" d="M14.5 11.5L14.5 2.5L5.5 2.5C4.7 2.5 3.94 2.81 3.37 3.37C2.81 3.94 2.5 4.7 2.5 5.5L2.5 16.89C4.04 16.11 5.8 15.82 7.51 16.09C9.23 16.36 10.82 17.16 12.05 18.38C13.29 19.6 14.1 21.18 14.39 22.89C14.67 24.61 14.41 26.37 13.63 27.92L16.73 31.01C17.14 31.43 17.39 31.95 17.47 32.5L23.5 32.5C24.29 32.5 25.05 32.18 25.62 31.62C26.18 31.05 26.5 30.29 26.5 29.5L26.5 14.5L17.5 14.5C16.7 14.5 15.94 14.18 15.37 13.62C14.81 13.05 14.5 12.29 14.5 11.5ZM16.75 11.5L16.75 3.25L25.75 12.25L17.5 12.25C17.3 12.25 17.11 12.17 16.96 12.03C16.82 11.88 16.75 11.69 16.75 11.5ZM6.25 31C7.65 31 9.01 30.56 10.16 29.75L14.08 33.66C14.18 33.78 14.3 33.86 14.44 33.93C14.58 33.99 14.73 34.02 14.88 34.02C15.03 34.03 15.18 34 15.32 33.94C15.46 33.88 15.59 33.8 15.69 33.69C15.8 33.59 15.88 33.46 15.94 33.32C16 33.18 16.03 33.03 16.02 32.88C16.02 32.73 15.99 32.58 15.93 32.44C15.86 32.3 15.78 32.18 15.66 32.08L11.75 28.16C12.62 26.92 13.06 25.43 12.99 23.92C12.91 22.41 12.33 20.96 11.34 19.82C10.35 18.68 9 17.9 7.52 17.62C6.03 17.33 4.49 17.55 3.15 18.25C1.8 18.94 0.73 20.07 0.1 21.44C-0.52 22.82 -0.67 24.37 -0.31 25.84C0.04 27.31 0.88 28.62 2.07 29.55C3.26 30.49 4.73 31 6.25 31ZM6.25 28.75C5.05 28.75 3.91 28.27 3.06 27.43C2.22 26.58 1.75 25.44 1.75 24.25C1.75 23.05 2.22 21.91 3.06 21.06C3.91 20.22 5.05 19.75 6.25 19.75C7.44 19.75 8.58 20.22 9.43 21.06C10.27 21.91 10.75 23.05 10.75 24.25C10.75 25.44 10.27 26.58 9.43 27.43C8.58 28.27 7.44 28.75 6.25 28.75Z" fill="#FFFFFF" fill-opacity="1.000000" fill-rule="nonzero"/>
		</mask>
		<g mask="url(#mask2_11864)">
			<rect id="Default" x="-0.500000" y="-0.500000" width="27.000000" height="36.000000" fill="#FFFFFF" fill-opacity="1.000000"/>
		</g>
		<g mask="url(#mask2_11864)"/>
		<g mask="url(#mask2_11864)"/>
	</g>
</svg>
