<svg width="29.000000" height="33.000000" viewBox="0 0 29 33" fill="none" xmlns="http://www.w3.org/2000/svg" xmlns:xlink="http://www.w3.org/1999/xlink">
	<desc>
			Created with Pixso.
	</desc>
	<defs>
		<clipPath id="clip2_50747">
			<rect id="icon " width="29.600000" height="32.666672" transform="translate(-0.600098 -0.333252)" fill="white" fill-opacity="0"/>
		</clipPath>
	</defs>
	<rect id="icon " width="29.600000" height="32.666672" transform="translate(-0.600098 -0.333252)" fill="#FFFFFF" fill-opacity="0"/>
	<g clip-path="url(#clip2_50747)">
		<path id="Vector" d="M8.39 29.33C7.66 29.33 7.03 29.07 6.51 28.55C5.99 28.02 5.73 27.4 5.73 26.66C5.73 25.93 5.99 25.3 6.51 24.78C7.04 24.26 7.66 24 8.39 24C9.13 24 9.76 24.26 10.28 24.78C10.8 25.3 11.06 25.93 11.06 26.66C11.06 27.4 10.8 28.02 10.28 28.55C9.76 29.07 9.13 29.33 8.39 29.33ZM21.73 29.33C21 29.33 20.37 29.07 19.85 28.55C19.32 28.02 19.06 27.4 19.06 26.66C19.06 25.93 19.32 25.3 19.85 24.78C20.37 24.26 21 24 21.73 24C22.46 24 23.09 24.26 23.61 24.78C24.14 25.3 24.4 25.93 24.39 26.66C24.39 27.4 24.13 28.02 23.61 28.55C23.09 29.07 22.46 29.33 21.73 29.33ZM7.26 8L10.46 14.66L19.79 14.66L23.46 8L7.26 8ZM6 5.33L28 5.33L21.36 17.33L9.86 17.33L8.39 20L24.39 20L24.39 22.66L3.89 22.66L7.86 15.46L3.06 5.33L0.39 5.33L0.39 2.66L4.73 2.66L6 5.33Z" fill="#FFFFFF" fill-opacity="1.000000" fill-rule="nonzero"/>
	</g>
</svg>
