<svg width="32.000000" height="32.000000" viewBox="0 0 32 32" fill="none" xmlns="http://www.w3.org/2000/svg" xmlns:xlink="http://www.w3.org/1999/xlink">
	<desc>
			Created with Pixso.
	</desc>
	<defs>
		<clipPath id="clip15_23845">
			<rect id="Copy" width="32.000000" height="32.000000" fill="white" fill-opacity="0"/>
		</clipPath>
	</defs>
	<rect id="Copy" width="32.000000" height="32.000000" fill="#FFFFFF" fill-opacity="0"/>
	<g clip-path="url(#clip15_23845)">
		<path id="Vector" d="M8.8 15.19C8.8 11.56 8.8 9.74 9.92 8.61C11.04 7.48 12.85 7.48 16.48 7.48L20.32 7.48C23.93 7.48 25.75 7.48 26.87 8.61C28 9.74 28 11.56 28 15.19L28 21.62C28 25.25 28 27.07 26.87 28.2C25.75 29.33 23.93 29.33 20.32 29.33L16.48 29.33C12.85 29.33 11.04 29.33 9.92 28.2C8.8 27.07 8.8 25.25 8.8 21.62L8.8 15.19Z" fill="#2F57BF" fill-opacity="1.000000" fill-rule="nonzero"/>
		<g opacity="0.500000">
			<path id="Vector" d="M5.56 4.22C4 5.79 4 8.3 4 13.33L4 16C4 21.02 4 23.54 5.56 25.1C6.38 25.92 7.47 26.31 9.05 26.5C8.8 25.38 8.8 23.83 8.8 21.62L8.8 15.19C8.8 11.56 8.8 9.74 9.92 8.61C11.04 7.48 12.85 7.48 16.48 7.48L20.32 7.48C22.52 7.48 24.05 7.48 25.17 7.73C24.98 6.14 24.59 5.05 23.77 4.22C22.2 2.66 19.69 2.66 14.66 2.66C9.63 2.66 7.12 2.66 5.56 4.22Z" fill="#2F57BF" fill-opacity="1.000000" fill-rule="nonzero"/>
		</g>
	</g>
</svg>
