<svg width="27.000000" height="27.000000" viewBox="0 0 27 27" fill="none" xmlns="http://www.w3.org/2000/svg" xmlns:xlink="http://www.w3.org/1999/xlink">
	<desc>
			Created with Pixso.
	</desc>
	<defs/>
	<path id="Vector" d="M10.65 15.84C9.92 15.11 9.47 14.11 9.47 13C9.47 10.77 11.27 8.97 13.49 8.97C14.61 8.97 15.61 9.42 16.34 10.15L10.65 15.84Z" stroke="#505050" stroke-opacity="1.000000" stroke-width="2.250000" stroke-linejoin="round"/>
	<path id="Vector" d="M20.04 5.99C18.07 4.5 15.82 3.69 13.49 3.69C9.52 3.69 5.82 6.03 3.24 10.08C2.23 11.67 2.23 14.33 3.24 15.92C4.13 17.32 5.17 18.52 6.29 19.49" stroke="#505050" stroke-opacity="1.000000" stroke-width="2.250000" stroke-linejoin="round" stroke-linecap="round"/>
	<path id="Vector" d="M9.47 21.47C10.75 22.01 12.11 22.3 13.49 22.3C17.47 22.3 21.17 19.96 23.74 15.91C24.76 14.32 24.76 11.66 23.74 10.07C23.37 9.48 22.97 8.93 22.55 8.42" stroke="#505050" stroke-opacity="1.000000" stroke-width="2.250000" stroke-linejoin="round" stroke-linecap="round"/>
	<path id="Vector" d="M17.44 13.78C17.15 15.37 15.86 16.66 14.27 16.95" stroke="#505050" stroke-opacity="1.000000" stroke-width="2.250000" stroke-linejoin="round" stroke-linecap="round"/>
	<path id="Vector" d="M10.65 15.84L2.25 24.24" stroke="#505050" stroke-opacity="1.000000" stroke-width="2.250000" stroke-linejoin="round" stroke-linecap="round"/>
	<path id="Vector" d="M24.75 1.75L16.34 10.15" stroke="#505050" stroke-opacity="1.000000" stroke-width="2.250000" stroke-linejoin="round" stroke-linecap="round"/>
	<g opacity="0.000000"/>
</svg>
