<svg width="27.000000" height="36.000000" viewBox="0 0 27 36" fill="none" xmlns="http://www.w3.org/2000/svg" xmlns:xlink="http://www.w3.org/1999/xlink">
	<desc>
			Created with Pixso.
	</desc>
	<defs>
		<clipPath id="clip6_9444">
			<rect id="tabler:home" width="24.000000" height="24.000000" transform="translate(1.000000 6.000000)" fill="white" fill-opacity="0"/>
		</clipPath>
		<clipPath id="clip6_9443">
			<rect id="Target=home" width="27.000000" height="36.000000" fill="white" fill-opacity="0"/>
		</clipPath>
	</defs>
	<g clip-path="url(#clip6_9443)">
		<mask id="mask6_9444" mask-type="alpha" maskUnits="userSpaceOnUse" x="1.000000" y="6.000000" width="24.000000" height="24.000000">
			<rect id="tabler:home" width="24.000000" height="24.000000" transform="translate(1.000000 6.000000)" fill="#FFFFFF" fill-opacity="0"/>
			<g clip-path="url(#clip6_9444)">
				<path id="Vector" d="M4 18L13 9L22 18L20 18L20 25C20 25.53 19.78 26.03 19.41 26.41C19.03 26.78 18.53 27 18 27L8 27C7.46 27 6.96 26.78 6.58 26.41C6.21 26.03 6 25.53 6 25L6 18L4 18Z" stroke="#000000" stroke-opacity="1.000000" stroke-width="2.000000" stroke-linejoin="round"/>
				<path id="Vector" d="M10 27L10 21C10 20.46 10.21 19.96 10.58 19.58C10.96 19.21 11.46 19 12 19L14 19C14.53 19 15.03 19.21 15.41 19.58C15.78 19.96 16 20.46 16 21L16 27" stroke="#000000" stroke-opacity="1.000000" stroke-width="2.000000" stroke-linejoin="round" stroke-linecap="round"/>
			</g>
		</mask>
		<g mask="url(#mask6_9444)">
			<rect id="Default" width="27.000000" height="36.000000" transform="matrix(-1 1.22465e-16 1.22465e-16 1 27 0)" fill="#FFFFFF" fill-opacity="1.000000"/>
		</g>
		<g mask="url(#mask6_9444)"/>
		<g mask="url(#mask6_9444)"/>
	</g>
</svg>
