<svg width="235.000000" height="237.000000" viewBox="0 0 235 237" fill="none" xmlns="http://www.w3.org/2000/svg" xmlns:xlink="http://www.w3.org/1999/xlink">
	<desc>
			Created with Pixso.
	</desc>
	<defs>
		<clipPath id="clip496_20011">
			<rect id="LoadingIcon" width="235.000000" height="237.000000" transform="translate(-0.500000 -0.500000)" fill="white" fill-opacity="0"/>
		</clipPath>
	</defs>
	<rect id="Frame 1000003255" rx="10.000000" width="235.000000" height="235.000000" transform="translate(-0.500000 0.500000)" fill="#FFFFFF" fill-opacity="1.000000"/>
	<rect id="LoadingIcon" width="235.000000" height="237.000000" transform="translate(-0.500000 -0.500000)" fill="#FFFFFF" fill-opacity="0"/>
	<g clip-path="url(#clip496_20011)">
		<path id="Vector" d="M5.22 235.5L227.77 235.5C231.47 235.5 234.48 232.5 234.5 228.82L234.5 7.19C234.5 3.49 231.49 0.5 227.77 0.5L5.22 0.5C1.5 0.5 -1.5 3.49 -1.5 7.19L-1.5 228.8C-1.5 232.5 1.5 235.5 5.22 235.5ZM223.09 118C223.09 176.62 175.36 224.15 116.49 224.15C57.61 224.15 9.88 176.62 9.88 118C9.88 59.37 57.61 11.84 116.49 11.84C175.36 11.84 223.09 59.37 223.09 118Z" fill="#282828" fill-opacity="1.000000" fill-rule="evenodd"/>
		<mask id="mask13_687" mask-type="alpha" maskUnits="userSpaceOnUse" x="16.998047" y="17.150391" width="199.822266" height="201.556152">
			<path id="Vector" d="M116.9 218.7C172.08 218.7 216.82 173.58 216.82 117.92C216.82 62.27 172.08 17.15 116.9 17.15C61.72 17.15 16.99 62.27 16.99 117.92C16.99 173.58 61.72 218.7 116.9 218.7Z" fill="#FFFFFF" fill-opacity="1.000000" fill-rule="nonzero"/>
		</mask>
		<g mask="url(#mask13_687)">
			<path id="Vector" d="M111.37 44.16C105.57 47.07 100.09 49.68 94.75 52.52C66.42 67.55 40.58 85.99 18.64 109.66C7.04 122.18 -3.23 135.74 -9.34 151.91C-11.53 157.72 -12.38 164.05 -13.85 170.16C-13.98 170.71 -14.07 171.26 -14.18 171.81C-14.43 171.86 -14.69 171.9 -14.94 171.95C-16.92 165.41 -19.25 158.93 -20.8 152.27C-29.3 115.89 -24.64 81.25 -6.94 48.37C-1.29 37.85 7.96 32.71 18.91 29.97C30.39 27.1 42.05 27.22 53.69 28.5C73.04 30.62 91.55 36.13 109.61 43.3C110.07 43.48 110.52 43.74 111.37 44.16Z" fill="#282828" fill-opacity="1.000000" fill-rule="nonzero"/>
			<path id="Vector" d="M248.57 64.35C250.31 69.8 252.28 75.2 253.72 80.72C263.22 117.27 259.1 152.27 241.95 185.85C236 197.49 226.39 203.65 214.22 206.45C202.56 209.14 190.8 208.95 178.97 207.62C159.99 205.46 141.91 199.96 124.19 193.02C123.74 192.84 123.31 192.58 122.42 192.15C123.56 191.58 124.39 191.12 125.25 190.72C157.76 175.37 187.28 155.69 212.39 129.63C225.09 116.46 236.07 102.07 243.05 84.89C245.57 78.71 247.32 72.33 247.68 65.61C247.7 65.23 247.81 64.85 247.88 64.46C248.11 64.44 248.35 64.39 248.57 64.35Z" fill="#282828" fill-opacity="1.000000" fill-rule="nonzero"/>
			<path id="Vector" d="M183.22 150.24C183.6 143.91 184.07 137.9 184.3 131.88C185.72 96.85 182.27 62.43 170.89 29.12C165.9 14.55 159.46 0.67 149.33 -11.08C145.81 -15.15 141.44 -18.48 137.45 -22.14C137.11 -22.45 136.71 -22.73 136.34 -23.02C136.42 -23.22 136.49 -23.44 136.56 -23.64C141.4 -22.65 146.3 -21.92 151.07 -20.66C188.15 -10.93 216.85 10.4 237.54 42.92C244.67 54.11 244.9 65.71 241.13 77.87C237.05 90.98 229.82 102.3 221.44 112.99C210.63 126.78 197.96 138.63 184.36 149.55C184.11 149.73 183.82 149.88 183.22 150.24Z" fill="#282828" fill-opacity="1.000000" fill-rule="nonzero"/>
			<path id="Vector" d="M50.05 86.46C49.76 99.83 48.98 113.21 49.27 126.56C49.94 156.64 54.38 186.11 65.42 214.28C70.99 228.47 78.06 241.82 89.11 252.59C91.64 255.06 94.51 257.2 97.72 259.91C94.69 259.43 92.12 259.14 89.58 258.61C48.27 249.8 16.61 227.17 -5.33 190.79C-11.49 180.55 -10.81 169.65 -7.47 158.75C-3.35 145.29 4.15 133.69 12.8 122.81C23.47 109.36 35.9 97.71 49.23 87.03C49.58 86.74 49.94 86.54 50.05 86.46Z" fill="#282828" fill-opacity="1.000000" fill-rule="nonzero"/>
			<path id="Vector" d="M56.09 160.08C62.11 164.09 67.64 167.97 73.37 171.55C99.04 187.66 126.22 200.32 155.69 207.66C172.19 211.75 188.89 213.91 205.92 212.12C213.84 211.28 221.44 209.26 228.87 205.97C227.01 208.24 225.21 210.54 223.27 212.74C200.57 238.33 172.44 254.08 138.83 259.42C130.63 260.71 122.18 260.93 113.86 260.77C106.06 260.6 99.61 256.42 93.88 251.3C83.72 242.24 77.1 230.7 71.68 218.41C64.08 201.14 59.51 183 56.74 164.36C56.52 163.08 56.34 161.78 56.09 160.08Z" fill="#282828" fill-opacity="1.000000" fill-rule="nonzero"/>
			<path id="Vector" d="M5.48 30.42C13.2 19.67 22.51 10.56 33.1 2.79C57.16 -14.88 84.12 -23.95 113.84 -24.87C124.16 -25.18 132.77 -21.46 140.28 -14.62C149.94 -5.83 156.4 5.22 161.67 17C169.11 33.66 173.72 51.18 176.58 69.2C176.94 71.45 177.31 73.7 177.74 76.39C172.43 72.82 167.59 69.44 162.62 66.27C138.05 50.6 112.08 38 83.96 30.2C66.79 25.45 49.36 22.65 31.48 23.79C23.2 24.32 15.14 26.03 7.51 29.47C6.82 29.8 6.15 30.11 5.48 30.42Z" fill="#282828" fill-opacity="1.000000" fill-rule="nonzero"/>
		</g>
		<path id="Vector" d="M141.04 105.93L165.16 148.07L116.9 148.07L68.65 148.07L92.79 105.93L116.9 63.77L141.04 105.93Z" stroke="#282828" stroke-opacity="1.000000" stroke-width="8.000000"/>
		<path id="Vector" d="M128.37 115.84L105.46 115.84L105.46 120.01L128.37 120.01L128.37 115.84Z" fill="#282828" fill-opacity="1.000000" fill-rule="evenodd"/>
		<path id="Vector" d="M118.98 129.49L118.98 106.39L114.84 106.39L114.84 129.49L118.98 129.49Z" fill="#282828" fill-opacity="1.000000" fill-rule="evenodd"/>
		<rect id="Rectangle 21" x="206.863281" y="7.792969" width="6.199140" height="34.550446" fill="#FFFFFF" fill-opacity="1.000000"/>
		<rect id="Rectangle 22" x="227.181641" y="21.958984" width="6.219080" height="34.439667" transform="rotate(90 227.181641 21.958984)" fill="#FFFFFF" fill-opacity="1.000000"/>
		<rect id="Rectangle 21" x="21.232422" y="193.674805" width="6.199140" height="34.550446" fill="#FFFFFF" fill-opacity="1.000000"/>
		<rect id="Rectangle 22" x="41.551025" y="207.840820" width="6.219080" height="34.439667" transform="rotate(90 41.551025 207.840820)" fill="#FFFFFF" fill-opacity="1.000000"/>
		<path id="Polygon 1" d="M7.41 8.61L17.12 46.51L45.08 18.75L7.41 8.61Z" fill="#FFFFFF" fill-opacity="1.000000" fill-rule="evenodd"/>
		<path id="Polygon 2" d="M227.12 227.12L217.21 189.28L189.39 217.19L227.12 227.12Z" fill="#FFFFFF" fill-opacity="1.000000" fill-rule="evenodd"/>
	</g>
</svg>
