<svg width="373.000000" height="461.000000" viewBox="0 0 373 461" fill="none" xmlns="http://www.w3.org/2000/svg" xmlns:xlink="http://www.w3.org/1999/xlink">
	<desc>
			Created with Pixso.
	</desc>
	<defs>
		<clipPath id="clip967_17892">
			<rect id="logo-max.svg" width="372.117615" height="460.072693" transform="translate(-0.058594 -0.036377)" fill="white" fill-opacity="0"/>
		</clipPath>
		<clipPath id="clip967_17891">
			<rect id="logo-max.svg fill" width="372.117615" height="460.072693" transform="translate(-0.058594 -0.036377)" fill="white" fill-opacity="0"/>
		</clipPath>
	</defs>
	<g clip-path="url(#clip967_17891)">
		<g clip-path="url(#clip967_17892)">
			<path id="Vector" d="M212.1 415.69L212.1 424.36C212.1 425.27 211.91 426.2 210.76 426.2C209.6 426.2 209.42 425.29 209.42 424.36L209.42 415.46C209.42 415.01 209.46 414.17 208.78 414.17C208.48 414.17 208.29 414.43 208.05 414.62L206.88 415.69L206.88 424.36C206.88 425.27 206.69 426.2 205.54 426.2C204.39 426.2 204.2 425.29 204.2 424.36L204.2 413.13C204.2 412.2 204.46 411.24 205.61 411.24C206.29 411.24 206.74 411.68 206.9 412.29L207.14 412.12C207.84 411.59 208.27 411.24 209.18 411.24C210.22 411.24 211.04 411.73 211.65 412.57L211.88 412.33C212.73 411.5 213.06 411.21 214.23 411.21C215.13 411.21 215.95 411.61 216.46 412.29C217.15 413.15 217.08 413.92 217.1 414.95L217.38 424.15C217.4 425.08 217.26 426.16 216.06 426.16C214.98 426.16 214.75 425.25 214.73 424.36L214.44 415.55C214.42 415.08 214.56 414.13 213.83 414.13C213.43 414.13 212.94 414.8 212.71 415.04L212.1 415.69Z" fill="#FFFFFF" fill-opacity="1.000000" fill-rule="evenodd"/>
			<path id="Vector" d="M228.85 413.87C228.07 413.87 226.99 413.71 226.99 412.54C226.99 411.4 227.93 411.21 228.85 411.21L232.53 411.21C233.94 411.21 234.93 411.36 236.01 412.41C237.04 413.43 237.18 414.25 237.21 415.58L237.49 424.62C237.51 425.39 237.14 426.18 236.22 426.18C235.52 426.18 234.81 425.6 234.86 424.85L233 425.78C232.25 426.18 232.23 426.18 231.36 426.18L228.77 426.18C227.58 426.18 226.71 426.04 225.72 425.25C224.59 424.34 224.31 423.36 224.31 421.96L224.31 420.8C224.31 419.51 224.62 418.72 225.63 417.84C226.54 417.02 227.58 416.83 228.75 416.83L234.51 416.83L234.51 416.23C234.51 414.22 234.06 413.9 232.13 413.9L228.85 413.9L228.85 413.87ZM228.82 419.49C228.09 419.49 227.04 419.68 227.04 420.66L227.04 422.43C227.04 423.31 228.12 423.5 228.77 423.5L231.73 423.5L234.69 421.96L234.69 421.38C234.69 419.91 234.27 419.47 232.79 419.47L228.82 419.47L228.82 419.49Z" fill="#FFFFFF" fill-opacity="1.000000" fill-rule="evenodd"/>
			<path id="Vector" d="M244.49 417.41C244.49 415.78 244.8 414.97 246.09 413.92L248.08 412.29C249.35 411.26 249.99 411.24 251.56 411.24L255.81 411.24C256.71 411.24 257.67 411.43 257.67 412.57C257.67 413.73 256.61 413.9 255.81 413.9L251.07 413.9C250.53 413.9 250.01 414.18 249.52 414.57L247.9 415.92C247.47 416.25 247.17 416.53 247.17 417.07L247.17 420.38C247.17 420.91 247.47 421.19 247.9 421.52L249.52 422.87C249.99 423.27 250.53 423.55 251.07 423.55L255.79 423.55C256.56 423.55 257.65 423.71 257.65 424.87C257.65 426.02 256.71 426.2 255.79 426.2L251.54 426.2C249.96 426.2 249.33 426.18 248.06 425.15L246.06 423.52C244.77 422.48 244.47 421.66 244.47 420.03L244.47 417.41L244.49 417.41Z" fill="#FFFFFF" fill-opacity="1.000000" fill-rule="evenodd"/>
			<path id="Vector" d="M272.12 413.87C271.84 413.87 271.55 413.96 271.27 414.13L267.3 416.6L267.3 424.33C267.3 425.24 267.11 426.18 265.96 426.18C264.81 426.18 264.62 425.27 264.62 424.33L264.62 407.53C264.62 406.62 264.81 405.69 265.96 405.69C267.11 405.69 267.3 406.6 267.3 407.53L267.3 413.5L269.49 412.08C270.19 411.63 270.99 411.19 271.88 411.19L273.67 411.19C274.21 411.19 275.15 411.19 276.28 412.17C277.47 413.19 277.43 414.33 277.47 415.78L277.76 424.17C277.78 425.11 277.64 426.18 276.44 426.18C275.36 426.18 275.13 425.27 275.1 424.38L274.82 416.15C274.77 414.87 274.84 413.87 273.34 413.87L272.12 413.87Z" fill="#FFFFFF" fill-opacity="1.000000" fill-rule="evenodd"/>
			<path id="Vector" d="M292.75 423.53L294.77 423.53C295.66 423.53 296.62 423.71 296.62 424.85C296.62 426.02 295.56 426.18 294.77 426.18L287.93 426.18C287.15 426.18 286.07 426.02 286.07 424.85C286.07 423.71 287.01 423.53 287.93 423.53L290.07 423.53L290.07 413.9L287.93 413.9C287.15 413.9 286.07 413.74 286.07 412.57C286.07 411.42 287.01 411.24 287.93 411.24L290.75 411.24C292.3 411.24 292.75 411.52 292.75 413.11L292.75 423.53ZM288.7 406.97C288.7 406.04 289.25 405.71 289.97 405.71L291.52 405.71C292.25 405.71 292.79 406.02 292.79 406.97L292.79 408.25C292.79 409.19 292.25 409.51 291.52 409.51L289.97 409.51C289.25 409.51 288.7 409.21 288.7 408.25L288.7 406.97Z" fill="#FFFFFF" fill-opacity="1.000000" fill-rule="evenodd"/>
			<path id="Vector" d="M307.62 416.6L307.62 424.34C307.62 425.25 307.43 426.18 306.28 426.18C305.13 426.18 304.94 425.27 304.94 424.34L304.94 413.17C304.94 412.19 305.06 411.19 306.28 411.19C307.47 411.19 307.62 412.19 307.62 413.12L307.62 413.43L307.62 413.48L309.8 412.05C310.51 411.61 311.26 411.17 312.13 411.17L314.12 411.17C315.16 411.17 315.79 411.45 316.61 412.15C317.81 413.17 317.76 414.31 317.81 415.76L318.09 424.15C318.12 425.08 317.98 426.16 316.78 426.16C315.7 426.16 315.46 425.25 315.44 424.36L315.16 416.13C315.11 414.5 314.97 413.85 313.35 413.85L312.46 413.85C312.17 413.85 311.89 413.94 311.61 414.11L307.62 416.6Z" fill="#FFFFFF" fill-opacity="1.000000" fill-rule="evenodd"/>
			<path id="Vector" d="M330 426.18C328.87 426.18 328.43 426.18 327.6 425.45L326.45 424.45C325.4 423.52 325.09 422.89 325.09 421.45L325.09 416.32C325.09 414.9 325.28 414.08 326.41 413.12L327.35 412.31C328.61 411.24 329.22 411.19 330.31 411.19L332.77 411.19C334.09 411.19 334.7 411.33 335.73 412.17L336.81 413.03C338.03 414.01 338.22 415.03 338.22 416.5L338.22 418.65C338.22 420.19 337.96 420.63 336.37 420.63L327.74 420.63L327.74 421.52C327.74 421.77 327.93 422.1 328.14 422.28L328.83 423.01C329.18 423.4 329.72 423.5 330.61 423.5L336.37 423.5C337.26 423.5 338.22 423.68 338.22 424.82C338.22 425.99 337.17 426.15 336.37 426.15L330 426.15L330 426.18ZM327.74 417.95L335.52 417.95L335.52 416.34C335.52 415.85 335.54 415.43 335.19 415.08L334.16 414.2C333.83 413.89 333.29 413.87 332.87 413.87L330.61 413.87C330.12 413.87 329.69 413.87 329.25 414.17L328.33 414.85C328 415.11 327.77 415.29 327.77 416.06L327.77 417.95L327.74 417.95Z" fill="#FFFFFF" fill-opacity="1.000000" fill-rule="evenodd"/>
			<path id="Vector" d="M199.67 411.21L33.77 411.21L33.77 426.18L199.67 426.18L199.67 411.21Z" fill="#FFFFFF" fill-opacity="1.000000" fill-rule="evenodd"/>
			<path id="Vector" d="M65.93 405.71L65.93 371.82L65.5 371.82L57.37 405.71L52.49 405.71L44.29 371.82L43.87 371.82L43.87 405.71L33.77 405.71L33.77 348.42L49.46 348.42L54.41 373.83L54.91 373.83L60.43 348.42L76.05 348.42L76.12 405.71L65.93 405.71Z" fill="#FFFFFF" fill-opacity="1.000000" fill-rule="nonzero"/>
			<path id="Vector" d="M97.52 400.56L96.61 388.51L91.23 388.51L90.38 400.56L79.22 400.56L84.96 348.44L103.61 348.44L108.99 400.56L97.52 400.56ZM94.28 359.3L93.51 359.3L91.74 377.97L96.14 377.97L94.28 359.3Z" fill="#FFFFFF" fill-opacity="1.000000" fill-rule="nonzero"/>
			<path id="Vector" d="M116.03 400.56L116.03 359.44L107.62 359.44L107.62 348.42L135.53 348.42L135.53 359.44L127.12 359.44L127.12 400.56L116.03 400.56Z" fill="#FFFFFF" fill-opacity="1.000000" fill-rule="nonzero"/>
			<path id="Vector" d="M165.72 380.38C165.86 381.99 165.93 383.48 165.93 384.9C165.93 387.56 165.77 389.89 165.46 391.84C165.16 393.83 164.5 395.46 163.51 396.74C162.53 398.02 161.12 398.98 159.31 399.61C157.5 400.24 155.1 400.54 152.14 400.54C148.62 400.54 145.92 400.24 144.04 399.63C142.18 399.03 140.8 397.95 139.9 396.39C139.43 395.69 139.03 394.83 138.71 393.85C138.38 392.87 138.1 391.57 137.88 389.91C137.67 388.28 137.51 386.18 137.41 383.66C137.32 381.12 137.27 377.91 137.27 374.01C137.27 370.1 137.32 366.93 137.41 364.5C137.51 362.05 137.67 360.07 137.88 358.51C138.1 356.95 138.38 355.74 138.71 354.85C139.03 353.97 139.43 353.15 139.9 352.38C140.84 350.87 142.21 349.84 144.02 349.26C145.8 348.67 148.41 348.4 151.79 348.4C154.8 348.4 157.24 348.65 159.07 349.19C160.91 349.72 162.32 350.59 163.33 351.78C164.31 352.96 164.97 354.53 165.3 356.41C165.63 358.3 165.79 360.59 165.79 363.24C165.79 363.87 165.77 364.55 165.75 365.32C165.72 366.07 165.68 366.88 165.63 367.72L155.25 367.72C155.25 366.39 155.22 365.27 155.2 364.39C155.17 363.5 155.13 362.78 155.08 362.2C155.03 361.61 154.96 361.17 154.89 360.82C154.82 360.49 154.75 360.21 154.7 359.98C154.52 359.14 153.53 358.72 151.74 358.72C150.85 358.72 150.19 358.82 149.8 359.03C149.39 359.24 149.11 359.54 148.97 359.98C148.83 360.33 148.71 360.75 148.64 361.21C148.57 361.68 148.5 362.38 148.43 363.34C148.36 364.29 148.31 365.62 148.29 367.3C148.27 368.98 148.24 371.19 148.24 373.9C148.24 376.69 148.24 378.93 148.29 380.61C148.31 382.29 148.36 383.64 148.43 384.59C148.5 385.58 148.57 386.3 148.64 386.79C148.71 387.28 148.83 387.7 148.97 388.04C149.11 388.49 149.39 388.79 149.82 388.98C150.24 389.16 150.99 389.24 152.07 389.24C153.48 389.24 154.33 388.86 154.61 388.09C154.8 387.65 154.94 387.18 155.03 386.69C155.13 386.2 155.2 385.67 155.25 385.06C155.29 384.46 155.32 383.78 155.36 382.99C155.39 382.22 155.41 381.31 155.41 380.28L165.72 380.28L165.72 380.38Z" fill="#FFFFFF" fill-opacity="1.000000" fill-rule="nonzero"/>
			<path id="Vector" d="M188.27 400.56L188.27 379.14L181.34 379.14L181.34 400.56L169.97 400.56L169.97 348.44L181.34 348.44L181.34 368.63L188.27 368.63L188.27 348.44L199.64 348.44L199.64 400.56L188.27 400.56Z" fill="#FFFFFF" fill-opacity="1.000000" fill-rule="nonzero"/>
			<path id="Vector" d="M236.34 400.56L236.34 369.3L235.92 369.3L227.79 400.56L222.9 400.56L214.7 369.3L214.28 369.3L214.28 400.56L204.18 400.56L204.18 348.44L219.87 348.44L224.83 371.1L225.32 371.1L230.84 348.44L246.46 348.44L246.53 400.56L236.34 400.56Z" fill="#FFFFFF" fill-opacity="1.000000" fill-rule="nonzero"/>
			<path id="Vector" d="M276.63 396.44C276.16 397.23 275.59 397.88 274.96 398.4C274.32 398.91 273.53 399.33 272.59 399.65C271.65 399.98 270.54 400.21 269.27 400.35C268.01 400.49 266.53 400.56 264.81 400.56C261.38 400.56 258.77 400.26 257.01 399.65C255.25 399.05 253.89 397.98 252.95 396.41C252.48 395.67 252.08 394.83 251.75 393.92C251.42 393.01 251.14 391.78 250.93 390.21C250.72 388.65 250.55 386.62 250.46 384.13C250.36 381.61 250.32 378.4 250.32 374.43C250.32 370.49 250.36 367.28 250.46 364.78C250.55 362.29 250.72 360.28 250.93 358.72C251.14 357.16 251.42 355.95 251.75 355.06C252.08 354.18 252.48 353.34 252.95 352.52C253.42 351.78 253.98 351.12 254.62 350.59C255.25 350.05 256.05 349.63 256.99 349.28C257.93 348.95 259.06 348.72 260.35 348.58C261.64 348.44 263.14 348.37 264.84 348.37C268.22 348.37 270.8 348.67 272.56 349.3C274.32 349.94 275.69 350.98 276.63 352.5C277.1 353.29 277.5 354.13 277.83 355.04C278.16 355.92 278.44 357.14 278.65 358.7C278.86 360.26 279.02 362.27 279.12 364.76C279.21 367.25 279.26 370.47 279.26 374.41C279.26 378.35 279.21 381.59 279.12 384.11C279.02 386.62 278.86 388.65 278.65 390.19C278.44 391.75 278.16 392.99 277.83 393.9C277.5 394.85 277.1 395.67 276.63 396.44ZM267.58 388.12C267.68 387.81 267.77 387.41 267.87 386.93C267.96 386.44 268.03 385.71 268.08 384.74C268.12 383.75 268.15 382.43 268.19 380.77C268.22 379.12 268.24 376.93 268.24 374.22C268.24 371.42 268.22 369.19 268.19 367.51C268.17 365.83 268.12 364.48 268.08 363.48C268.03 362.48 267.96 361.73 267.87 361.24C267.77 360.75 267.68 360.36 267.58 360.05C267.4 359.61 267.11 359.28 266.74 359.09C266.36 358.88 265.73 358.79 264.84 358.79C263.94 358.79 263.28 358.88 262.89 359.09C262.49 359.3 262.2 359.61 262.06 360.05C261.92 360.36 261.81 360.75 261.73 361.24C261.66 361.73 261.59 362.48 261.52 363.48C261.45 364.48 261.41 365.81 261.38 367.51C261.36 369.19 261.33 371.45 261.33 374.22C261.33 376.93 261.33 379.12 261.38 380.77C261.41 382.43 261.45 383.75 261.52 384.74C261.59 385.71 261.66 386.44 261.73 386.93C261.81 387.41 261.92 387.81 262.06 388.12C262.2 388.56 262.49 388.86 262.89 389.05C263.28 389.23 263.94 389.3 264.84 389.3C265.73 389.3 266.36 389.21 266.74 389.05C267.11 388.86 267.4 388.56 267.58 388.12Z" fill="#FFFFFF" fill-opacity="1.000000" fill-rule="nonzero"/>
			<path id="Vector" d="M287.32 400.56L280.95 348.44L292.96 348.44L295.92 385.15L296.69 385.15L299.51 348.44L311.31 348.44L304.59 400.56L287.32 400.56Z" fill="#FFFFFF" fill-opacity="1.000000" fill-rule="nonzero"/>
			<path id="Vector" d="M314.59 400.56L314.59 348.44L338.22 348.44L338.22 359.46L325.68 359.46L325.68 368.63L338.22 368.63L338.22 379.16L325.68 379.16L325.68 389L338.22 389L338.22 400.56L314.59 400.56Z" fill="#FFFFFF" fill-opacity="1.000000" fill-rule="nonzero"/>
			<path id="Vector" d="M42.43 335.65L329.35 335.65C334.11 335.65 337.99 331.8 338.01 327.07L338.01 42.39C338.01 37.63 334.14 33.79 329.35 33.79L42.43 33.79C37.64 33.79 33.77 37.63 33.77 42.39L33.77 327.04C33.77 331.8 37.64 335.65 42.43 335.65ZM323.31 184.72C323.31 260.03 261.78 321.08 185.88 321.08C109.98 321.08 48.45 260.03 48.45 184.72C48.45 109.41 109.98 48.36 185.88 48.36C261.78 48.36 323.31 109.41 323.31 184.72ZM63.53 300.15L45.16 300.15L45.16 307.42L63.53 307.42L63.53 325.66L70.86 325.66L70.86 307.42L89.23 307.42L89.23 300.15L70.86 300.15L70.86 281.93L63.53 281.93L63.53 300.15ZM302.15 62.16L283.77 62.16L283.77 69.43L302.15 69.43L302.15 87.64L309.48 87.64L309.48 69.43L327.84 69.43L327.84 62.16L309.48 62.16L309.48 43.91L302.15 43.91L302.15 62.16ZM327.77 324.99L307.99 319.73L288.23 314.46L302.68 300.12L317.13 285.79L322.44 305.39L327.77 324.99ZM69.36 50.69L44.78 44.11L51.38 68.52L58.01 92.92L75.98 75.07L93.95 57.24L69.36 50.69Z" fill="#FFFFFF" fill-opacity="1.000000" fill-rule="evenodd"/>
			<mask id="mask967_17913" mask-type="alpha" maskUnits="userSpaceOnUse" x="56.438477" y="56.286133" width="258.884766" height="256.870422">
				<path id="Vector" d="M185.88 313.15C257.37 313.15 315.32 255.65 315.32 184.72C315.32 113.78 257.37 56.28 185.88 56.28C114.39 56.28 56.43 113.78 56.43 184.72C56.43 255.65 114.39 313.15 185.88 313.15Z" fill="#FFFFFF" fill-opacity="1.000000" fill-rule="evenodd"/>
			</mask>
			<g mask="url(#mask967_17913)">
				<path id="Vector" d="M178.71 90.7C171.2 94.41 164.1 97.74 157.17 101.35C120.48 120.51 87 144.01 58.57 174.17C43.54 190.14 30.24 207.41 22.32 228.02C19.48 235.43 18.38 243.5 16.48 251.28C16.31 251.98 16.19 252.68 16.05 253.38C15.72 253.45 15.39 253.5 15.07 253.57C12.5 245.22 9.47 236.97 7.48 228.48C-3.54 182.12 2.5 137.97 25.43 96.06C32.75 82.66 44.74 76.11 58.93 72.61C73.8 68.95 88.9 69.12 103.98 70.75C129.05 73.45 153.04 80.47 176.43 89.61C177.02 89.84 177.61 90.17 178.71 90.7Z" fill="#FFFFFF" fill-opacity="1.000000" fill-rule="evenodd"/>
				<path id="Vector" d="M356.46 116.44C358.71 123.38 361.27 130.26 363.13 137.3C375.44 183.87 370.1 228.49 347.88 271.28C340.17 286.11 327.72 293.96 311.96 297.53C296.85 300.95 281.61 300.72 266.29 299.02C241.69 296.27 218.27 289.25 195.32 280.42C194.73 280.19 194.17 279.86 193.02 279.3C194.5 278.58 195.58 277.99 196.68 277.48C238.81 257.93 277.05 232.84 309.59 199.63C326.03 182.85 340.27 164.5 349.31 142.61C352.58 134.73 354.83 126.6 355.3 118.05C355.33 117.56 355.47 117.07 355.56 116.58C355.87 116.55 356.17 116.48 356.46 116.44Z" fill="#FFFFFF" fill-opacity="1.000000" fill-rule="evenodd"/>
				<path id="Vector" d="M271.79 225.9C272.28 217.84 272.89 210.17 273.2 202.5C275.03 157.86 270.57 113.99 255.82 71.55C249.36 52.97 241.02 35.28 227.88 20.31C223.33 15.12 217.67 10.87 212.5 6.21C212.05 5.81 211.53 5.47 211.06 5.09C211.16 4.84 211.25 4.56 211.35 4.3C217.62 5.56 223.96 6.49 230.14 8.1C278.18 20.5 315.37 47.68 342.18 89.12C351.41 103.39 351.71 118.17 346.83 133.67C341.54 150.38 332.17 164.81 321.31 178.42C307.31 196 290.89 211.1 273.27 225.02C272.94 225.25 272.57 225.44 271.79 225.9Z" fill="#FFFFFF" fill-opacity="1.000000" fill-rule="evenodd"/>
				<path id="Vector" d="M99.26 144.62C98.89 161.66 97.87 178.7 98.25 195.71C99.12 234.06 104.88 271.61 119.18 307.5C126.4 325.59 135.56 342.61 149.86 356.34C153.15 359.48 156.86 362.21 161.02 365.66C157.1 365.05 153.76 364.68 150.47 364.01C96.96 352.77 55.94 323.94 27.52 277.57C19.53 264.52 20.42 250.63 24.74 236.74C30.08 219.58 39.8 204.8 51.01 190.93C64.82 173.8 80.94 158.95 98.2 145.34C98.65 144.97 99.12 144.71 99.26 144.62Z" fill="#FFFFFF" fill-opacity="1.000000" fill-rule="evenodd"/>
				<path id="Vector" d="M107.09 238.44C114.89 243.54 122.05 248.48 129.47 253.05C162.74 273.59 197.95 289.72 236.13 299.06C257.51 304.28 279.14 307.04 301.2 304.75C311.47 303.68 321.31 301.11 330.94 296.92C328.52 299.81 326.2 302.75 323.68 305.54C294.27 338.15 257.84 358.22 214.28 365.03C203.66 366.68 192.71 366.96 181.93 366.75C171.83 366.54 163.47 361.21 156.04 354.68C142.89 343.14 134.31 328.43 127.29 312.77C117.45 290.76 111.53 267.64 107.93 243.89C107.65 242.26 107.41 240.6 107.09 238.44Z" fill="#FFFFFF" fill-opacity="1.000000" fill-rule="evenodd"/>
				<path id="Vector" d="M41.52 73.2C51.53 59.5 63.58 47.89 77.3 37.98C108.47 15.47 143.41 3.91 181.91 2.74C195.28 2.34 206.44 7.08 216.16 15.79C228.68 27 237.05 41.08 243.88 56.1C253.51 77.33 259.48 99.66 263.19 122.62C263.66 125.49 264.13 128.35 264.7 131.78C257.81 127.24 251.54 122.92 245.1 118.89C213.27 98.91 179.63 82.85 143.19 72.92C120.95 66.86 98.37 63.3 75.21 64.74C64.47 65.42 54.04 67.61 44.15 71.99C43.26 72.41 42.39 72.81 41.52 73.2Z" fill="#FFFFFF" fill-opacity="1.000000" fill-rule="evenodd"/>
			</g>
			<path id="Vector" d="M217.15 169.43L248.39 223.13L185.88 223.13L123.37 223.13L154.63 169.43L185.88 115.7L217.15 169.43Z" stroke="#FFFFFF" stroke-opacity="1.000000" stroke-width="16.914436"/>
			<path id="Vector" d="M200.73 182.06L171.06 182.06L171.06 187.38L200.73 187.38L200.73 182.06Z" fill="#FFFFFF" fill-opacity="1.000000" fill-rule="nonzero"/>
			<path id="Vector" d="M188.56 199.45L188.56 170.02L183.21 170.02L183.21 199.45L188.56 199.45Z" fill="#FFFFFF" fill-opacity="1.000000" fill-rule="nonzero"/>
		</g>
	</g>
</svg>
