<svg width="27.000000" height="36.000000" viewBox="0 0 27 36" fill="none" xmlns="http://www.w3.org/2000/svg" xmlns:xlink="http://www.w3.org/1999/xlink">
	<desc>
			Created with Pixso.
	</desc>
	<defs>
		<clipPath id="clip2_14841">
			<rect id="BtnIcons" width="27.000000" height="36.000000" transform="translate(0.000000 -0.500000)" fill="white" fill-opacity="0"/>
		</clipPath>
	</defs>
	<g clip-path="url(#clip2_14841)">
		<mask id="mask2_14837" mask-type="alpha" maskUnits="userSpaceOnUse" x="5.000000" y="11.186035" width="17.656786" height="13.314000">
			<path id="Vector" d="M16.7 11.49L22.36 17.14C22.55 17.33 22.65 17.59 22.65 17.85C22.65 18.12 22.55 18.37 22.36 18.56L16.7 24.21C16.51 24.4 16.26 24.5 16 24.5C15.74 24.49 15.49 24.39 15.3 24.2C15.11 24.02 15.01 23.77 15.01 23.5C15.01 23.24 15.11 22.99 15.29 22.8L19.24 18.85L6 18.85C5.73 18.85 5.48 18.75 5.29 18.56C5.1 18.37 5 18.12 5 17.85C5 17.59 5.1 17.33 5.29 17.14C5.48 16.96 5.73 16.85 6 16.85L19.24 16.85L15.29 12.9C15.19 12.81 15.12 12.7 15.06 12.58C15.01 12.45 14.98 12.32 14.98 12.19C14.98 12.06 15.01 11.93 15.06 11.8C15.11 11.68 15.18 11.57 15.28 11.47C15.37 11.38 15.48 11.31 15.6 11.26C15.73 11.21 15.86 11.18 15.99 11.18C16.12 11.18 16.26 11.21 16.38 11.26C16.5 11.31 16.61 11.39 16.7 11.49Z" fill="#000000" fill-opacity="1.000000" fill-rule="nonzero"/>
		</mask>
		<g mask="url(#mask2_14837)">
			<rect id="Default" width="27.000000" height="36.000000" transform="matrix(1 0 0 -1 0 35.5)" fill="#B3B3B3" fill-opacity="1.000000"/>
		</g>
		<g mask="url(#mask2_14837)"/>
		<g mask="url(#mask2_14837)"/>
	</g>
</svg>
