<svg width="317.000000" height="171.000000" viewBox="0 0 317 171" fill="none" xmlns="http://www.w3.org/2000/svg" xmlns:xlink="http://www.w3.org/1999/xlink">
	<desc>
			Created with Pixso.
	</desc>
	<defs>
		<clipPath id="clip496_20327">
			<rect id="LoadingIcon" width="112.000000" height="112.953194" transform="translate(101.000000 2.523438)" fill="white" fill-opacity="0"/>
		</clipPath>
	</defs>
	<path id="4" d="M70.77 144.64L10.3 144.64L10.3 131.84L66.76 42.52L85.56 42.52L85.56 130.84L103.11 130.84L103.11 144.64L85.56 144.64L85.56 171L70.77 171L70.77 144.64ZM27.08 130.84L70.77 130.84L70.77 62.36L69.73 62.36L27.08 129.85L27.08 130.84Z" fill="#000000" fill-opacity="1.000000" fill-rule="evenodd"/>
	<rect id="LoadingIcon" width="112.000000" height="112.953194" transform="translate(101.000000 2.523438)" fill="#FFFFFF" fill-opacity="0"/>
	<g clip-path="url(#clip496_20327)">
		<path id="Vector" d="M103.72 115L209.79 115C211.55 115 212.99 113.57 213 111.81L213 6.19C213 4.42 211.56 3 209.79 3L103.72 3C101.95 3 100.52 4.42 100.52 6.19L100.52 111.8C100.52 113.57 101.95 115 103.72 115ZM207.56 59C207.56 86.94 184.81 109.59 156.75 109.59C128.69 109.59 105.95 86.94 105.95 59C105.95 31.05 128.69 8.4 156.75 8.4C184.81 8.4 207.56 31.05 207.56 59Z" fill="#282828" fill-opacity="1.000000" fill-rule="evenodd"/>
		<mask id="mask6_1097" mask-type="alpha" maskUnits="userSpaceOnUse" x="109.338867" y="10.935547" width="95.234375" height="96.061035">
			<path id="Vector" d="M156.95 106.99C183.25 106.99 204.57 85.49 204.57 58.96C204.57 32.43 183.25 10.93 156.95 10.93C130.65 10.93 109.33 32.43 109.33 58.96C109.33 85.49 130.65 106.99 156.95 106.99Z" fill="#FFFFFF" fill-opacity="1.000000" fill-rule="nonzero"/>
		</mask>
		<g mask="url(#mask6_1097)">
			<path id="Vector" d="M154.32 23.81C151.55 25.19 148.94 26.44 146.39 27.79C132.89 34.95 120.58 43.74 110.12 55.02C104.59 60.99 99.7 67.45 96.79 75.16C95.74 77.93 95.33 80.95 94.63 83.86C94.57 84.12 94.53 84.38 94.48 84.64C94.36 84.67 94.24 84.68 94.12 84.71C93.17 81.59 92.06 78.5 91.32 75.33C87.27 57.99 89.49 41.48 97.93 25.81C100.62 20.8 105.03 18.35 110.25 17.04C115.72 15.67 121.28 15.73 126.83 16.34C136.05 17.35 144.87 19.98 153.48 23.4C153.69 23.48 153.91 23.6 154.32 23.81Z" fill="#282828" fill-opacity="1.000000" fill-rule="nonzero"/>
			<path id="Vector" d="M219.7 33.43C220.53 36.03 221.47 38.6 222.16 41.23C226.68 58.65 224.72 75.33 216.55 91.34C213.71 96.88 209.13 99.82 203.33 101.15C197.78 102.43 192.17 102.35 186.53 101.71C177.49 100.68 168.87 98.06 160.43 94.75C160.21 94.67 160 94.54 159.58 94.33C160.12 94.06 160.52 93.85 160.93 93.65C176.42 86.34 190.49 76.96 202.46 64.54C208.51 58.26 213.75 51.4 217.07 43.22C218.28 40.27 219.11 37.23 219.28 34.03C219.29 33.85 219.34 33.66 219.37 33.48C219.49 33.47 219.6 33.45 219.7 33.43Z" fill="#282828" fill-opacity="1.000000" fill-rule="nonzero"/>
			<path id="Vector" d="M188.56 74.36C188.74 71.35 188.96 68.48 189.07 65.61C189.75 48.92 188.11 32.51 182.68 16.64C180.3 9.69 177.23 3.08 172.4 -2.52C170.73 -4.46 168.64 -6.05 166.74 -7.79C166.58 -7.94 166.39 -8.07 166.22 -8.21C166.25 -8.31 166.29 -8.41 166.32 -8.51C168.63 -8.04 170.96 -7.69 173.23 -7.09C190.91 -2.45 204.59 7.71 214.45 23.21C217.84 28.55 217.96 34.07 216.16 39.87C214.21 46.12 210.77 51.52 206.77 56.61C201.62 63.18 195.58 68.83 189.1 74.03C188.98 74.12 188.84 74.19 188.56 74.36Z" fill="#282828" fill-opacity="1.000000" fill-rule="nonzero"/>
			<path id="Vector" d="M125.09 43.97C124.95 50.34 124.58 56.71 124.72 63.08C125.04 77.41 127.15 91.46 132.42 104.88C135.07 111.65 138.44 118.01 143.7 123.14C144.91 124.32 146.28 125.34 147.81 126.63C146.36 126.4 145.14 126.27 143.93 126.01C124.24 121.81 109.15 111.03 98.7 93.69C95.76 88.81 96.09 83.61 97.68 78.42C99.64 72 103.22 66.48 107.34 61.29C112.42 54.88 118.35 49.33 124.7 44.24C124.86 44.1 125.04 44 125.09 43.97Z" fill="#282828" fill-opacity="1.000000" fill-rule="nonzero"/>
			<path id="Vector" d="M127.97 79.05C130.84 80.96 133.47 82.81 136.2 84.52C148.44 92.2 161.39 98.23 175.44 101.73C183.3 103.68 191.26 104.71 199.37 103.85C203.15 103.45 206.77 102.49 210.32 100.92C209.43 102.01 208.57 103.1 207.64 104.15C196.83 116.35 183.42 123.85 167.4 126.4C163.49 127.01 159.47 127.12 155.5 127.04C151.78 126.96 148.71 124.97 145.98 122.53C141.14 118.21 137.98 112.71 135.4 106.85C131.78 98.62 129.6 89.98 128.28 81.09C128.17 80.48 128.09 79.86 127.97 79.05Z" fill="#282828" fill-opacity="1.000000" fill-rule="nonzero"/>
			<path id="Vector" d="M103.85 17.26C107.53 12.13 111.96 7.79 117.01 4.09C128.48 -4.33 141.33 -8.66 155.49 -9.09C160.41 -9.24 164.51 -7.47 168.09 -4.21C172.7 -0.02 175.77 5.25 178.29 10.86C181.83 18.8 184.03 27.15 185.39 35.74C185.57 36.81 185.74 37.88 185.95 39.16C183.41 37.46 181.11 35.85 178.74 34.34C167.03 26.87 154.65 20.87 141.25 17.15C133.07 14.89 124.76 13.55 116.24 14.09C112.29 14.35 108.45 15.17 104.81 16.81C104.49 16.96 104.17 17.11 103.85 17.26Z" fill="#282828" fill-opacity="1.000000" fill-rule="nonzero"/>
		</g>
		<path id="Vector" d="M168.46 53.24L179.95 73.33L156.95 73.33L133.96 73.33L145.46 53.24L156.95 33.15L168.46 53.24Z" stroke="#282828" stroke-opacity="1.000000" stroke-width="3.812766"/>
		<path id="Vector" d="M162.41 57.97L151.5 57.97L151.5 59.96L162.41 59.96L162.41 57.97Z" fill="#282828" fill-opacity="1.000000" fill-rule="evenodd"/>
		<path id="Vector" d="M157.94 64.47L157.94 53.46L155.97 53.46L155.97 64.47L157.94 64.47Z" fill="#282828" fill-opacity="1.000000" fill-rule="evenodd"/>
		<rect id="Rectangle 21" x="199.828125" y="6.475586" width="2.954484" height="16.466597" fill="#FFFFFF" fill-opacity="1.000000"/>
		<rect id="Rectangle 22" x="209.511719" y="13.226562" width="2.963987" height="16.413799" transform="rotate(90 209.511719 13.226562)" fill="#FFFFFF" fill-opacity="1.000000"/>
		<rect id="Rectangle 21" x="111.357422" y="95.065918" width="2.954484" height="16.466597" fill="#FFFFFF" fill-opacity="1.000000"/>
		<rect id="Rectangle 22" x="121.041016" y="101.817383" width="2.963987" height="16.413799" transform="rotate(90 121.041016 101.817383)" fill="#FFFFFF" fill-opacity="1.000000"/>
		<path id="Polygon 1" d="M104.77 6.86L109.39 24.92L122.72 11.69L104.77 6.86Z" fill="#FFFFFF" fill-opacity="1.000000" fill-rule="evenodd"/>
		<path id="Polygon 2" d="M209.48 111.01L204.76 92.97L191.5 106.27L209.48 111.01Z" fill="#FFFFFF" fill-opacity="1.000000" fill-rule="evenodd"/>
	</g>
	<path id="4" d="M283.77 144.64L223.3 144.64L223.3 131.84L279.76 42.52L298.56 42.52L298.56 130.84L316.11 130.84L316.11 144.64L298.56 144.64L298.56 171L283.77 171L283.77 144.64ZM240.08 130.84L283.77 130.84L283.77 62.36L282.73 62.36L240.08 129.85L240.08 130.84Z" fill="#000000" fill-opacity="1.000000" fill-rule="evenodd"/>
</svg>
