<svg width="167.000000" height="164.000000" viewBox="0 0 167 164" fill="none" xmlns="http://www.w3.org/2000/svg" xmlns:xlink="http://www.w3.org/1999/xlink">
	<desc>
			Created with Pixso.
	</desc>
	<defs>
		<clipPath id="clip1247_46382">
			<rect id="Icon" width="167.727280" height="164.000000" transform="matrix(-1 0 0 1 166.864 0)" fill="white" fill-opacity="0"/>
		</clipPath>
	</defs>
	<rect id="Icon" width="167.727280" height="164.000000" transform="matrix(-1 0 0 1 166.864 0)" fill="#FFFFFF" fill-opacity="0"/>
	<g clip-path="url(#clip1247_46382)">
		<path id="Vector" d="M84.86 1.24C129.52 1.24 165.62 37.33 165.62 82C165.62 126.65 129.52 162.75 84.86 162.75C40.2 162.75 4.1 126.65 4.1 82C4.1 37.33 40.2 1.24 84.86 1.24ZM84.86 146.6C120.47 146.6 149.47 117.61 149.47 82C149.47 46.38 120.47 17.39 84.86 17.39C49.25 17.39 20.25 46.38 20.25 82C20.25 117.61 49.25 146.6 84.86 146.6Z" fill="#FFFFFF" fill-opacity="1.000000" fill-rule="nonzero"/>
		<path id="Vector" d="M72.11 111.81L51.32 89.47L60.79 79.29L72.11 91.48L105.2 55.9L114.68 66.08L72.11 111.81Z" fill="#FFFFFF" fill-opacity="1.000000" fill-rule="nonzero"/>
	</g>
</svg>
