<svg width="27.000000" height="36.000000" viewBox="0 0 27 36" fill="none" xmlns="http://www.w3.org/2000/svg" xmlns:xlink="http://www.w3.org/1999/xlink">
	<desc>
			Created with Pixso.
	</desc>
	<defs>
		<clipPath id="clip10_38068">
			<rect id="BtnIcons" width="27.000000" height="36.000000" fill="white" fill-opacity="0"/>
		</clipPath>
	</defs>
	<g clip-path="url(#clip10_38068)">
		<mask id="mask10_38064" mask-type="alpha" maskUnits="userSpaceOnUse" x="5.000000" y="11.710449" width="17.656786" height="13.289424">
			<path id="Vector" d="M5.29 17.64C5.1 17.83 5 18.08 5 18.35C5 18.62 5.1 18.87 5.29 19.06L10.94 24.71C11.13 24.9 11.39 25 11.65 25C11.91 24.99 12.16 24.89 12.35 24.7C12.53 24.52 12.64 24.27 12.64 24C12.64 23.74 12.54 23.49 12.36 23.3L8.41 19.35L21.65 19.35C21.92 19.35 22.17 19.25 22.36 19.06C22.55 18.87 22.65 18.62 22.65 18.35C22.65 18.08 22.55 17.83 22.36 17.64C22.17 17.46 21.92 17.35 21.65 17.35L8.41 17.35L12.36 13.4C12.54 13.21 12.64 12.96 12.64 12.7C12.64 12.43 12.53 12.18 12.35 12C12.16 11.81 11.91 11.71 11.65 11.71C11.39 11.7 11.13 11.8 10.94 11.99L5.29 17.64Z" fill="#000000" fill-opacity="1.000000" fill-rule="nonzero"/>
		</mask>
		<g mask="url(#mask10_38064)">
			<rect id="Default" width="27.000000" height="36.000000" transform="matrix(1 1.22465e-16 1.22465e-16 -1 0 36)" fill="#2f57bf" fill-opacity="1.000000"/>
		</g>
		<g mask="url(#mask10_38064)"/>
		<g mask="url(#mask10_38064)"/>
	</g>
</svg>
