<svg width="27.000000" height="36.000000" viewBox="0 0 27 36" fill="none" xmlns="http://www.w3.org/2000/svg" xmlns:xlink="http://www.w3.org/1999/xlink">
	<desc>
			Created with Pixso.
	</desc>
	<defs>
		<clipPath id="clip10_38082">
			<rect id="BtnIcons" width="27.000000" height="36.000000" transform="matrix(1 0 0 -1 0 36)" fill="white" fill-opacity="0"/>
		</clipPath>
	</defs>
	<g clip-path="url(#clip10_38082)">
		<mask id="mask10_38078" mask-type="alpha" maskUnits="userSpaceOnUse" x="5.000000" y="11.000000" width="17.656786" height="13.314000">
			<path id="Vector" d="M16.7 24L22.36 18.35C22.55 18.16 22.65 17.9 22.65 17.64C22.65 17.37 22.55 17.12 22.36 16.93L16.7 11.28C16.51 11.09 16.26 10.99 16 11C15.74 11 15.49 11.1 15.3 11.29C15.11 11.47 15.01 11.72 15.01 11.99C15.01 12.25 15.11 12.5 15.29 12.69L19.24 16.64L6 16.64C5.73 16.64 5.48 16.75 5.29 16.93C5.1 17.12 5 17.37 5 17.64C5 17.9 5.1 18.16 5.29 18.35C5.48 18.53 5.73 18.64 6 18.64L19.24 18.64L15.29 22.59C15.19 22.68 15.12 22.79 15.06 22.91C15.01 23.04 14.98 23.17 14.98 23.3C14.98 23.43 15.01 23.56 15.06 23.69C15.11 23.81 15.18 23.92 15.28 24.02C15.37 24.11 15.48 24.18 15.6 24.23C15.73 24.28 15.86 24.31 15.99 24.31C16.12 24.31 16.26 24.28 16.38 24.23C16.5 24.18 16.61 24.1 16.7 24Z" fill="#000000" fill-opacity="1.000000" fill-rule="nonzero"/>
		</mask>
		<g mask="url(#mask10_38078)">
			<rect id="Default" width="27.000000" height="36.000000" fill="#2f57bf" fill-opacity="1.000000"/>
		</g>
		<g mask="url(#mask10_38078)"/>
		<g mask="url(#mask10_38078)"/>
	</g>
</svg>
