<svg width="27.000000" height="27.000000" viewBox="0 0 27 27" fill="none" xmlns="http://www.w3.org/2000/svg" xmlns:xlink="http://www.w3.org/1999/xlink">
	<desc>
			Created with Pixso.
	</desc>
	<defs/>
	<path id="Vector" d="M13.49 17.52C11.27 17.52 9.47 15.72 9.47 13.5C9.47 11.27 11.27 9.47 13.49 9.47C15.72 9.47 17.52 11.27 17.52 13.5C17.52 15.72 15.72 17.52 13.49 17.52Z" stroke="#505050" stroke-opacity="1.000000" stroke-width="2.250000" stroke-linejoin="round"/>
	<path id="Vector" d="M23.74 16.41C24.75 14.82 24.75 12.16 23.74 10.57C21.17 6.52 17.46 4.18 13.49 4.18C9.52 4.18 5.82 6.52 3.25 10.57C2.23 12.16 2.23 14.82 3.25 16.41C5.82 20.46 9.52 22.8 13.49 22.8C17.46 22.8 21.17 20.46 23.74 16.41Z" stroke="#505050" stroke-opacity="1.000000" stroke-width="2.250000" stroke-linejoin="round"/>
	<g opacity="0.000000"/>
</svg>
