<svg width="29.000000" height="30.000000" viewBox="0 0 29 30" fill="none" xmlns="http://www.w3.org/2000/svg" xmlns:xlink="http://www.w3.org/1999/xlink">
	<desc>
			Created with Pixso.
	</desc>
	<defs>
		<clipPath id="clip6_39369">
			<rect id="mdi:attach-money" width="8.235168" height="8.235168" transform="translate(20.312500 0.882812)" fill="white" fill-opacity="0"/>
		</clipPath>
		<clipPath id="clip6_39374">
			<rect id="mdi:check-outline" width="11.764528" height="11.764528" transform="translate(8.548828 9.117188)" fill="white" fill-opacity="0"/>
		</clipPath>
	</defs>
	<path id="Vector" d="M28.05 5C28.05 7.3 26.23 9.16 23.97 9.16C21.72 9.16 19.89 7.3 19.89 5C19.89 2.69 21.72 0.83 23.97 0.83C26.23 0.83 28.05 2.69 28.05 5Z" fill="#000000" fill-opacity="1.000000" fill-rule="evenodd"/>
	<rect id="mdi:attach-money" width="8.235168" height="8.235168" transform="translate(20.312500 0.882812)" fill="#FFFFFF" fill-opacity="0"/>
	<g clip-path="url(#clip6_39369)">
		<path id="Vector" d="M22.23 6.22L22.91 6.22C22.91 6.59 23.38 6.91 23.94 6.91C24.5 6.91 24.97 6.59 24.97 6.22C24.97 5.84 24.62 5.71 23.86 5.52C23.13 5.34 22.23 5.12 22.23 4.16C22.23 3.55 22.73 3.03 23.43 2.85L23.43 2.1L24.46 2.1L24.46 2.85C25.15 3.03 25.66 3.55 25.66 4.16L24.97 4.16C24.97 3.79 24.5 3.47 23.94 3.47C23.38 3.47 22.91 3.79 22.91 4.16C22.91 4.54 23.27 4.68 24.03 4.86C24.75 5.04 25.66 5.27 25.66 6.22C25.66 6.83 25.15 7.36 24.46 7.53L24.46 8.28L23.43 8.28L23.43 7.53C22.73 7.36 22.23 6.83 22.23 6.22Z" fill="#FFFFFF" fill-opacity="1.000000" fill-rule="nonzero"/>
	</g>
	<rect id="mdi:check-outline" width="11.764528" height="11.764528" transform="translate(8.548828 9.117188)" fill="#FFFFFF" fill-opacity="0"/>
	<g clip-path="url(#clip6_39374)">
		<path id="Vector" d="M18.24 10.19L20.31 12.26L12.68 19.9L8.54 15.75L10.61 13.69L12.68 15.75L18.24 10.19ZM18.24 11.56L12.68 17.13L10.61 15.09L9.92 15.75L12.68 18.51L18.93 12.26L18.24 11.56Z" fill="#000000" fill-opacity="1.000000" fill-rule="nonzero"/>
	</g>
	<path id="Vector" d="M23.97 11.24L23.97 13.27C23.97 22.44 15.82 26.28 14.18 26.96C12.55 26.28 4.39 22.43 4.39 13.27L4.39 7.61C6.11 7.11 7.8 6.48 9.43 5.74C11.07 5.01 12.66 4.18 14.18 3.24C15.37 3.98 16.6 4.65 17.86 5.25L17.86 5.01C17.86 4.5 17.93 3.99 18.05 3.49C16.88 2.91 15.73 2.26 14.63 1.55L14.18 1.25L13.74 1.54C12.16 2.56 10.5 3.45 8.78 4.21C7.03 5.01 5.22 5.66 3.37 6.16L2.76 6.32L2.76 13.27C2.76 24.43 13.8 28.6 13.91 28.64L14.18 28.74L14.46 28.64C14.58 28.64 25.61 24.44 25.61 13.27L25.61 11.01C25.08 11.16 24.53 11.24 23.97 11.24Z" fill="#000000" fill-opacity="1.000000" fill-rule="nonzero"/>
</svg>
