<svg width="100.000000" height="52.000000" viewBox="0 0 100 52" fill="none" xmlns="http://www.w3.org/2000/svg" xmlns:xlink="http://www.w3.org/1999/xlink">
	<desc>
			Created with Pixso.
	</desc>
	<defs>
		<clipPath id="clip1079_17180">
			<rect id="quote" width="100.000000" height="52.000000" fill="white" fill-opacity="0"/>
		</clipPath>
	</defs>
	<rect id="quote" width="100.000000" height="52.000000" fill="#FFFFFF" fill-opacity="0"/>
	<g clip-path="url(#clip1079_17180)">
		<path id="Vector" d="M38.38 29.12C38.03 32.34 37.1 34.92 35.47 37.2C33.29 40.25 29.64 43.09 23.6 46.12C23.21 46.29 22.86 46.54 22.57 46.85C22.28 47.16 22.06 47.52 21.92 47.92C21.77 48.32 21.71 48.74 21.74 49.16C21.76 49.59 21.87 50 22.06 50.38C22.25 50.76 22.51 51.09 22.84 51.37C23.16 51.64 23.54 51.84 23.94 51.97C24.35 52.09 24.77 52.13 25.19 52.09C25.61 52.04 26.02 51.91 26.39 51.7C32.85 48.48 37.53 45.07 40.56 40.83C43.64 36.51 44.79 31.65 44.79 26L44.79 7.25C44.79 5.31 44.02 3.46 42.65 2.09C41.28 0.72 39.43 -0.05 37.49 -0.05L20.83 -0.05C18.89 -0.05 17.04 0.72 15.67 2.09C14.3 3.46 13.54 5.31 13.54 7.25L13.54 21.83C13.54 25.85 16.8 29.12 20.83 29.12L38.38 29.12ZM80.05 29.12C79.7 32.34 78.77 34.92 77.14 37.2C74.96 40.25 71.31 43.09 65.27 46.12C64.88 46.29 64.53 46.54 64.24 46.85C63.95 47.16 63.73 47.52 63.58 47.92C63.44 48.32 63.38 48.74 63.4 49.16C63.43 49.59 63.54 50 63.73 50.38C63.92 50.76 64.18 51.09 64.5 51.37C64.83 51.64 65.2 51.84 65.61 51.97C66.01 52.09 66.44 52.13 66.86 52.09C67.28 52.04 67.69 51.91 68.06 51.7C74.52 48.48 79.19 45.07 82.22 40.83C85.31 36.51 86.45 31.65 86.45 26L86.45 7.25C86.45 5.31 85.68 3.46 84.32 2.09C82.95 0.72 81.09 -0.05 79.16 -0.05L62.49 -0.05C60.56 -0.05 58.71 0.72 57.34 2.09C55.97 3.46 55.2 5.31 55.2 7.25L55.2 21.83C55.2 25.85 58.47 29.12 62.49 29.12L80.05 29.12Z" fill="#FFFFFF" fill-opacity="1.000000" fill-rule="evenodd"/>
	</g>
</svg>
