<svg width="33.000000" height="33.000000" viewBox="0 0 33 33" fill="none" xmlns="http://www.w3.org/2000/svg" xmlns:xlink="http://www.w3.org/1999/xlink">
	<desc>
			Created with Pixso.
	</desc>
	<defs/>
	<path id="Vector" d="M11.87 3.45C11.31 4.01 10.55 4.33 9.75 4.33L7.33 4.33C5.67 4.33 4.33 5.67 4.33 7.33L4.33 9.75C4.33 10.55 4.01 11.31 3.45 11.87L1.45 13.87C0.28 15.05 0.28 16.94 1.45 18.12L3.45 20.12C4.01 20.68 4.33 21.44 4.33 22.24L4.33 24.66C4.33 26.32 5.67 27.66 7.33 27.66L9.75 27.66C10.55 27.66 11.31 27.98 11.87 28.54L13.87 30.54C15.05 31.71 16.94 31.71 18.12 30.54L20.12 28.54C20.68 27.98 21.44 27.66 22.24 27.66L24.66 27.66C26.32 27.66 27.66 26.32 27.66 24.66L27.66 22.24C27.66 21.44 27.98 20.68 28.54 20.12L30.54 18.12C31.71 16.94 31.71 15.05 30.54 13.87L28.54 11.87C27.98 11.31 27.66 10.55 27.66 9.75L27.66 7.33C27.66 5.67 26.32 4.33 24.66 4.33L22.24 4.33C21.44 4.33 20.68 4.01 20.12 3.45L18.12 1.45C16.94 0.28 15.05 0.28 13.87 1.45L11.87 3.45Z" stroke="#2F57BF" stroke-opacity="1.000000" stroke-width="2.000000" stroke-linejoin="round"/>
	<path id="Vector" d="M19.53 19.53C20.47 18.59 21 17.32 21 16C21 14.67 20.47 13.4 19.53 12.46C18.59 11.52 17.32 11 16 11C14.67 11 13.4 11.52 12.46 12.46C11.52 13.4 11 14.67 11 16C11 17.32 11.52 18.59 12.46 19.53C13.4 20.47 14.67 21 16 21C17.32 21 18.59 20.47 19.53 19.53Z" stroke="#2F57BF" stroke-opacity="1.000000" stroke-width="2.000000" stroke-linejoin="round"/>
</svg>
