<svg width="24.000000" height="24.000000" viewBox="0 0 24 24" fill="none" xmlns="http://www.w3.org/2000/svg" xmlns:xlink="http://www.w3.org/1999/xlink">
	<desc>
			Created with Pixso.
	</desc>
	<defs>
		<clipPath id="clip15_23839">
			<rect id="octicon:link-16" width="24.000000" height="24.000000" transform="translate(0.000000 -0.500000)" fill="white" fill-opacity="0"/>
		</clipPath>
	</defs>
	<rect id="octicon:link-16" width="24.000000" height="24.000000" transform="translate(0.000000 -0.500000)" fill="#FFFFFF" fill-opacity="0"/>
	<g clip-path="url(#clip15_23839)">
		<path id="Vector" d="M11.66 4.41L13.53 2.53C14.02 2.04 14.6 1.66 15.24 1.39C15.87 1.13 16.56 0.99 17.25 0.99C17.93 0.99 18.62 1.13 19.25 1.39C19.89 1.66 20.47 2.04 20.96 2.53C21.45 3.02 21.83 3.6 22.1 4.24C22.36 4.87 22.5 5.55 22.5 6.24C22.5 6.93 22.36 7.62 22.1 8.25C21.83 8.89 21.45 9.47 20.96 9.96L17.21 13.71C16.72 14.19 16.14 14.58 15.5 14.84C14.87 15.11 14.18 15.25 13.5 15.25C12.81 15.25 12.12 15.11 11.49 14.84C10.85 14.58 10.27 14.19 9.78 13.71C9.58 13.49 9.48 13.21 9.48 12.92C9.49 12.63 9.6 12.35 9.81 12.14C10.02 11.94 10.29 11.82 10.59 11.82C10.88 11.81 11.16 11.92 11.37 12.12C11.65 12.4 11.98 12.62 12.35 12.77C12.71 12.92 13.1 13 13.5 13C13.89 13 14.28 12.92 14.64 12.77C15.01 12.62 15.34 12.4 15.62 12.12L19.37 8.37C19.9 7.8 20.2 7.04 20.18 6.26C20.17 5.48 19.86 4.74 19.31 4.18C18.75 3.63 18.01 3.32 17.23 3.3C16.45 3.29 15.69 3.59 15.12 4.12L13.25 6C13.03 6.2 12.75 6.3 12.46 6.3C12.17 6.29 11.89 6.18 11.68 5.97C11.48 5.76 11.36 5.49 11.36 5.19C11.35 4.9 11.46 4.62 11.66 4.41ZM4.62 18.87C4.9 19.15 5.23 19.37 5.6 19.52C5.96 19.67 6.35 19.75 6.75 19.75C7.14 19.75 7.53 19.67 7.89 19.52C8.26 19.37 8.59 19.15 8.87 18.87L10.74 16.99C10.96 16.79 11.24 16.69 11.53 16.69C11.82 16.7 12.1 16.81 12.31 17.02C12.51 17.23 12.63 17.5 12.63 17.79C12.64 18.09 12.53 18.37 12.33 18.58L10.46 20.46C9.97 20.94 9.39 21.33 8.75 21.59C8.12 21.86 7.43 22 6.75 22C6.06 22 5.37 21.86 4.74 21.59C4.1 21.33 3.52 20.94 3.03 20.46C2.55 19.97 2.16 19.39 1.89 18.75C1.63 18.12 1.5 17.43 1.5 16.74C1.5 16.05 1.63 15.37 1.89 14.74C2.16 14.1 2.55 13.52 3.03 13.03L6.78 9.28C7.27 8.79 7.85 8.41 8.49 8.14C9.12 7.88 9.81 7.74 10.5 7.74C11.18 7.74 11.87 7.88 12.5 8.14C13.14 8.41 13.72 8.79 14.21 9.28C14.41 9.5 14.51 9.78 14.51 10.07C14.5 10.36 14.39 10.64 14.18 10.84C13.97 11.05 13.7 11.17 13.4 11.17C13.11 11.18 12.83 11.07 12.62 10.87C12.34 10.59 12.01 10.37 11.64 10.22C11.28 10.07 10.89 9.99 10.5 9.99C10.1 9.99 9.71 10.07 9.35 10.22C8.98 10.37 8.65 10.59 8.37 10.87L4.62 14.62C4.34 14.9 4.12 15.23 3.97 15.6C3.82 15.96 3.74 16.35 3.74 16.74C3.74 17.14 3.82 17.53 3.97 17.89C4.12 18.26 4.34 18.59 4.62 18.87Z" fill="#000000" fill-opacity="1.000000" fill-rule="nonzero"/>
	</g>
</svg>
