<svg width="58.000000" height="56.000000" viewBox="0 0 58 56" fill="none" xmlns="http://www.w3.org/2000/svg" xmlns:xlink="http://www.w3.org/1999/xlink">
	<desc>
			Created with Pixso.
	</desc>
	<defs>
		<clipPath id="clip1273_38980">
			<rect id="BtnIcons" width="28.000000" height="26.000000" transform="translate(15.000000 15.000000)" fill="white" fill-opacity="0"/>
		</clipPath>
	</defs>
	<rect id="Upload photo" rx="28.000000" width="58.000000" height="56.000000" fill="#2F57BF" fill-opacity="1.000000"/>
	<rect id="BtnIcons" width="28.000000" height="26.000000" transform="translate(15.000000 15.000000)" fill="#FFFFFF" fill-opacity="0"/>
	<g clip-path="url(#clip1273_38980)">
		<path id="Vector" d="M29 35.7C30.75 35.7 32.23 35.08 33.46 33.86C34.68 32.63 35.3 31.15 35.29 29.4C35.29 27.64 34.68 26.16 33.46 24.93C32.23 23.71 30.75 23.1 29 23.1C27.24 23.09 25.76 23.71 24.53 24.93C23.31 26.16 22.7 27.65 22.7 29.4C22.69 31.14 23.3 32.63 24.53 33.86C25.76 35.09 27.25 35.7 29 35.7ZM29 32.9C28.01 32.9 27.19 32.56 26.51 31.88C25.83 31.2 25.5 30.38 25.5 29.4C25.5 28.41 25.83 27.59 26.51 26.91C27.19 26.23 28.01 25.9 29 25.9C29.98 25.9 30.8 26.23 31.48 26.91C32.16 27.59 32.5 28.41 32.5 29.4C32.5 30.38 32.16 31.2 31.48 31.88C30.8 32.56 29.98 32.9 29 32.9ZM17.79 40.6C17.03 40.6 16.37 40.32 15.82 39.77C15.27 39.23 15 38.57 15 37.8L15 21C15 20.23 15.27 19.57 15.82 19.02C16.37 18.47 17.03 18.2 17.79 18.2L22.21 18.2L24.79 15.4L33.2 15.4L35.79 18.2L40.2 18.2C40.96 18.2 41.62 18.47 42.17 19.02C42.72 19.57 43 20.23 43 21L43 37.8C43 38.57 42.72 39.22 42.17 39.77C41.62 40.32 40.97 40.6 40.2 40.6L17.79 40.6ZM17.79 37.8L40.2 37.8L40.2 21L34.53 21L31.97 18.2L26.02 18.2L23.46 21L17.79 21L17.79 37.8Z" fill="#FFFFFF" fill-opacity="1.000000" fill-rule="nonzero"/>
	</g>
</svg>
