<svg width="50.000000" height="50.000000" viewBox="0 0 50 50" fill="none" xmlns="http://www.w3.org/2000/svg" xmlns:xlink="http://www.w3.org/1999/xlink">
	<desc>
			Created with Pixso.
	</desc>
	<defs>
		<clipPath id="clip10_47325">
			<rect id="Icon" width="50.000000" height="50.000000" fill="white" fill-opacity="0"/>
		</clipPath>
	</defs>
	<rect id="Icon" width="50.000000" height="50.000000" fill="#FFFFFF" fill-opacity="0"/>
	<g clip-path="url(#clip10_47325)">
		<path id="Vector" d="M6.25 2.08L32.11 2.08L43.75 13.72L43.75 24.99L39.58 24.99L39.58 18.74L27.08 18.74L27.08 6.24L10.41 6.24L10.41 43.74L25 43.74L25 47.91L6.25 47.91L6.25 2.08ZM31.25 7.11L31.25 14.58L38.72 14.58L31.25 7.11ZM29.16 32.29C29.16 30.9 29.71 29.58 30.69 28.6C31.66 27.63 32.99 27.08 34.37 27.08C35.75 27.08 37.08 27.63 38.05 28.6C39.03 29.58 39.58 30.9 39.58 32.29L39.58 41.66L35.41 41.66L35.41 32.29C35.41 32.01 35.3 31.75 35.11 31.55C34.91 31.35 34.65 31.24 34.37 31.24C34.09 31.24 33.83 31.35 33.63 31.55C33.44 31.75 33.33 32.01 33.33 32.29L33.33 41.66C33.33 42.77 33.77 43.83 34.55 44.61C35.33 45.39 36.39 45.83 37.5 45.83C38.6 45.83 39.66 45.39 40.44 44.61C41.22 43.83 41.66 42.77 41.66 41.66L41.66 33.33L45.83 33.33L45.83 41.66C45.83 43.87 44.95 45.99 43.39 47.55C41.83 49.12 39.71 49.99 37.5 49.99C35.29 49.99 33.16 49.12 31.6 47.55C30.04 45.99 29.16 43.87 29.16 41.66L29.16 32.29Z" fill="#FFFFFF" fill-opacity="1.000000" fill-rule="nonzero"/>
	</g>
</svg>
