<svg width="11.000000" height="20.000000" viewBox="0 0 11 20" fill="none" xmlns="http://www.w3.org/2000/svg" xmlns:xlink="http://www.w3.org/1999/xlink">
	<desc>
			Created with Pixso.
	</desc>
	<defs>
		<clipPath id="clip659_16943">
			<rect id="facebook.svg" width="11.000000" height="20.000000" transform="translate(-0.500000 0.000000)" fill="white" fill-opacity="0"/>
		</clipPath>
		<clipPath id="clip659_16942">
			<rect id="facebook.svg fill" width="11.000000" height="20.000000" transform="translate(-0.500000 0.000000)" fill="white" fill-opacity="0"/>
		</clipPath>
		<clipPath id="clip659_16941">
			<rect id="Link → facebook.svg" width="11.000000" height="20.000000" transform="translate(-0.500000 0.000000)" fill="white" fill-opacity="0"/>
		</clipPath>
	</defs>
	<g clip-path="url(#clip659_16941)">
		<g clip-path="url(#clip659_16942)">
			<g clip-path="url(#clip659_16943)">
				<path id="Vector" d="M8.01 3.31L9.88 3.31L9.88 0.14C8.97 0.04 8.06 -0.01 7.14 0C4.42 0 2.57 1.66 2.57 4.7L2.57 7.31L-0.5 7.31L-0.5 10.87L2.57 10.87L2.57 20L6.25 20L6.25 10.87L9.31 10.87L9.77 7.31L6.25 7.31L6.25 5.04C6.25 4 6.53 3.31 8.01 3.31Z" fill="#2F57BF" fill-opacity="1.000000" fill-rule="evenodd"/>
			</g>
		</g>
	</g>
</svg>
