<svg width="24.000000" height="24.000000" viewBox="0 0 24 24" fill="none" xmlns="http://www.w3.org/2000/svg" xmlns:xlink="http://www.w3.org/1999/xlink">
	<desc>
			Created with Pixso.
	</desc>
	<defs>
		<clipPath id="clip659_16951">
			<rect id="skill-icons:instagram" width="24.000000" height="24.000000" fill="white" fill-opacity="0"/>
		</clipPath>
		<radialGradient gradientTransform="translate(6.375 25.8485) rotate(-90) scale(23.7858 22.1227)" cx="0.000000" cy="0.000000" r="1.000000" id="paint_radial_659_16953_0" gradientUnits="userSpaceOnUse">
			<stop stop-color="#FFDD55"/>
			<stop offset="0.100000" stop-color="#FFDD55"/>
			<stop offset="0.500000" stop-color="#FF543E"/>
			<stop offset="1.000000" stop-color="#C837AB"/>
		</radialGradient>
		<radialGradient gradientTransform="translate(-4.02007 1.72884) rotate(78.681) scale(10.6324 43.827)" cx="0.000000" cy="0.000000" r="1.000000" id="paint_radial_659_16954_0" gradientUnits="userSpaceOnUse">
			<stop stop-color="#3771C8"/>
			<stop offset="0.128000" stop-color="#3771C8"/>
			<stop offset="1.000000" stop-color="#6600FF" stop-opacity="0.000000"/>
		</radialGradient>
	</defs>
	<rect id="skill-icons:instagram" width="24.000000" height="24.000000" fill="#FFFFFF" fill-opacity="0"/>
	<g clip-path="url(#clip659_16951)">
		<path id="Vector" d="M5.62 0L18.37 0C21.48 0 24 2.51 24 5.62L24 18.37C24 21.48 21.48 24 18.37 24L5.62 24C2.51 24 0 21.48 0 18.37L0 5.62C0 2.51 2.51 0 5.62 0Z" fill="url(#paint_radial_659_16953_0)" fill-opacity="1.000000" fill-rule="evenodd"/>
		<path id="Vector" d="M5.62 0L18.37 0C21.48 0 24 2.51 24 5.62L24 18.37C24 21.48 21.48 24 18.37 24L5.62 24C2.51 24 0 21.48 0 18.37L0 5.62C0 2.51 2.51 0 5.62 0Z" fill="url(#paint_radial_659_16954_0)" fill-opacity="1.000000" fill-rule="evenodd"/>
		<path id="Vector" d="M12 2.62C9.45 2.62 9.13 2.63 8.13 2.68C7.13 2.72 6.45 2.88 5.85 3.11C5.24 3.35 4.72 3.67 4.19 4.19C3.67 4.71 3.35 5.24 3.11 5.85C2.88 6.45 2.72 7.13 2.68 8.13C2.63 9.13 2.62 9.45 2.62 12C2.62 14.54 2.63 14.86 2.68 15.86C2.72 16.86 2.88 17.54 3.11 18.14C3.35 18.75 3.67 19.27 4.19 19.8C4.71 20.32 5.24 20.64 5.85 20.88C6.45 21.11 7.13 21.27 8.13 21.31C9.13 21.36 9.45 21.37 11.99 21.37C14.54 21.37 14.86 21.36 15.86 21.31C16.86 21.27 17.54 21.11 18.14 20.88C18.75 20.64 19.27 20.32 19.8 19.8C20.32 19.27 20.64 18.75 20.88 18.14C21.11 17.54 21.27 16.86 21.31 15.86C21.36 14.86 21.37 14.54 21.37 12C21.37 9.45 21.36 9.13 21.31 8.13C21.27 7.13 21.11 6.45 20.88 5.85C20.64 5.24 20.32 4.71 19.8 4.19C19.27 3.67 18.75 3.35 18.14 3.11C17.54 2.88 16.86 2.72 15.86 2.68C14.86 2.63 14.54 2.62 11.99 2.62L12 2.62ZM11.15 4.31C11.4 4.31 11.68 4.31 12 4.31C14.5 4.31 14.8 4.32 15.78 4.36C16.7 4.41 17.19 4.56 17.52 4.69C17.96 4.86 18.27 5.06 18.6 5.39C18.93 5.72 19.13 6.03 19.3 6.47C19.43 6.8 19.59 7.29 19.63 8.21C19.67 9.19 19.68 9.49 19.68 11.99C19.68 14.5 19.67 14.79 19.63 15.78C19.58 16.69 19.43 17.19 19.3 17.52C19.13 17.96 18.93 18.27 18.6 18.6C18.27 18.93 17.96 19.13 17.52 19.3C17.19 19.43 16.7 19.58 15.78 19.62C14.8 19.67 14.5 19.68 12 19.68C9.49 19.68 9.2 19.67 8.21 19.62C7.29 19.58 6.8 19.43 6.47 19.3C6.03 19.13 5.72 18.93 5.39 18.6C5.06 18.27 4.86 17.96 4.69 17.52C4.56 17.19 4.41 16.69 4.36 15.78C4.32 14.79 4.31 14.49 4.31 11.99C4.31 9.49 4.32 9.19 4.36 8.2C4.41 7.29 4.56 6.79 4.69 6.46C4.86 6.03 5.06 5.71 5.39 5.38C5.72 5.06 6.03 4.85 6.47 4.68C6.8 4.55 7.29 4.4 8.21 4.36C9.07 4.32 9.41 4.31 11.15 4.31L11.15 4.31ZM17 5.87C16.38 5.87 15.88 6.37 15.88 6.99C15.88 7.61 16.38 8.12 17 8.12C17.62 8.12 18.13 7.61 18.13 6.99C18.13 6.37 17.62 5.87 17 5.87L17 5.87ZM12 7.18C9.34 7.18 7.18 9.34 7.18 12C7.18 14.65 9.34 16.81 12 16.81C14.65 16.81 16.81 14.65 16.81 12C16.81 9.34 14.65 7.18 12 7.18L12 7.18ZM12 8.87C13.72 8.87 15.12 10.27 15.12 12C15.12 13.72 13.72 15.12 12 15.12C10.27 15.12 8.87 13.72 8.87 12C8.87 10.27 10.27 8.87 12 8.87Z" fill="#FFFFFF" fill-opacity="1.000000" fill-rule="nonzero"/>
	</g>
</svg>
