<svg width="22.000000" height="20.000000" viewBox="0 0 22 20" fill="none" xmlns="http://www.w3.org/2000/svg" xmlns:xlink="http://www.w3.org/1999/xlink">
	<desc>
			Created with Pixso.
	</desc>
	<defs>
		<clipPath id="clip659_16959">
			<rect id="linkdin.svg" width="22.000000" height="20.000000" fill="white" fill-opacity="0"/>
		</clipPath>
	</defs>
	<g clip-path="url(#clip659_16959)">
		<path id="Vector" d="M4.89 2.22C4.88 2.81 4.65 3.37 4.23 3.79C3.82 4.21 3.25 4.44 2.66 4.44C2.07 4.44 1.51 4.2 1.09 3.79C0.67 3.37 0.44 2.81 0.44 2.22C0.44 1.63 0.68 1.06 1.09 0.64C1.51 0.23 2.07 -0.01 2.66 0C3.25 0 3.82 0.23 4.24 0.65C4.65 1.06 4.89 1.63 4.89 2.22ZM4.95 6.08L0.51 6.08L0.51 20L4.95 20L4.95 6.08ZM11.97 6.08L7.55 6.08L7.55 20L11.93 20L11.93 12.7C11.93 8.63 17.23 8.25 17.23 12.7L17.23 20L21.62 20L21.62 11.18C21.62 4.33 13.77 4.58 11.93 7.95L11.97 6.08Z" fill="#2F57BF" fill-opacity="1.000000" fill-rule="evenodd"/>
	</g>
</svg>
