<svg width="24.000000" height="20.000000" viewBox="0 0 24 20" fill="none" xmlns="http://www.w3.org/2000/svg" xmlns:xlink="http://www.w3.org/1999/xlink">
	<desc>
			Created with Pixso.
	</desc>
	<defs>
		<clipPath id="clip659_16948">
			<rect id="vimeo.svg" width="24.000000" height="20.000000" fill="white" fill-opacity="0"/>
		</clipPath>
	</defs>
	<g clip-path="url(#clip659_16948)">
		<path id="Vector" d="M23.82 4.63C23.72 6.87 22.11 9.95 19 13.87C15.77 17.95 13.05 20 10.84 20C9.46 20 8.3 18.75 7.35 16.26C6.92 14.75 6.29 12.47 5.43 9.42C4.74 6.94 3.98 5.7 3.15 5.7C2.48 5.97 1.86 6.34 1.3 6.79L1.31 6.78L0.19 5.38C0.42 5.18 0.95 4.73 1.76 4.01C2.57 3.3 3.2 2.75 3.65 2.37C5.16 1.07 6.32 0.38 7.15 0.3C7.55 0.24 7.97 0.28 8.36 0.42C8.74 0.56 9.09 0.79 9.37 1.09L9.37 1.09C10.02 1.92 10.43 2.91 10.54 3.95L10.54 3.98C10.97 6.69 11.29 8.46 11.5 9.27C12.04 11.63 12.62 12.81 13.24 12.81C13.74 12.81 14.48 12.05 15.48 10.52C16.24 9.5 16.78 8.33 17.05 7.09L17.06 7.03C17.19 5.71 16.66 5.05 15.48 5.05C14.86 5.06 14.26 5.19 13.69 5.44L13.72 5.42C14.88 1.7 17.11 -0.11 20.39 0C22.82 0.08 23.96 1.62 23.82 4.63L23.82 4.63Z" fill="#22BDFF" fill-opacity="1.000000" fill-rule="evenodd"/>
	</g>
</svg>
