<svg width="26.000000" height="20.000000" viewBox="0 0 26 20" fill="none" xmlns="http://www.w3.org/2000/svg" xmlns:xlink="http://www.w3.org/1999/xlink">
	<desc>
			Created with Pixso.
	</desc>
	<defs>
		<clipPath id="clip659_16964">
			<rect id="youtube.svg" width="26.000000" height="20.000000" fill="white" fill-opacity="0"/>
		</clipPath>
	</defs>
	<g clip-path="url(#clip659_16964)">
		<path id="Vector" d="M25.34 3.35C25.24 2.93 25.03 2.54 24.75 2.22C24.46 1.89 24.09 1.64 23.69 1.49C19.78 -0.02 13.55 0 13.21 0C12.87 0 6.63 -0.02 2.73 1.49C2.32 1.64 1.96 1.89 1.67 2.22C1.39 2.54 1.18 2.93 1.07 3.35C0.78 4.48 0.42 6.56 0.42 10C0.42 13.43 0.78 15.51 1.07 16.64C1.18 17.06 1.39 17.45 1.67 17.77C1.96 18.1 2.32 18.35 2.73 18.5C6.47 19.95 12.34 20 13.13 20L13.29 20C14.08 20 19.94 19.95 23.69 18.5C24.09 18.35 24.46 18.1 24.75 17.77C25.03 17.45 25.24 17.06 25.34 16.64C25.64 15.51 26 13.43 26 10C26 6.56 25.64 4.48 25.34 3.35ZM17.11 10.37L11.63 14.02C11.56 14.08 11.47 14.11 11.38 14.1C11.31 14.1 11.23 14.08 11.17 14.05C11.09 14.01 11.03 13.95 10.99 13.88C10.95 13.81 10.93 13.73 10.93 13.65L10.93 6.34C10.93 6.26 10.95 6.18 10.99 6.11C11.03 6.04 11.09 5.98 11.17 5.94C11.24 5.9 11.32 5.89 11.4 5.89C11.49 5.89 11.57 5.92 11.63 5.97L17.11 9.62C17.18 9.66 17.23 9.71 17.27 9.78C17.3 9.85 17.32 9.92 17.32 10C17.32 10.07 17.3 10.14 17.27 10.21C17.23 10.28 17.18 10.33 17.11 10.37Z" fill="#FF0000" fill-opacity="1.000000" fill-rule="nonzero"/>
	</g>
</svg>
