<svg width="100.000000" height="100.000000" viewBox="0 0 100 100" fill="none" xmlns="http://www.w3.org/2000/svg" xmlns:xlink="http://www.w3.org/1999/xlink">
	<desc>
			Created with Pixso.
	</desc>
	<defs>
		<clipPath id="clip6_46063">
			<rect id="icon4_new.svg" width="100.000000" height="100.000000" fill="white" fill-opacity="0"/>
		</clipPath>
		<clipPath id="clip6_46062">
			<rect id="icon4_new.svg fill" width="100.000000" height="100.000000" fill="white" fill-opacity="0"/>
		</clipPath>
		<clipPath id="clip6_46061">
			<rect id="Icon=Water and bending resistance" width="100.000000" height="100.000000" fill="white" fill-opacity="0"/>
		</clipPath>
	</defs>
	<g clip-path="url(#clip6_46061)">
		<g clip-path="url(#clip6_46062)">
			<g clip-path="url(#clip6_46063)">
				<g opacity="0.925000">
					<path id="Vector" d="M68.06 -0.1C68.58 -0.1 69.1 -0.1 69.62 -0.1C72.85 2.58 75.23 5.9 76.75 9.86C78.04 14.93 76.31 18.55 71.58 20.7C66.89 21.85 63.41 20.32 61.13 16.11C60.18 13.67 60.24 11.27 61.32 8.88C62.54 6.24 64.11 3.83 66.01 1.66C66.62 0.95 67.3 0.36 68.06 -0.1ZM68.65 3.41C70.71 5.25 72.3 7.46 73.43 10.05C74.92 14.46 73.39 17.13 68.84 18.06C64.29 17.13 62.77 14.46 64.25 10.05C65.48 7.67 66.94 5.45 68.65 3.41Z" fill="#FFFEFE" fill-opacity="1.000000" fill-rule="evenodd"/>
				</g>
				<g opacity="0.925000">
					<path id="Vector" d="M32.71 2.83C33.53 2.73 34.25 2.95 34.86 3.51C38.43 6.89 41.33 10.76 43.55 15.13C45.02 13.33 46.68 11.74 48.53 10.35C49.59 9.76 50.63 9.83 51.66 10.54C58.65 16.94 63.83 24.59 67.18 33.49C69.6 42.45 67.03 49.58 59.47 54.88C52.14 58.77 45.11 58.31 38.37 53.51C32.53 48.32 30.51 41.91 32.32 34.27C25.34 33.18 21.56 29.11 20.99 22.07C21.17 19.13 22.08 16.46 23.73 14.06C25.05 13.71 25.84 14.2 26.07 15.52C25.56 16.81 25.08 18.11 24.6 19.43C23.44 25.07 25.55 28.88 30.95 30.85C35.25 31.68 38.6 30.28 41.01 26.66C42.62 23.7 42.69 20.71 41.21 17.67C39.22 13.41 36.55 9.63 33.2 6.34C31.71 7.63 30.44 9.1 29.39 10.74C28.36 11.39 27.48 11.23 26.75 10.25C26.63 9.19 26.96 8.28 27.73 7.51C29.19 5.7 30.85 4.14 32.71 2.83ZM49.7 13.37C50.11 13.55 50.5 13.78 50.87 14.06C56.59 19.84 60.99 26.52 64.06 34.08C66.23 41.25 64.37 47.14 58.49 51.75C52.37 55.43 46.38 55.23 40.52 51.17C35.26 46.51 33.67 40.81 35.74 34.08C42.32 32.11 45.51 27.69 45.31 20.8C45.23 20.06 45.07 19.34 44.82 18.65C46.39 16.82 48.02 15.06 49.7 13.37Z" fill="#FFFEFE" fill-opacity="1.000000" fill-rule="evenodd"/>
				</g>
				<g opacity="0.916000">
					<path id="Vector" d="M38.57 37.79C39.37 37.65 40.05 37.84 40.62 38.37C40.73 42.9 42.84 46.06 46.97 47.85C48.12 48.17 49.29 48.36 50.48 48.43C51.61 49.19 51.74 50.1 50.87 51.17C45.19 51.61 41.12 49.24 38.67 44.04C37.9 42.29 37.64 40.47 37.89 38.57C38.02 38.21 38.25 37.95 38.57 37.79Z" fill="#FFFEFE" fill-opacity="1.000000" fill-rule="evenodd"/>
				</g>
				<g opacity="0.944000">
					<path id="Vector" d="M99.9 97.55C99.9 98.14 99.9 98.73 99.9 99.31C99.64 99.44 99.44 99.64 99.31 99.9C66.37 99.9 33.43 99.9 0.48 99.9C0.35 99.64 0.16 99.44 -0.1 99.31C-0.1 98.73 -0.1 98.14 -0.1 97.55C2.23 94.01 4.83 90.66 7.71 87.5C9.6 86.91 10.41 87.59 10.15 89.55C7.95 91.83 5.97 94.27 4.19 96.87C34.66 97 65.13 97 95.6 96.87C88.5 86.68 79.06 79.55 67.28 75.48C62.37 80.3 57.48 85.15 52.63 90.03C50.81 91.21 48.99 91.21 47.16 90.03C42.31 85.15 37.43 80.3 32.51 75.48C25.94 77.66 20.01 80.95 14.74 85.35C12.69 85.9 11.94 85.15 12.5 83.1C17.69 78.69 23.52 75.31 29.98 72.94C26.27 69.14 22.52 65.36 18.75 61.62C17.27 58.56 18.02 56.25 20.99 54.68C22.8 54.11 24.43 54.44 25.87 55.66C30.79 60.57 35.71 65.49 40.62 70.41C46.62 69.44 52.64 69.37 58.69 70.21C58.95 70.18 59.21 70.14 59.47 70.11C60.33 69.12 61.31 68.27 62.4 67.57C63.99 67.48 64.61 68.23 64.25 69.82C59.73 74.34 55.2 78.87 50.68 83.39C50.16 83.52 49.64 83.52 49.12 83.39C40.65 74.93 32.19 66.47 23.73 58C21.96 57.17 21.15 57.73 21.28 59.66C30.56 68.94 39.84 78.22 49.12 87.5C49.64 87.89 50.16 87.89 50.68 87.5C58.17 80.01 65.65 72.52 73.14 65.03C74.08 64.56 74.9 64.72 75.58 65.52C75.65 66.5 75.71 67.48 75.78 68.45C76.62 69.93 77.53 69.99 78.51 68.65C78.64 65.26 78.64 61.88 78.51 58.49C78.42 58.21 78.26 57.98 78.02 57.81C76.25 57.58 74.46 57.49 72.65 57.51C70.84 57.49 69.05 57.58 67.28 57.81C66.46 58.71 66.53 59.56 67.48 60.35C68.6 60.37 69.71 60.5 70.8 60.74C71.36 61.31 71.52 61.99 71.28 62.79C70.34 63.73 69.4 64.68 68.45 65.62C66.63 65.92 65.92 65.17 66.3 63.37C63.51 61.66 62.82 59.31 64.25 56.34C64.99 55.41 65.93 54.79 67.08 54.49C70.8 54.36 74.51 54.36 78.22 54.49C79.93 54.96 81.07 56.04 81.64 57.71C81.82 61.82 81.76 65.93 81.44 70.01C79.7 72.72 77.39 73.34 74.51 71.87C73.81 71.3 73.25 70.62 72.85 69.82C71.8 70.83 70.79 71.87 69.82 72.94C82.61 77.8 92.64 86 99.9 97.55ZM45.99 72.75C48.6 72.72 51.2 72.75 53.8 72.85C54.67 72.87 55.52 73 56.34 73.24C54.22 75.39 52.08 77.5 49.9 79.58C47.72 77.5 45.57 75.39 43.45 73.24C44.31 73.03 45.16 72.87 45.99 72.75Z" fill="#FFFEFE" fill-opacity="1.000000" fill-rule="evenodd"/>
				</g>
				<g opacity="0.907000">
					<path id="Vector" d="M25.09 81.73C26.69 81.6 27.37 82.32 27.14 83.88C26.99 84.23 26.76 84.52 26.46 84.76C22.6 86.82 19.08 89.36 15.91 92.38C13.91 92.62 13.26 91.81 13.96 89.94C17.35 86.74 21.06 84 25.09 81.73Z" fill="#FFFEFE" fill-opacity="1.000000" fill-rule="evenodd"/>
				</g>
			</g>
		</g>
	</g>
</svg>
