<svg width="100.000000" height="100.000000" viewBox="0 0 100 100" fill="none" xmlns="http://www.w3.org/2000/svg" xmlns:xlink="http://www.w3.org/1999/xlink">
	<desc>
			Created with Pixso.
	</desc>
	<defs>
		<clipPath id="clip6_46082">
			<rect id="icon5_new.svg" width="100.000000" height="100.000000" fill="white" fill-opacity="0"/>
		</clipPath>
		<clipPath id="clip6_46081">
			<rect id="icon5_new.svg fill" width="100.000000" height="100.000000" fill="white" fill-opacity="0"/>
		</clipPath>
		<clipPath id="clip6_46080">
			<rect id="Icon=Comes with matte finish" width="100.000000" height="100.000000" fill="white" fill-opacity="0"/>
		</clipPath>
	</defs>
	<g clip-path="url(#clip6_46080)">
		<g clip-path="url(#clip6_46081)">
			<g clip-path="url(#clip6_46082)">
				<g opacity="0.971000">
					<path id="Vector" d="M47.94 -0.1C49.25 -0.1 50.55 -0.1 51.85 -0.1C53.83 0.63 55.72 1.57 57.51 2.73C70.54 10.41 83.56 18.09 96.58 25.78C98.25 26.83 99.36 28.3 99.9 30.17C99.9 31.21 99.9 32.25 99.9 33.3C99.42 34.79 98.58 36.06 97.36 37.1C95.33 38.42 93.24 39.66 91.11 40.82C93.16 41.94 95.18 43.11 97.16 44.33C98.54 45.37 99.46 46.71 99.9 48.33C99.9 49.38 99.9 50.42 99.9 51.46C99.36 53.02 98.45 54.35 97.16 55.46C95.21 56.64 93.26 57.81 91.3 58.98C93.26 60.15 95.21 61.32 97.16 62.5C98.45 63.6 99.36 64.94 99.9 66.5C99.9 67.54 99.9 68.58 99.9 69.62C99.36 71.5 98.25 72.96 96.58 74.02C83.13 82.01 69.66 89.95 56.15 97.85C54.77 98.7 53.34 99.38 51.85 99.9C50.55 99.9 49.25 99.9 47.94 99.9C46.46 99.38 45.02 98.7 43.65 97.85C30.14 89.95 16.66 82.01 3.22 74.02C1.54 72.96 0.44 71.5 -0.1 69.62C-0.1 68.58 -0.1 67.54 -0.1 66.5C0.37 65.01 1.22 63.74 2.44 62.69C4.45 61.45 6.47 60.22 8.49 58.98C6.54 57.81 4.58 56.64 2.63 55.46C1.35 54.35 0.44 53.02 -0.1 51.46C-0.1 50.42 -0.1 49.38 -0.1 48.33C0.34 46.71 1.25 45.37 2.63 44.33C4.62 43.11 6.64 41.94 8.69 40.82C6.55 39.66 4.47 38.42 2.44 37.1C1.22 36.06 0.37 34.79 -0.1 33.3C-0.1 32.25 -0.1 31.21 -0.1 30.17C0.44 28.3 1.54 26.83 3.22 25.78C17.15 17.57 31.08 9.37 45.01 1.17C45.99 0.68 46.96 0.26 47.94 -0.1ZM48.92 4.58C49.79 4.53 50.63 4.63 51.46 4.88C65.85 13.18 80.17 21.58 94.43 30.07C95.46 31.15 95.46 32.23 94.43 33.3C80.4 41.65 66.34 49.95 52.24 58.2C51 58.91 49.69 59.04 48.33 58.59C33.86 50.17 19.44 41.67 5.07 33.1C4.35 32 4.45 30.99 5.37 30.07C19.87 21.52 34.39 13.02 48.92 4.58ZM13.18 43.65C23.91 49.93 34.65 56.21 45.41 62.5C48.4 63.93 51.39 63.93 54.39 62.5C65.12 56.24 75.83 49.95 86.52 43.65C89.23 45.22 91.94 46.81 94.62 48.43C95.59 50.08 95.2 51.32 93.45 52.14C79.88 60.2 66.27 68.21 52.63 76.17C51.29 77.06 49.86 77.25 48.33 76.75C33.85 68.44 19.46 59.97 5.17 51.36C4.39 50.39 4.39 49.41 5.17 48.43C7.85 46.83 10.52 45.24 13.18 43.65ZM13.18 61.81C23.78 68.02 34.39 74.24 45.01 80.46C48.27 82.16 51.53 82.16 54.78 80.46C65.36 74.3 75.91 68.08 86.42 61.81C89.19 63.36 91.92 64.95 94.62 66.6C95.41 67.57 95.41 68.55 94.62 69.53C80.16 78.25 65.58 86.78 50.87 95.11C50.01 95.27 49.16 95.2 48.33 94.92C33.85 86.6 19.46 78.14 5.17 69.53C4.4 68.56 4.4 67.59 5.17 66.6C7.85 65 10.52 63.4 13.18 61.81Z" fill="#FFFAFA" fill-opacity="1.000000" fill-rule="evenodd"/>
				</g>
			</g>
		</g>
	</g>
</svg>
