<svg width="100.000000" height="100.000000" viewBox="0 0 100 100" fill="none" xmlns="http://www.w3.org/2000/svg" xmlns:xlink="http://www.w3.org/1999/xlink">
	<desc>
			Created with Pixso.
	</desc>
	<defs>
		<clipPath id="clip6_46093">
			<rect id="icon6_new6.svg" width="100.000000" height="99.508598" transform="translate(0.000000 0.246094)" fill="white" fill-opacity="0"/>
		</clipPath>
		<clipPath id="clip6_46092">
			<rect id="icon6_new6.svg fill" width="100.000000" height="100.000000" fill="white" fill-opacity="0"/>
		</clipPath>
		<clipPath id="clip6_46091">
			<rect id="Icon=Magnetic stickers" width="100.000000" height="100.000000" fill="white" fill-opacity="0"/>
		</clipPath>
	</defs>
	<g clip-path="url(#clip6_46091)">
		<g clip-path="url(#clip6_46092)">
			<g clip-path="url(#clip6_46093)">
				<g opacity="0.953000">
					<path id="Vector" d="M7.98 6.02C25.92 5.97 43.85 6.02 61.79 6.14C63.39 6.69 64.01 7.79 63.63 9.45C63.55 10.03 63.26 10.48 62.77 10.81C59.36 11.17 55.92 11.29 52.45 11.17C52.49 14.29 52.45 17.4 52.33 20.51C51.59 22.48 50.23 23.01 48.28 22.11C47.89 21.81 47.61 21.44 47.41 21C47.29 17.73 47.25 14.45 47.29 11.17C35.25 11.17 23.21 11.17 11.17 11.17C11.17 23.21 11.17 35.25 11.17 47.29C14.45 47.25 17.73 47.29 21 47.42C22.55 48.44 22.88 49.79 21.99 51.47C21.58 51.91 21.09 52.2 20.51 52.33C17.4 52.45 14.29 52.49 11.17 52.45C11.17 64.41 11.17 76.37 11.17 88.32C23.21 88.32 35.25 88.32 47.29 88.32C47.25 85.05 47.29 81.77 47.41 78.5C48.35 77.05 49.62 76.68 51.22 77.39C51.81 77.87 52.18 78.48 52.33 79.23C52.45 82.26 52.49 85.29 52.45 88.32C64.41 88.32 76.37 88.32 88.32 88.32C88.32 76.37 88.32 64.41 88.32 52.45C85.21 52.49 82.1 52.45 78.99 52.33C76.95 51.42 76.5 49.99 77.64 48.03C77.86 47.73 78.14 47.53 78.5 47.42C81.77 47.29 85.05 47.25 88.32 47.29C88.32 35.25 88.32 23.21 88.32 11.17C86.44 11.22 84.55 11.17 82.67 11.05C81.23 10.11 80.86 8.84 81.57 7.24C81.97 6.68 82.5 6.31 83.16 6.14C85.95 5.97 88.73 5.97 91.52 6.14C92.36 6.4 92.97 6.93 93.36 7.73C93.53 35.74 93.53 63.75 93.36 91.76C93.15 92.63 92.62 93.16 91.76 93.36C63.75 93.53 35.74 93.53 7.73 93.36C6.89 93.02 6.36 92.41 6.14 91.52C5.97 63.67 5.97 35.83 6.14 7.98C6.47 7.03 7.08 6.38 7.98 6.02Z" fill="#FFFEFE" fill-opacity="1.000000" fill-rule="evenodd"/>
				</g>
				<g opacity="0.883000">
					<path id="Vector" d="M71.86 6.02C74.27 6.09 75.3 7.32 74.93 9.7C74.13 11.08 72.94 11.53 71.37 11.05C69.92 10.11 69.55 8.84 70.26 7.24C70.71 6.67 71.24 6.26 71.86 6.02Z" fill="#FFFEFE" fill-opacity="1.000000" fill-rule="evenodd"/>
				</g>
				<g opacity="0.949000">
					<path id="Vector" d="M49.01 31.57C50.81 31.3 51.91 32.04 52.33 33.78C52.45 38.28 52.49 42.79 52.45 47.29C57.12 47.25 61.79 47.29 66.46 47.42C67.94 48.34 68.31 49.61 67.56 51.22C67.16 51.79 66.63 52.16 65.97 52.33C61.46 52.45 56.96 52.49 52.45 52.45C52.49 56.96 52.45 61.46 52.33 65.97C51.56 67.89 50.21 68.42 48.28 67.56C47.9 67.26 47.61 66.9 47.42 66.46C47.29 61.79 47.25 57.12 47.29 52.45C42.71 52.49 38.12 52.45 33.53 52.33C31.56 51.4 31.11 49.97 32.18 48.03C32.41 47.74 32.69 47.53 33.04 47.42C37.79 47.29 42.54 47.25 47.29 47.29C47.25 42.54 47.29 37.79 47.42 33.04C47.78 32.35 48.32 31.86 49.01 31.57Z" fill="#FFFEFE" fill-opacity="1.000000" fill-rule="evenodd"/>
				</g>
			</g>
		</g>
	</g>
</svg>
