<svg width="100.000000" height="100.000000" viewBox="0 0 100 100" fill="none" xmlns="http://www.w3.org/2000/svg" xmlns:xlink="http://www.w3.org/1999/xlink">
	<desc>
			Created with Pixso.
	</desc>
	<defs>
		<clipPath id="clip6_46026">
			<rect id="icon3_new.svg" width="100.000000" height="100.000000" fill="white" fill-opacity="0"/>
		</clipPath>
		<clipPath id="clip6_46025">
			<rect id="icon3_new.svg fill" width="100.000000" height="100.000000" fill="white" fill-opacity="0"/>
		</clipPath>
		<clipPath id="clip6_46024">
			<rect id="Icon=Easily to transport" width="100.000000" height="100.000000" fill="white" fill-opacity="0"/>
		</clipPath>
	</defs>
	<g clip-path="url(#clip6_46024)">
		<g clip-path="url(#clip6_46025)">
			<g clip-path="url(#clip6_46026)">
				<g opacity="0.978000">
					<path id="Vector" d="M79 -0.1C80.56 -0.1 82.12 -0.1 83.69 -0.1C86.38 0.4 88.79 1.54 90.91 3.32C93.1 5.44 95.22 7.62 97.26 9.86C98.58 11.77 99.46 13.86 99.9 16.11C99.9 17.67 99.9 19.23 99.9 20.8C99.24 23.74 97.91 26.34 95.89 28.61C73.46 51.04 51.04 73.47 28.61 95.89C26.39 97.99 23.78 99.32 20.8 99.9C19.23 99.9 17.67 99.9 16.11 99.9C13.41 99.4 11 98.26 8.88 96.48C6.7 94.36 4.58 92.18 2.53 89.94C1.21 88.02 0.33 85.94 -0.1 83.69C-0.1 82.12 -0.1 80.56 -0.1 79C0.42 76.11 1.73 73.64 3.8 71.58C26.46 49.05 49.05 26.46 71.58 3.8C72.83 2.46 74.32 1.45 76.07 0.78C77.06 0.45 78.04 0.16 79 -0.1ZM79.78 4.98C88.26 4.86 93.24 8.97 94.72 17.28C94.89 23.88 91.99 28.6 86.03 31.44C80.29 33.53 75.24 32.45 70.89 28.22C69.95 22.05 71.74 16.81 76.26 12.5C80.47 9.82 84.15 10.43 87.3 14.35C89.49 17.73 89 20.69 85.83 23.24C84.06 24.33 82.23 24.4 80.37 23.43C79.07 22.51 78.58 21.3 78.9 19.82C80.19 18.91 81.62 18.46 83.2 18.45C83.3 17.22 83.33 15.98 83.3 14.74C80.33 14.59 77.82 15.57 75.78 17.67C74.2 21.52 75.14 24.61 78.61 26.95C83.34 29.15 87.34 28.2 90.62 24.12C93.75 18.88 93.07 14.16 88.57 9.96C83.55 6 78.47 5.94 73.33 9.76C70.48 12.44 68.5 15.66 67.38 19.43C67.56 12.41 70.98 7.75 77.63 5.46C78.38 5.34 79.1 5.18 79.78 4.98ZM63.37 17.28C63.03 24.24 65.7 29.74 71.38 33.78C74.89 35.84 78.67 36.69 82.71 36.32C73.1 45.96 63.47 55.56 53.8 65.13C50.39 63.3 47.33 60.98 44.62 58.2C46.66 58.94 48.77 59.43 50.97 59.66C55.13 58.89 57.08 56.42 56.83 52.24C55.41 48.62 52.77 47.15 48.92 47.85C47.22 48.44 45.66 49.29 44.23 50.39C43.09 51.43 41.92 52.44 40.72 53.41C38.77 50.85 37.14 48.08 35.83 45.11C44.98 35.8 54.16 26.53 63.37 17.28ZM37.98 56.15C37.86 56.32 37.8 56.52 37.79 56.73C35.47 58.83 33.81 61.37 32.81 64.35C32.36 67.72 33.63 70.16 36.62 71.67C40.72 72.51 43.35 70.91 44.53 66.89C44.62 65.71 44.62 64.54 44.53 63.37C46.5 65.12 48.62 66.69 50.87 68.06C44.55 74.45 38.24 80.83 31.93 87.2C29.73 89.08 27.64 91.1 25.68 93.26C21.41 96.8 16.92 97.09 12.2 94.14C9.69 91.95 7.38 89.57 5.27 87.01C2.92 82.84 3.12 78.8 5.85 74.9C14.84 65.91 23.82 56.93 32.81 47.94C34.29 50.86 36.02 53.59 37.98 56.15ZM50.09 51.46C51.36 51.4 52.31 51.92 52.92 53.02C53 54.68 52.18 55.59 50.48 55.76C48.8 55.59 47.23 55.06 45.8 54.19C47.08 53.04 48.51 52.13 50.09 51.46ZM38.96 60.83C39.39 61.09 39.68 61.48 39.84 62.01C40.25 63.15 40.55 64.32 40.72 65.52C40.6 66.95 39.85 67.79 38.47 68.06C37.18 67.79 36.49 66.98 36.42 65.62C36.93 63.85 37.78 62.25 38.96 60.83Z" fill="#FFFAF9" fill-opacity="1.000000" fill-rule="evenodd"/>
				</g>
				<g opacity="0.616000">
					<path id="Vector" d="M71.58 3.8C49.05 26.46 26.46 49.05 3.8 71.58C26.15 48.94 48.61 26.38 71.19 3.9C71.3 3.81 71.43 3.78 71.58 3.8Z" fill="#FF968E" fill-opacity="1.000000" fill-rule="evenodd"/>
				</g>
				<g opacity="0.639000">
					<path id="Vector" d="M37.98 56.15C38.22 56.4 38.16 56.59 37.79 56.73C37.8 56.52 37.86 56.32 37.98 56.15Z" fill="#FF7E74" fill-opacity="1.000000" fill-rule="evenodd"/>
				</g>
				<g opacity="0.569000">
					<path id="Vector" d="M31.93 87.2C29.91 89.42 27.83 91.44 25.68 93.26C27.64 91.1 29.73 89.08 31.93 87.2Z" fill="#FF988D" fill-opacity="1.000000" fill-rule="evenodd"/>
				</g>
			</g>
		</g>
	</g>
</svg>
