<svg width="100.000000" height="100.000000" viewBox="0 0 100 100" fill="none" xmlns="http://www.w3.org/2000/svg" xmlns:xlink="http://www.w3.org/1999/xlink">
	<desc>
			Created with Pixso.
	</desc>
	<defs>
		<clipPath id="clip6_46140">
			<rect id="icon8_new.svg" width="100.000000" height="100.000000" fill="white" fill-opacity="0"/>
		</clipPath>
		<clipPath id="clip6_46141">
			<rect id="icon8_new.svg fill" width="100.000000" height="100.000000" fill="white" fill-opacity="0"/>
		</clipPath>
		<clipPath id="clip6_46142">
			<rect id="Card_Icons" width="100.000000" height="100.000000" fill="white" fill-opacity="0"/>
		</clipPath>
	</defs>
	<g clip-path="url(#clip6_46142)">
		<g clip-path="url(#clip6_46141)">
			<g clip-path="url(#clip6_46140)">
				<g opacity="0.898000">
					<path id="Vector" d="M18.45 13.96C14.39 10.19 10.35 6.25 6.34 2.14C6.23 2.05 6.1 2.02 5.95 2.05C5.89 2.05 5.82 2.05 5.76 2.05C5.85 1.74 6.05 1.64 6.34 1.75C10.42 5.8 14.46 9.87 18.45 13.96Z" fill="#FFF1F1" fill-opacity="1.000000" fill-rule="evenodd"/>
				</g>
				<path id="Vector" d="M5.95 2.05C6.1 2.02 6.23 2.05 6.34 2.14C10.35 6.25 14.39 10.19 18.45 13.96C18.65 12.43 18.71 10.87 18.65 9.27C20.73 9.27 22.81 9.27 24.9 9.27C24.9 14.48 24.9 19.69 24.9 24.9C19.69 24.9 14.48 24.9 9.27 24.9C9.27 22.81 9.27 20.73 9.27 18.65C10.87 18.71 12.43 18.65 13.96 18.45C14.05 18.46 14.11 18.43 14.16 18.35C10.08 14.31 6.05 10.25 2.05 6.15C3.35 4.78 4.65 3.41 5.95 2.05Z" fill="#FFFDFD" fill-opacity="1.000000" fill-rule="evenodd"/>
				<path id="Vector" d="M93.84 2.05C95.22 3.48 96.58 4.92 97.94 6.34C93.95 10.44 89.91 14.51 85.83 18.55C87.4 18.65 88.96 18.68 90.52 18.65C90.52 20.73 90.52 22.81 90.52 24.9C85.31 24.9 80.11 24.9 74.9 24.9C74.9 19.69 74.9 14.48 74.9 9.27C76.98 9.27 79.06 9.27 81.15 9.27C81.08 10.87 81.15 12.43 81.34 13.96C85.41 10.19 89.44 6.25 93.45 2.14C93.57 2.05 93.7 2.02 93.84 2.05Z" fill="#FFFDFD" fill-opacity="1.000000" fill-rule="evenodd"/>
				<g opacity="0.910000">
					<path id="Vector" d="M93.84 1.85C95.27 3.18 96.67 4.55 98.04 5.95C98.18 6.14 98.14 6.27 97.94 6.34C96.58 4.92 95.22 3.48 93.84 2.05C93.84 1.98 93.84 1.92 93.84 1.85Z" fill="#FFF1F1" fill-opacity="1.000000" fill-rule="evenodd"/>
				</g>
				<g opacity="0.898000">
					<path id="Vector" d="M5.76 2.05C5.82 2.05 5.89 2.05 5.95 2.05C4.65 3.41 3.35 4.78 2.05 6.15C6.05 10.25 10.08 14.32 14.16 18.35C14.11 18.43 14.05 18.46 13.96 18.45C9.87 14.46 5.8 10.42 1.75 6.34C1.62 6.21 1.62 6.08 1.75 5.95C3.06 4.61 4.4 3.31 5.76 2.05Z" fill="#FEEDED" fill-opacity="1.000000" fill-rule="evenodd"/>
				</g>
				<g opacity="0.898000">
					<path id="Vector" d="M93.84 1.85C93.84 1.92 93.84 1.98 93.84 2.05C93.7 2.02 93.57 2.05 93.45 2.14C89.44 6.25 85.41 10.19 81.34 13.96C85.34 9.86 89.38 5.8 93.45 1.75C93.63 1.62 93.77 1.65 93.84 1.85Z" fill="#FEEAEA" fill-opacity="1.000000" fill-rule="evenodd"/>
				</g>
				<path id="Vector" d="M28.02 28.02C42.61 28.02 57.19 28.02 71.77 28.02C71.77 42.61 71.77 57.19 71.77 71.77C57.19 71.77 42.61 71.77 28.02 71.77C28.02 57.19 28.02 42.61 28.02 28.02ZM34.27 34.27C44.69 34.27 55.11 34.27 65.52 34.27C65.52 44.69 65.52 55.11 65.52 65.52C55.11 65.52 44.69 65.52 34.27 65.52C34.27 55.11 34.27 44.69 34.27 34.27Z" fill="#FEFEFD" fill-opacity="1.000000" fill-rule="evenodd"/>
				<path id="Vector" d="M6.34 97.94C4.85 96.59 3.42 95.15 2.05 93.65C6.05 89.55 10.08 85.48 14.16 81.44C14.11 81.36 14.05 81.33 13.96 81.34C12.43 81.15 10.87 81.08 9.27 81.15C9.27 79.06 9.27 76.98 9.27 74.9C14.48 74.9 19.69 74.9 24.9 74.9C24.9 80.11 24.9 85.31 24.9 90.52C22.81 90.52 20.73 90.52 18.65 90.52C18.68 88.96 18.65 87.4 18.55 85.83C14.51 89.91 10.44 93.95 6.34 97.94Z" fill="#FFFDFD" fill-opacity="1.000000" fill-rule="evenodd"/>
				<path id="Vector" d="M74.9 74.9C80.11 74.9 85.31 74.9 90.52 74.9C90.52 76.98 90.52 79.06 90.52 81.15C88.96 81.11 87.4 81.15 85.83 81.25C89.9 85.31 93.97 89.38 98.04 93.45C98.17 93.58 98.17 93.71 98.04 93.84C96.61 95.31 95.14 96.74 93.65 98.14C89.48 94.07 85.35 89.97 81.25 85.83C81.15 87.4 81.12 88.96 81.15 90.52C79.06 90.52 76.98 90.52 74.9 90.52C74.9 85.31 74.9 80.11 74.9 74.9Z" fill="#FFFDFD" fill-opacity="1.000000" fill-rule="evenodd"/>
				<g opacity="0.898000">
					<path id="Vector" d="M13.96 81.34C14.05 81.33 14.11 81.36 14.16 81.44C10.08 85.48 6.05 89.55 2.05 93.65C3.42 95.15 4.85 96.59 6.34 97.94C6.27 98.14 6.13 98.18 5.95 98.04C4.48 96.61 3.05 95.14 1.66 93.65C5.7 89.48 9.8 85.37 13.96 81.34Z" fill="#FEEBEB" fill-opacity="1.000000" fill-rule="evenodd"/>
				</g>
			</g>
		</g>
	</g>
</svg>
