<svg width="100.000000" height="100.000000" viewBox="0 0 100 100" fill="none" xmlns="http://www.w3.org/2000/svg" xmlns:xlink="http://www.w3.org/1999/xlink">
	<desc>
			Created with Pixso.
	</desc>
	<defs>
		<clipPath id="clip6_46108">
			<rect id="icon7_new7.svg" width="100.000000" height="100.000000" fill="white" fill-opacity="0"/>
		</clipPath>
		<clipPath id="clip6_46107">
			<rect id="icon7_new7.svg fill" width="100.000000" height="100.000000" fill="white" fill-opacity="0"/>
		</clipPath>
		<clipPath id="clip6_46106">
			<rect id="Icon=icon7" width="100.000000" height="100.000000" fill="white" fill-opacity="0"/>
		</clipPath>
	</defs>
	<g clip-path="url(#clip6_46106)">
		<g clip-path="url(#clip6_46107)">
			<g clip-path="url(#clip6_46108)">
				<g opacity="0.900000">
					<path id="Vector" d="M60.74 0L67.18 0.19L60.74 0.19L60.74 0ZM30.85 0.19L33.59 0.39L30.85 0.39L30.85 0.19ZM38.47 3.32L44.92 3.51L38.47 3.51L38.47 3.32ZM61.91 6.64L66.6 6.83L61.91 6.83L61.91 6.64ZM33 6.83L34.76 7.03L33 7.03L33 6.83ZM39.64 9.96L46.09 10.15L39.64 10.15L39.64 9.96ZM48.63 21.67L49.02 21.87L48.63 21.87L48.63 21.67ZM51.17 21.67L51.56 21.87L51.17 21.87L51.17 21.67ZM99.8 30.66L99.8 33.59L99.6 33.59L99.8 30.66ZM93.16 32.81L93.16 34.76L92.96 34.76L93.16 32.81ZM0.19 33L0.19 39.06L0 39.06L0.19 33ZM6.83 33.39L6.83 37.89L6.64 37.89L6.83 33.39ZM96.67 38.47L96.67 44.53L96.48 44.53L96.67 38.47ZM90.03 39.64L90.03 45.7L89.84 45.7L90.03 39.64ZM66.79 40.23L66.79 40.82L66.6 40.82L66.79 40.23ZM33.39 40.42L33.39 41.01L33.2 41.01L33.39 40.42ZM18.35 50.19L18.35 51.56L18.16 51.56L18.35 50.19ZM81.83 50.19L81.83 51.36L81.64 51.36L81.83 50.19ZM21.87 50.58L21.87 51.17L21.67 51.17L21.87 50.58ZM78.32 50.58L78.32 51.17L78.12 51.17L78.32 50.58ZM10.15 54.49L10.15 60.54L9.96 60.54L10.15 54.49ZM3.51 55.66L3.51 61.71L3.32 61.71L3.51 55.66ZM100 61.13L100 67.18L99.8 67.18L100 61.13ZM80.27 62.1L80.66 62.3L80.27 62.3L80.27 62.1ZM93.35 62.3L93.35 66.6L93.16 66.6L93.35 62.3ZM7.03 65.42L7.03 67.18L6.83 67.18L7.03 65.42ZM0.39 66.6L0.39 69.33L0.19 69.33L0.39 66.6ZM100 68.35L100 68.94L99.8 68.94L100 68.35ZM54.1 89.84L60.54 90.03L54.1 90.03L54.1 89.84ZM65.42 92.96L67.18 93.16L65.42 93.16L65.42 92.96ZM33.59 93.16L38.28 93.35L33.59 93.35L33.59 93.16ZM55.27 96.48L61.71 96.67L55.27 96.67L55.27 96.48ZM66.6 99.6L69.33 99.8L66.6 99.8L66.6 99.6ZM33 99.8L39.45 100L33 100L33 99.8Z" fill="#FFFEFE" fill-opacity="1.000000" fill-rule="nonzero"/>
					<path id="Vector" d="M67.18 0.19L60.74 0.19L60.74 0L67.18 0.19ZM33.59 0.39L30.85 0.39L30.85 0.19L33.59 0.39ZM71.67 1.17L75.97 5.66M44.92 3.51L38.47 3.51L38.47 3.32L44.92 3.51ZM69.72 3.71L75 9.17M66.6 6.83L61.91 6.83L61.91 6.64L66.6 6.83ZM34.76 7.03L33 7.03L33 6.83L34.76 7.03ZM22.46 7.03L16.21 13.47M68.55 7.42L73.43 12.5M25.97 8L19.72 14.45M29.49 9.37L23.04 16.01M46.09 10.15L39.64 10.15L39.64 9.96L46.09 10.15ZM66.6 9.96L72.46 16.01M33 10.35L26.75 16.79M86.52 15.82L92.77 22.26M85.54 19.33L91.79 25.78M49.02 21.87L48.63 21.87L48.63 21.67L49.02 21.87ZM51.56 21.87L51.17 21.87L51.17 21.67L51.56 21.87ZM83.98 22.65L90.42 29.29M5.85 23.82L1.36 28.51M9.37 24.8L3.9 30.46M38.08 25.78L37.89 26.17M12.69 26.36L7.61 31.64M83.2 26.36L89.64 33M36.91 26.75L35.35 28.51M63.67 26.95L64.84 28.32M16.21 27.34L10.15 33.59M59.57 27.73L59.76 28.12M60.35 28.32L60.54 28.71M39.06 29.1L37.69 30.66M65.62 29.1L65.82 29.49M34.57 29.29L34.37 29.68M61.52 29.29L62.3 30.27M66.21 29.88L66.4 30.27M99.8 33.59L99.6 33.59L99.8 30.66L99.8 33.59ZM93.16 34.76L92.96 34.76L93.16 32.81L93.16 34.76ZM0.19 39.06L0 39.06L0.19 33L0.19 39.06ZM6.83 37.89L6.64 37.89L6.83 33.39L6.83 37.89ZM55.07 34.96L55.27 35.35M43.75 36.52L43.55 36.91M96.67 44.53L96.48 44.53L96.67 38.47L96.67 44.53ZM19.53 38.67L19.33 39.06M21.48 38.67L21.87 39.25M80.66 38.67L80.85 39.06M90.03 45.7L89.84 45.7L90.03 39.64L90.03 45.7ZM66.79 40.82L66.6 40.82L66.79 40.23L66.79 40.82ZM33.39 41.01L33.2 41.01L33.39 40.42L33.39 41.01ZM21.28 41.6L21.09 41.99M78.9 41.6L79.1 41.99M18.35 51.56L18.16 51.56L18.35 50.19L18.35 51.56ZM81.83 51.36L81.64 51.36L81.83 50.19L81.83 51.36ZM21.87 51.17L21.67 51.17L21.87 50.58L21.87 51.17ZM78.32 51.17L78.12 51.17L78.32 50.58L78.32 51.17ZM10.15 60.54L9.96 60.54L10.15 54.49L10.15 60.54ZM3.51 61.71L3.32 61.71L3.51 55.66L3.51 61.71ZM100 67.18L99.8 67.18L100 61.13L100 67.18ZM18.35 61.32L18.55 61.71M81.83 61.32L81.64 61.71M80.66 62.3L80.27 62.3L80.27 62.1L80.66 62.3ZM93.35 66.6L93.16 66.6L93.35 62.3L93.35 66.6ZM7.03 67.18L6.83 67.18L7.03 65.42L7.03 67.18ZM90.03 66.4L83.98 72.65M0.39 69.33L0.19 69.33L0.39 66.6L0.39 69.33ZM10.54 66.99L16.79 73.43M92.57 68.35L87.69 73.43M100 68.94L99.8 68.94L100 68.35L100 68.94ZM96.28 69.53L90.82 75.19M9.57 70.5L15.82 76.95M98.63 71.67L94.53 75.97M8 73.82L14.45 80.46M44.14 73.82L43.94 74.21M69.14 73.82L68.94 74.21M7.03 77.34L13.28 83.78M73.82 82.81L67.38 89.45M27.34 83.59L33.59 90.03M77.14 83.98L70.89 90.42M80.66 85.35L74.21 91.99M84.17 86.32L77.92 92.77M26.56 87.3L31.44 92.38M60.54 90.03L54.1 90.03L54.1 89.84L60.54 90.03ZM24.8 90.42L30.46 96.28M67.18 93.16L65.42 93.16L65.42 92.96L67.18 93.16ZM38.28 93.35L33.59 93.35L33.59 93.16L38.28 93.35ZM24.02 94.14L28.32 98.63M61.71 96.67L55.27 96.67L55.27 96.48L61.71 96.67ZM69.33 99.8L66.6 99.8L66.6 99.6L69.33 99.8ZM39.45 100L33 100L33 99.8L39.45 100Z" stroke="#FFFEFE" stroke-opacity="1.000000" stroke-width="0.195312"/>
				</g>
				<path id="Vector" d="M67.38 0L69.72 0.19L71.28 0.97L98.63 28.12L99.6 30.07L99.6 33.59L99.8 33.78L99.8 67.18C100.06 67.31 100.13 67.7 100 68.35C99.73 68.48 99.67 68.94 99.8 69.72L99.02 71.28L72.07 98.63L70.11 99.6L66.6 99.6L66.4 99.8L33 99.8C32.74 100.19 32.29 100.26 31.64 100L29.88 99.6L28.9 99.02L1.36 72.07L0.39 70.11L0.39 66.79L0.19 66.6L0.19 33.2C-0.2 32.94 -0.27 32.42 0 31.64L0.39 29.88L0.97 28.9L28.12 1.36L30.07 0.39L33.59 0.39L33.78 0.19L67.18 0.19L67.38 0ZM38.47 3.32L38.28 3.51L30.66 3.51L30.27 3.71L3.32 31.05L3.32 61.71L3.51 61.91L3.51 69.53L3.71 69.92L31.05 96.67L61.71 96.67L61.91 96.48L69.53 96.48L69.92 96.28L96.67 69.14L96.67 38.67L96.48 38.47L96.48 30.66L96.28 30.27L69.14 3.32L38.47 3.32Z" fill="#FFFEFE" fill-opacity="1.000000" fill-rule="nonzero"/>
				<path id="Vector" d="M69.72 0.19L71.28 0.97L98.63 28.12L99.6 30.07L99.6 33.59L99.8 33.78L99.8 67.18C100.06 67.31 100.13 67.7 100 68.35C99.73 68.48 99.67 68.94 99.8 69.72L99.02 71.28L72.07 98.63L70.11 99.6L66.6 99.6L66.4 99.8L33 99.8C32.74 100.19 32.29 100.26 31.64 100L29.88 99.6L28.9 99.02L1.36 72.07L0.39 70.11L0.39 66.79L0.19 66.6L0.19 33.2C-0.2 32.94 -0.27 32.42 0 31.64L0.39 29.88L0.97 28.9L28.12 1.36L30.07 0.39L33.59 0.39L33.78 0.19L67.18 0.19L67.38 0L69.72 0.19ZM38.28 3.51L30.66 3.51L30.27 3.71L3.32 31.05L3.32 61.71L3.51 61.91L3.51 69.53L3.71 69.92L31.05 96.67L61.71 96.67L61.91 96.48L69.53 96.48L69.92 96.28L96.67 69.14L96.67 38.67L96.48 38.47L96.48 30.66L96.28 30.27L69.14 3.32L38.47 3.32L38.28 3.51Z" stroke="#FFFEFE" stroke-opacity="1.000000" stroke-width="0.195312"/>
				<path id="Vector" d="M34.96 6.83L67.38 6.83L68.16 7.22L73.63 12.5L92.38 31.25L92.96 32.42L92.96 34.76L93.16 34.96L93.16 67.38L92.77 68.16L87.5 73.63L68.94 92.38L67.77 92.96L65.42 92.96L65.23 93.16L32.81 93.16L32.03 92.77L26.36 87.3L7.61 68.94L7.03 67.77L7.03 65.62L6.83 65.42L6.83 32.81L7.22 32.03L12.69 26.36L31.25 7.61L32.42 7.03L34.76 7.03L34.96 6.83ZM39.64 9.96L39.45 10.15L33.2 10.15L9.96 33.59L9.96 60.54L10.15 60.74L10.15 66.99L33.59 90.03L60.54 90.03L60.74 89.84L66.99 89.84L90.03 66.6L90.03 39.84L89.84 39.64L89.84 33.2L66.6 9.96L39.64 9.96Z" fill="#FFFEFE" fill-opacity="1.000000" fill-rule="nonzero"/>
				<path id="Vector" d="M67.38 6.83L68.16 7.22L73.63 12.5L92.38 31.25L92.96 32.42L92.96 34.76L93.16 34.96L93.16 67.38L92.77 68.16L87.5 73.63L68.94 92.38L67.77 92.96L65.42 92.96L65.23 93.16L32.81 93.16L32.03 92.77L26.36 87.3L7.61 68.94L7.03 67.77L7.03 65.62L6.83 65.42L6.83 32.81L7.22 32.03L12.69 26.36L31.25 7.61L32.42 7.03L34.76 7.03L34.96 6.83L67.38 6.83ZM39.45 10.15L33.2 10.15L9.96 33.59L9.96 60.54L10.15 60.74L10.15 66.99L33.59 90.03L60.54 90.03L60.74 89.84L66.99 89.84L90.03 66.6L90.03 39.84L89.84 39.64L89.84 33.2L66.6 9.96L39.64 9.96L39.45 10.15Z" stroke="#FFFEFE" stroke-opacity="1.000000" stroke-width="0.195312"/>
				<path id="Vector" d="M49.21 21.67L54.1 22.07L57.81 23.24C60.93 24.67 63.47 26.62 65.42 29.1C66.73 30.53 67.77 32.29 68.55 34.37L69.53 37.5L69.72 39.84L69.92 40.03L69.92 72.46C69.66 73.24 69.2 73.89 68.55 74.41L66.79 75L58.39 75L56.64 74.41L55.66 73.63L55.07 72.46L55.07 40.82C54.68 39.38 54.03 38.28 53.12 37.5C52.21 36.84 51.04 36.52 49.6 36.52C47.91 36.78 46.67 37.56 45.89 38.86L44.92 41.21L44.92 72.46C44.66 73.24 44.2 73.89 43.55 74.41L41.79 75L33.39 75L31.64 74.41L30.46 73.43L30.07 72.46L30.07 40.23L30.66 36.91C31.18 34.96 31.9 33.26 32.81 31.83C34.11 29.62 35.74 27.73 37.69 26.17C39.25 24.73 41.21 23.63 43.55 22.85L46.28 22.07L49.02 21.87L49.21 21.67ZM47.85 25C44.07 25.65 41.14 27.01 39.06 29.1C37.37 30.53 36 32.29 34.96 34.37L33.78 37.5L33.2 40.62L33.2 63.47L41.79 63.47L41.79 40.82C42.05 38.99 42.7 37.56 43.75 36.52C44.92 34.83 46.74 33.78 49.21 33.39L52.14 33.59C53.45 33.98 54.55 34.57 55.46 35.35C56.9 36.52 57.81 38.21 58.2 40.42L58.2 63.47L66.79 63.47L66.79 40.42L66.01 36.52L65.23 34.57L62.3 30.27C60.61 28.45 58.59 27.01 56.25 25.97L52.53 25L47.85 25ZM33.2 66.6L33.2 71.67L41.79 71.67L41.79 66.6L33.2 66.6ZM58.2 66.6L58.2 71.67L66.79 71.67L66.79 66.6L58.2 66.6ZM20.11 38.47L21.09 38.47L21.87 39.45L22.07 40.23L19.33 44.92L18.35 48.24L18.16 51.56L18.35 51.75L18.35 53.51L18.75 55.27C19.27 57.22 20.11 58.91 21.28 60.35L21.28 61.13L20.5 62.1L19.72 62.3L18.55 61.91C17.38 60.35 16.47 58.52 15.82 56.44L15.03 52.34L15.03 49.6L15.23 49.41L15.23 48.04L15.62 46.09L16.4 43.75C17.18 41.79 18.29 40.1 19.72 38.67L20.11 38.47ZM79.1 38.47L80.27 38.47L81.25 39.64C82.55 41.21 83.52 43.16 84.17 45.5L84.96 49.6L84.96 52.14L84.76 52.34L84.57 54.88L83.78 57.61L81.44 61.91C81.18 62.17 80.66 62.23 79.88 62.1L78.9 61.52L78.71 60.54C79.75 58.98 80.59 57.22 81.25 55.27L81.64 53.51L81.83 50.39L81.64 50.19L81.44 47.46L80.66 44.92C80.01 43.22 79.16 41.86 78.12 40.82L77.92 39.84L78.71 38.67L79.1 38.47Z" fill="#FFFEFE" fill-opacity="1.000000" fill-rule="nonzero"/>
				<path id="Vector" d="M54.1 22.07L57.81 23.24C60.93 24.67 63.47 26.62 65.42 29.1C66.73 30.53 67.77 32.29 68.55 34.37L69.53 37.5L69.72 39.84L69.92 40.03L69.92 72.46C69.66 73.24 69.2 73.89 68.55 74.41L66.79 75L58.39 75L56.64 74.41L55.66 73.63L55.07 72.46L55.07 40.82C54.68 39.38 54.03 38.28 53.12 37.5C52.21 36.84 51.04 36.52 49.6 36.52C47.91 36.78 46.67 37.56 45.89 38.86L44.92 41.21L44.92 72.46C44.66 73.24 44.2 73.89 43.55 74.41L41.79 75L33.39 75L31.64 74.41L30.46 73.43L30.07 72.46L30.07 40.23L30.66 36.91C31.18 34.96 31.9 33.26 32.81 31.83C34.11 29.62 35.74 27.73 37.69 26.17C39.25 24.73 41.21 23.63 43.55 22.85L46.28 22.07L49.02 21.87L49.21 21.67L54.1 22.07ZM39.06 29.1C37.37 30.53 36 32.29 34.96 34.37L33.78 37.5L33.2 40.62L33.2 63.47L41.79 63.47L41.79 40.82C42.05 38.99 42.7 37.56 43.75 36.52C44.92 34.83 46.74 33.78 49.21 33.39L52.14 33.59C53.45 33.98 54.55 34.57 55.46 35.35C56.9 36.52 57.81 38.21 58.2 40.42L58.2 63.47L66.79 63.47L66.79 40.42L66.01 36.52L65.23 34.57L62.3 30.27C60.61 28.45 58.59 27.01 56.25 25.97L52.53 25L47.85 25C44.07 25.65 41.14 27.01 39.06 29.1ZM33.2 71.67L41.79 71.67L41.79 66.6L33.2 66.6L33.2 71.67ZM58.2 71.67L66.79 71.67L66.79 66.6L58.2 66.6L58.2 71.67ZM21.09 38.47L21.87 39.45L22.07 40.23L19.33 44.92L18.35 48.24L18.16 51.56L18.35 51.75L18.35 53.51L18.75 55.27C19.27 57.22 20.11 58.91 21.28 60.35L21.28 61.13L20.5 62.1L19.72 62.3L18.55 61.91C17.38 60.35 16.47 58.52 15.82 56.44L15.03 52.34L15.03 49.6L15.23 49.41L15.23 48.04L15.62 46.09L16.4 43.75C17.18 41.79 18.29 40.1 19.72 38.67L20.11 38.47L21.09 38.47ZM80.27 38.47L81.25 39.64C82.55 41.21 83.52 43.16 84.17 45.5L84.96 49.6L84.96 52.14L84.76 52.34L84.57 54.88L83.78 57.61L81.44 61.91C81.18 62.17 80.66 62.23 79.88 62.1L78.9 61.52L78.71 60.54C79.75 58.98 80.59 57.22 81.25 55.27L81.64 53.51L81.83 50.39L81.64 50.19L81.44 47.46L80.66 44.92C80.01 43.22 79.16 41.86 78.12 40.82L77.92 39.84L78.71 38.67L79.1 38.47L80.27 38.47Z" stroke="#FFFEFE" stroke-opacity="1.000000" stroke-width="0.195312"/>
				<path id="Vector" d="M24.8 42.57C25.58 42.44 26.1 42.7 26.36 43.35L26.56 44.72C25.78 45.63 25.26 46.81 25 48.24L25 51.75C25.26 53.19 25.78 54.36 26.56 55.27L26.56 56.44L26.17 57.03L24.8 57.42L23.63 56.64L22.07 53.12L21.67 49.41L22.46 45.7L24.02 42.96L24.8 42.57ZM74.8 42.57C75.58 42.44 76.1 42.7 76.36 43.35C77.66 45.05 78.32 47.46 78.32 50.58L78.12 50.78L77.92 53.12L77.34 54.88L75.78 57.22L74.8 57.42L73.82 57.03L73.43 56.44L73.43 55.27C74.21 54.36 74.73 53.19 75 51.75L75 48.24C74.73 46.81 74.21 45.63 73.43 44.72L73.43 43.75L73.82 42.96L74.8 42.57Z" fill="#FFFEFE" fill-opacity="1.000000" fill-rule="nonzero"/>
				<path id="Vector" d="M26.36 43.35L26.56 44.72C25.78 45.63 25.26 46.81 25 48.24L25 51.75C25.26 53.19 25.78 54.36 26.56 55.27L26.56 56.44L26.17 57.03L24.8 57.42L23.63 56.64L22.07 53.12L21.67 49.41L22.46 45.7L24.02 42.96L24.8 42.57C25.58 42.44 26.1 42.7 26.36 43.35ZM76.36 43.35C77.66 45.05 78.32 47.46 78.32 50.58L78.12 50.78L77.92 53.12L77.34 54.88L75.78 57.22L74.8 57.42L73.82 57.03L73.43 56.44L73.43 55.27C74.21 54.36 74.73 53.19 75 51.75L75 48.24C74.73 46.81 74.21 45.63 73.43 44.72L73.43 43.75L73.82 42.96L74.8 42.57C75.58 42.44 76.1 42.7 76.36 43.35Z" stroke="#FFFEFE" stroke-opacity="1.000000" stroke-width="0.195312"/>
				<g opacity="0.700000">
					<path id="Vector" d="M49.6 0L60.54 0.19L49.6 0.19L49.6 0ZM45.11 3.32L56.05 3.51L45.11 3.51L45.11 3.32ZM50.78 6.64L61.71 6.83L50.78 6.83L50.78 6.64ZM46.28 9.96L57.42 10.15L46.28 10.15L46.28 9.96ZM48.04 21.67L48.43 21.87L48.04 21.87L48.04 21.67ZM51.75 21.67L52.14 21.87L51.75 21.87L51.75 21.67ZM48.04 25L48.43 25.19L48.04 25.19L48.04 25ZM51.95 25L52.34 25.19L51.95 25.19L51.95 25ZM50 36.52L50.39 36.71L50 36.71L50 36.52ZM6.83 37.89L6.83 49.41L6.64 49.41L6.83 37.89ZM20.31 38.28L20.7 38.47L20.31 38.47L20.31 38.28ZM79.29 38.28L79.88 38.47L79.29 38.47L79.29 38.28ZM69.92 38.86L69.92 39.45L69.72 39.45L69.92 38.86ZM0.19 39.06L0.19 50.58L0 50.58L0.19 39.06ZM30.27 39.25L30.27 39.84L30.07 39.84L30.27 39.25ZM55.07 40.82L55.07 41.4L54.88 41.4L55.07 40.82ZM58.39 40.82L58.39 63.28L66.6 63.28L66.6 41.01L66.79 41.01L66.79 63.28L66.6 63.47L58.59 63.47L58.2 63.28L58.39 40.82ZM33.39 41.01L33.39 63.28L41.6 63.28L41.6 41.4L41.79 41.4L41.79 63.28L41.6 63.47L33.59 63.47L33.2 63.28L33.39 41.01ZM45.11 41.21L45.11 41.99L44.92 41.99L45.11 41.21ZM10.15 42.77L10.15 54.49L9.96 54.49L10.15 42.77ZM3.51 43.94L3.51 55.66L3.32 55.66L3.51 43.94ZM96.67 44.53L96.67 56.05L96.48 56.05L96.67 44.53ZM90.03 45.7L90.03 57.42L89.84 57.42L90.03 45.7ZM21.87 48.24L21.87 48.82L21.67 48.82L21.87 48.24ZM78.32 48.24L78.32 48.82L78.12 48.82L78.32 48.24ZM15.23 48.43L15.23 49.02L15.03 49.02L15.23 48.43ZM18.55 48.43L18.55 49.02L18.35 49.02L18.55 48.43ZM81.64 48.43L81.64 49.02L81.44 49.02L81.64 48.43ZM84.96 48.43L84.96 49.02L84.76 49.02L84.96 48.43ZM100 49.41L100 61.13L99.8 61.13L100 49.41ZM93.35 50.78L93.35 62.3L93.16 62.3L93.35 50.78ZM21.87 51.17L21.87 51.75L21.67 51.75L21.87 51.17ZM78.32 51.17L78.32 51.75L78.12 51.75L78.32 51.17ZM84.96 52.53L84.96 53.32L84.76 53.32L84.96 52.53ZM15.23 52.73L15.23 53.32L15.03 53.32L15.23 52.73ZM18.55 52.73L18.55 53.32L18.35 53.32L18.55 52.73ZM81.64 52.73L81.64 53.32L81.44 53.32L81.64 52.73ZM26.75 55.46L26.75 56.25L26.56 56.25L26.75 55.46ZM73.43 55.46L73.43 56.25L73.24 56.25L73.43 55.46ZM33.39 66.6L33.39 71.67L33.2 71.67L33.39 66.6ZM58.39 66.6L58.39 71.67L58.2 71.67L58.39 66.6ZM66.79 66.6L66.79 71.67L66.6 71.67L66.79 66.6ZM41.79 66.79L41.79 71.67L41.6 71.67L41.79 66.79ZM42.77 89.84L53.9 90.03L42.77 90.03L42.77 89.84ZM38.47 93.16L49.6 93.35L38.47 93.35L38.47 93.16ZM44.14 96.48L55.07 96.67L44.14 96.67L44.14 96.48ZM39.64 99.8L50.58 100L39.64 100L39.64 99.8Z" fill="#FFFDFD" fill-opacity="1.000000" fill-rule="nonzero"/>
					<path id="Vector" d="M60.54 0.19L49.6 0.19L49.6 0L60.54 0.19ZM27.73 1.56L25.97 3.51M56.05 3.51L45.11 3.51L45.11 3.32L56.05 3.51ZM30.27 3.71L26.17 8M61.71 6.83L50.78 6.83L50.78 6.64L61.71 6.83ZM75.19 9.17L81.83 16.01M79.88 9.17L86.32 15.82M57.42 10.15L46.28 10.15L46.28 9.96L57.42 10.15ZM16.01 13.47L9.37 20.31M22.85 16.01L16.21 22.85M72.65 16.01L79.29 22.85M77.34 16.01L83.78 22.65M16.21 17.96L9.57 24.8M23.24 20.31L16.4 27.34M48.43 21.87L48.04 21.87L48.04 21.67L48.43 21.87ZM52.14 21.87L51.75 21.87L51.75 21.67L52.14 21.87ZM48.43 25.19L48.04 25.19L48.04 25L48.43 25.19ZM52.34 25.19L51.95 25.19L51.95 25L52.34 25.19ZM62.1 25.58L62.3 25.97M91.99 25.78L96.28 30.27M96.67 25.78L98.63 27.92M37.5 26.17L37.1 26.75M63.08 26.36L63.47 26.95M40.62 27.92L40.42 28.32M65.03 28.32L65.23 28.71M35.15 28.51L34.76 29.1M39.84 28.51L39.64 28.9M60.74 28.71L60.93 29.1M33.78 30.27L33.59 30.66M62.89 30.85L63.08 31.25M37.3 31.05L37.1 31.44M63.47 31.64L63.67 32.03M36.71 31.83L36.52 32.22M45.7 34.57L45.5 34.96M44.72 35.35L43.94 36.32M55.85 35.54L56.25 36.13M50.39 36.71L50 36.71L50 36.52L50.39 36.71ZM47.26 37.5L46.28 38.67M53.32 37.69L53.9 38.47M6.83 49.41L6.64 49.41L6.83 37.89L6.83 49.41ZM20.7 38.47L20.31 38.47L20.31 38.28L20.7 38.47ZM79.88 38.47L79.29 38.47L79.29 38.28L79.88 38.47ZM69.92 39.45L69.72 39.45L69.92 38.86L69.92 39.45ZM0.19 50.58L0 50.58L0.19 39.06L0.19 50.58ZM19.14 39.06L18.94 39.45M81.05 39.06L81.25 39.45M30.27 39.84L30.07 39.84L30.27 39.25L30.27 39.84ZM55.07 41.4L54.88 41.4L55.07 40.82L55.07 41.4ZM58.39 63.28L66.6 63.28L66.6 41.01L66.79 41.01L66.79 63.28L66.6 63.47L58.59 63.47L58.2 63.28L58.39 40.82L58.39 63.28ZM33.39 63.28L41.6 63.28L41.6 41.4L41.79 41.4L41.79 63.28L41.6 63.47L33.59 63.47L33.2 63.28L33.39 41.01L33.39 63.28ZM45.11 41.99L44.92 41.99L45.11 41.21L45.11 41.99ZM10.15 54.49L9.96 54.49L10.15 42.77L10.15 54.49ZM3.51 55.66L3.32 55.66L3.51 43.94L3.51 55.66ZM96.67 56.05L96.48 56.05L96.67 44.53L96.67 56.05ZM90.03 57.42L89.84 57.42L90.03 45.7L90.03 57.42ZM21.87 48.82L21.67 48.82L21.87 48.24L21.87 48.82ZM78.32 48.82L78.12 48.82L78.32 48.24L78.32 48.82ZM15.23 49.02L15.03 49.02L15.23 48.43L15.23 49.02ZM18.55 49.02L18.35 49.02L18.55 48.43L18.55 49.02ZM81.64 49.02L81.44 49.02L81.64 48.43L81.64 49.02ZM84.96 49.02L84.76 49.02L84.96 48.43L84.96 49.02ZM100 61.13L99.8 61.13L100 49.41L100 61.13ZM93.35 62.3L93.16 62.3L93.35 50.78L93.35 62.3ZM21.87 51.75L21.67 51.75L21.87 51.17L21.87 51.75ZM78.32 51.75L78.12 51.75L78.32 51.17L78.32 51.75ZM84.96 53.32L84.76 53.32L84.96 52.53L84.96 53.32ZM15.23 53.32L15.03 53.32L15.23 52.73L15.23 53.32ZM18.55 53.32L18.35 53.32L18.55 52.73L18.55 53.32ZM81.64 53.32L81.44 53.32L81.64 52.73L81.64 53.32ZM26.75 56.25L26.56 56.25L26.75 55.46L26.75 56.25ZM73.43 56.25L73.24 56.25L73.43 55.46L73.43 56.25ZM21.09 61.52L20.7 62.1M79.1 61.52L79.29 61.91M33.39 71.67L33.2 71.67L33.39 66.6L33.39 71.67ZM58.39 71.67L58.2 71.67L58.39 66.6L58.39 71.67ZM66.79 71.67L66.6 71.67L66.79 66.6L66.79 71.67ZM41.79 71.67L41.6 71.67L41.79 66.79L41.79 71.67ZM3.9 69.72L7.81 73.82M99.02 71.28L98.82 71.67M1.75 72.26L3.32 74.02M83.78 72.65L77.34 79.29M30.66 73.43L30.85 73.82M44.53 73.43L44.33 73.82M55.66 73.43L55.85 73.82M69.53 73.43L69.33 73.82M31.25 74.02L31.44 74.41M56.25 74.02L56.44 74.41M90.62 75.19L84.17 81.83M20.5 76.75L27.14 83.59M16.01 76.95L22.65 83.78M83.98 77.14L77.34 83.98M91.01 79.49L84.37 86.32M13.47 83.78L20.11 90.62M18.16 83.78L24.6 90.42M67.18 89.45L66.99 89.84M53.9 90.03L42.77 90.03L42.77 89.84L53.9 90.03ZM74.02 91.99L69.92 96.28M31.64 92.38L31.83 92.77M49.6 93.35L38.47 93.35L38.47 93.16L49.6 93.35ZM55.07 96.67L44.14 96.67L44.14 96.48L55.07 96.67ZM74.21 96.48L72.26 98.63M28.51 98.63L28.71 99.02M50.58 100L39.64 100L39.64 99.8L50.58 100Z" stroke="#FFFDFD" stroke-opacity="1.000000" stroke-width="0.195312"/>
				</g>
				<g opacity="0.200000">
					<path id="Vector" d="M35.93 0L49.41 0.19L35.93 0.19L35.93 0ZM29.29 0.39L29.49 0.58L28.71 0.97L28.9 0.58L29.29 0.39ZM56.25 3.32L68.75 3.51L56.25 3.51L56.25 3.32ZM30.85 3.51L36.13 3.71L30.85 3.71L30.85 3.51ZM37.1 6.64L50.58 6.83L37.1 6.83L37.1 6.64ZM67.77 6.83L68.16 7.22L67.96 7.03L67.77 6.83ZM57.61 9.96L66.4 9.96L77.14 20.89L66.4 10.15L57.61 10.15L57.61 9.96ZM33.39 10.15L37.3 10.35L33.39 10.35L23.43 20.31L33.39 10.15ZM49.41 21.48L50.78 21.67L49.41 21.67L49.41 21.48ZM47.46 21.67L47.85 21.87L47.46 21.87L47.46 21.67ZM52.34 21.67L52.92 21.87L52.34 21.87L52.34 21.67ZM46.28 21.87L46.67 22.07L46.28 22.07L46.28 21.87ZM53.71 21.87L54.1 22.07L53.71 22.07L53.71 21.87ZM20.89 22.85L10.15 33.78L10.15 42.77L9.96 33.78L20.89 22.85ZM79.49 22.85L89.84 33.39L89.84 38.28L89.64 38.28L89.64 33.39L79.49 22.85ZM41.99 23.24L42.18 23.43L40.23 24.41L40.42 24.02L41.99 23.24ZM58.2 23.24L59.76 24.21L59.57 24.02L58.2 23.43L58.2 23.24ZM39.84 24.41L39.64 24.8L38.47 25.58L38.86 25L39.84 24.41ZM61.13 24.8L61.91 25.58L61.52 25.19L61.13 24.8ZM48.63 25L49.6 25.19L48.63 25.19L48.63 25ZM50.78 25L51.75 25.19L50.78 25.19L50.78 25ZM47.26 25.19L47.65 25.39L47.26 25.39L47.26 25.19ZM52.73 25.19L53.12 25.39L52.73 25.39L52.73 25.19ZM41.4 27.53L41.21 27.92L40.62 28.32L41.01 27.73L41.4 27.53ZM58.98 27.53L59.76 28.32L59.37 27.92L58.98 27.53ZM99.21 28.51L99.6 29.49L99.41 29.49L99.21 28.51ZM99.8 29.68L99.8 30.27L99.6 30.27L99.8 29.68ZM96.48 30.66L96.48 37.1L96.28 37.1L96.48 30.66ZM3.51 31.25L3.51 43.94L3.32 43.94L3.51 31.25ZM32.81 31.64L32.61 32.03L32.42 32.42L32.42 32.22L32.81 31.64ZM7.22 31.83L7.03 32.22L7.03 32.42L6.83 32.22L7.22 31.83ZM64.06 32.61L64.45 33.39L64.06 33.2L64.06 32.61ZM36.13 32.81L35.93 33.2L35.74 33.59L35.74 33.39L36.13 32.81ZM49.21 33.2L50.97 33.39L49.21 33.39L49.21 33.2ZM31.83 33.39L31.83 33.78L31.64 34.17L31.44 33.98L31.83 33.39ZM100 34.96L100 49.41L99.8 49.41L100 34.96ZM93.35 36.13L93.35 50.78L93.16 50.78L93.35 36.13ZM49.02 36.71L49.41 36.91L49.02 36.91L49.02 36.71ZM48.04 37.1L47.85 37.5L47.26 37.89L47.65 37.3L48.04 37.1ZM30.46 37.5L30.46 38.08L30.27 38.08L30.46 37.5ZM66.4 38.28L66.4 38.86L66.21 38.86L66.4 38.28ZM69.92 38.28L69.92 38.86L69.72 38.86L69.92 38.28ZM21.48 38.47L22.07 39.45L21.87 39.45L21.48 38.47ZM33.78 38.47L33.78 39.06L33.59 39.06L33.78 38.47ZM30.27 38.67L30.27 39.25L30.07 39.25L30.27 38.67ZM18.75 39.45L18.35 40.03L17.77 41.01L17.77 40.82L18.75 39.45ZM66.6 39.45L66.6 40.23L66.4 40.23L66.6 39.45ZM81.44 39.45L82.42 41.01L82.03 40.82L81.44 39.45ZM22.26 39.64L22.26 40.23L22.07 40.23L22.26 39.64ZM33.59 39.64L33.59 40.42L33.39 40.42L33.59 39.64ZM77.92 39.64L77.92 40.42L77.73 40.42L77.92 39.64ZM70.11 39.84L70.11 72.46L69.92 72.46L70.11 39.84ZM30.07 40.03L30.07 72.46L29.88 72.46L30.07 40.03ZM58.39 40.23L58.39 40.82L58.2 40.82L58.39 40.23ZM41.79 40.62L41.79 41.21L41.6 41.21L41.79 40.62ZM78.12 40.62L78.51 41.4L77.92 41.01L78.12 40.62ZM55.07 41.4L55.07 72.46L54.88 72.46L55.07 41.4ZM17.38 41.6L17.18 41.99L16.79 42.96L16.6 42.77L17.38 41.6ZM78.71 41.6L79.29 42.57L78.9 42.38L78.71 41.6ZM82.81 41.6L83.39 42.96L83.2 42.96L82.81 41.6ZM45.11 41.99L45.11 72.46L44.92 72.46L45.11 41.99ZM24.6 42.38L25.58 42.57L24.6 42.57L24.6 42.38ZM74.6 42.38L75.58 42.57L74.6 42.57L74.6 42.38ZM24.21 42.57L23.43 43.55L23.24 43.94L23.24 43.75L24.21 42.57ZM75.97 42.57L76.95 43.94L76.56 43.75L75.97 42.57ZM26.75 43.55L26.75 44.14L26.56 44.14L26.75 43.55ZM73.43 43.55L73.43 44.14L73.24 44.14L73.43 43.55ZM15.42 46.67L15.42 47.26L15.23 47.26L15.42 46.67ZM84.76 46.67L84.76 47.26L84.57 47.26L84.76 46.67ZM15.23 47.65L15.23 48.43L15.03 48.43L15.23 47.65ZM18.75 47.65L18.75 48.24L18.55 48.24L18.75 47.65ZM21.87 47.65L21.87 48.24L21.67 48.24L21.87 47.65ZM78.32 47.65L78.32 48.24L78.12 48.24L78.32 47.65ZM81.44 47.65L81.44 48.24L81.25 48.24L81.44 47.65ZM84.96 47.85L84.96 48.43L84.76 48.43L84.96 47.85ZM25.19 48.63L25.19 49.8L25 49.8L25.19 48.63ZM75 48.63L75 49.8L74.8 49.8L75 48.63ZM18.55 49.02L18.55 50L18.35 50L18.55 49.02ZM81.64 49.02L81.64 50L81.44 50L81.64 49.02ZM6.83 49.41L6.83 64.06L6.64 64.06L6.83 49.41ZM15.03 49.41L15.03 52.14L14.84 52.14L15.03 49.41ZM21.67 49.41L21.67 50.58L21.48 50.58L21.67 49.41ZM78.51 49.41L78.51 50.39L78.32 50.39L78.51 49.41ZM85.15 49.6L85.15 51.95L84.96 51.95L85.15 49.6ZM25.19 50L25.19 51.17L25 51.17L25.19 50ZM75 50L75 51.17L74.8 51.17L75 50ZM0.19 50.58L0.19 65.23L0 65.23L0.19 50.58ZM81.64 51.56L81.64 52.73L81.44 52.73L81.64 51.56ZM18.55 51.75L18.55 52.73L18.35 52.73L18.55 51.75ZM21.87 51.75L21.87 52.34L21.67 52.34L21.87 51.75ZM78.32 51.75L78.32 52.34L78.12 52.34L78.32 51.75ZM15.23 53.32L15.23 53.9L15.03 53.9L15.23 53.32ZM18.75 53.32L18.75 53.9L18.55 53.9L18.75 53.32ZM81.44 53.32L81.44 53.9L81.25 53.9L81.44 53.32ZM84.96 53.32L84.96 53.9L84.76 53.9L84.96 53.32ZM25.97 53.51L26.36 54.49L25.97 54.29L25.97 53.51ZM74.21 53.51L74.21 53.9L73.82 54.49L73.82 54.29L74.21 53.51ZM84.57 55.27L84.57 55.85L84.37 55.85L84.57 55.27ZM96.67 56.05L96.67 68.75L96.48 68.75L96.67 56.05ZM23.43 56.25L24.02 57.22L23.43 56.83L23.43 56.25ZM26.75 56.25L26.75 56.64L25.78 57.42L26.75 56.25ZM76.75 56.25L76.56 56.64L76.17 57.22L76.36 56.83L76.75 56.25ZM73.63 56.64L74.41 57.42L74.21 57.42L73.63 56.64ZM24.8 57.42L25.39 57.61L24.8 57.61L24.8 57.42ZM90.03 57.42L90.03 66.4L79.1 77.14L89.84 66.4L90.03 57.42ZM20.11 57.61L20.31 58.2L19.92 58L20.11 57.61ZM20.7 58.78L21.09 59.57L20.7 59.37L20.7 58.78ZM79.49 58.78L79.29 59.17L79.1 59.57L79.1 59.37L79.49 58.78ZM21.48 60.15L21.48 61.13L21.28 61.13L21.48 60.15ZM78.71 60.15L78.71 61.13L78.51 61.13L78.71 60.15ZM17.57 60.35L17.96 61.13L17.57 60.93L17.57 60.35ZM82.61 60.35L82.42 60.74L82.22 61.13L82.22 60.93L82.61 60.35ZM18.16 61.32L19.14 62.3L18.94 62.3L18.16 61.32ZM82.03 61.32L81.25 62.3L80.85 62.3L82.03 61.32ZM10.35 61.91L10.35 66.79L20.31 76.75L10.15 66.79L10.35 61.91ZM79.49 61.91L79.88 62.3L79.68 62.3L79.49 61.91ZM3.71 63.08L3.71 69.33L3.51 69.33L3.71 63.08ZM33.59 66.6L41.6 66.79L33.59 66.79L33.59 66.6ZM58.59 66.6L66.6 66.79L58.59 66.79L58.59 66.6ZM93.16 67.57L93.16 67.96L92.77 68.16L93.16 67.57ZM0.39 69.72L0.39 70.31L0.19 70.31L0.39 69.72ZM0.58 70.5L1.56 72.26L0.78 71.67L0.58 70.5ZM33.59 71.48L41.6 71.67L33.59 71.67L33.59 71.48ZM58.59 71.48L66.6 71.67L58.59 71.67L58.59 71.48ZM31.64 74.41L32.03 74.8L31.83 74.8L31.64 74.41ZM43.55 74.41L43.35 74.8L42.96 74.8L43.55 74.41ZM56.64 74.41L57.03 74.8L56.83 74.8L56.64 74.41ZM68.55 74.41L68.35 74.8L67.96 74.8L68.55 74.41ZM22.85 78.9L33.78 89.84L42.57 90.03L33.78 90.03L22.85 78.9ZM77.14 79.29L66.79 89.84L62.69 89.84L66.79 89.64L77.14 79.29ZM32.03 92.77L32.42 93.16L32.22 93.16L32.03 92.77ZM49.8 93.16L63.08 93.35L49.8 93.35L49.8 93.16ZM64.06 96.28L69.33 96.48L64.06 96.48L64.06 96.28ZM31.44 96.48L43.94 96.67L31.44 96.67L31.44 96.48ZM71.48 99.02L71.28 99.41L70.7 99.6L70.7 99.41L71.48 99.02ZM50.78 99.8L64.25 100L50.78 100L50.78 99.8Z" fill="#FFFFFF" fill-opacity="1.000000" fill-rule="nonzero"/>
					<path id="Vector" d="M49.41 0.19L35.93 0.19L35.93 0L49.41 0.19ZM29.49 0.58L28.71 0.97L28.9 0.58L29.29 0.39L29.49 0.58ZM71.09 0.58L71.28 0.97M28.32 0.97L27.92 1.56M71.67 0.97L79.68 9.17M68.75 3.51L56.25 3.51L56.25 3.32L68.75 3.51ZM25.78 3.51L11.52 17.96M36.13 3.71L30.85 3.71L30.85 3.51L36.13 3.71ZM30.46 3.71L16.4 17.96M69.53 3.71L79.68 14.06M50.58 6.83L37.1 6.83L37.1 6.64L50.58 6.83ZM68.16 7.22L67.96 7.03L67.77 6.83L68.16 7.22ZM31.44 7.22L18.35 20.5M68.55 7.22L77.14 16.01M66.4 9.96L77.14 20.89L66.4 10.15L57.61 10.15L57.61 9.96L66.4 9.96ZM37.3 10.35L33.39 10.35L23.43 20.31L33.39 10.15L37.3 10.35ZM82.03 11.13L96.48 25.78M82.03 16.01L96.28 30.46M79.68 18.16L92.77 31.44M9.17 20.31L1.17 28.51M14.06 20.31L3.9 30.66M50.78 21.67L49.41 21.67L49.41 21.48L50.78 21.67ZM47.85 21.87L47.46 21.87L47.46 21.67L47.85 21.87ZM52.92 21.87L52.34 21.87L52.34 21.67L52.92 21.87ZM46.67 22.07L46.28 22.07L46.28 21.87L46.67 22.07ZM54.1 22.07L53.71 22.07L53.71 21.87L54.1 22.07ZM16.01 22.85L7.42 31.64M10.15 33.78L10.15 42.77L9.96 33.78L20.89 22.85L10.15 33.78ZM89.84 33.39L89.84 38.28L89.64 38.28L89.64 33.39L79.49 22.85L89.84 33.39ZM42.18 23.43L40.23 24.41L40.42 24.02L41.99 23.24L42.18 23.43ZM59.76 24.21L59.57 24.02L58.2 23.43L58.2 23.24L59.76 24.21ZM39.64 24.8L38.47 25.58L38.86 25L39.84 24.41L39.64 24.8ZM60.54 24.41L60.74 24.8M61.91 25.58L61.52 25.19L61.13 24.8L61.91 25.58ZM49.6 25.19L48.63 25.19L48.63 25L49.6 25.19ZM51.75 25.19L50.78 25.19L50.78 25L51.75 25.19ZM47.65 25.39L47.26 25.39L47.26 25.19L47.65 25.39ZM53.12 25.39L52.73 25.39L52.73 25.19L53.12 25.39ZM38.08 25.58L37.69 26.17M62.3 25.58L62.89 26.36M37.3 26.17L34.76 28.9M63.28 26.36L65.23 28.51M41.99 27.14L41.79 27.53M58.39 27.14L58.59 27.53M41.21 27.92L40.62 28.32L41.01 27.73L41.4 27.53L41.21 27.92ZM59.76 28.32L59.37 27.92L58.98 27.53L59.76 28.32ZM98.82 27.92L99.02 28.32M40.23 28.32L39.84 28.9M60.15 28.32L60.54 28.9M99.6 29.49L99.41 29.49L99.21 28.51L99.6 29.49ZM0.97 28.71L0.78 29.1M65.42 28.71L66.01 29.49M39.45 28.9L37.5 31.05M34.57 29.1L34.17 29.68M61.13 29.1L62.69 30.85M66.21 29.68L66.6 30.27M99.8 30.27L99.6 30.27L99.8 29.68L99.8 30.27ZM33.98 29.88L33.59 30.46M66.79 30.46L66.99 30.85M33.39 30.66L33.2 31.05M96.48 37.1L96.28 37.1L96.48 30.66L96.48 37.1ZM62.89 31.05L63.28 31.64M3.51 43.94L3.32 43.94L3.51 31.25L3.51 43.94ZM37.3 31.25L36.91 31.83M67.38 31.44L67.57 31.83M32.61 32.03L32.42 32.42L32.42 32.22L32.81 31.64L32.61 32.03ZM7.03 32.22L7.03 32.42L6.83 32.22L7.22 31.83L7.03 32.22ZM63.47 31.83L63.86 32.42M36.71 32.03L36.32 32.61M64.45 33.39L64.06 33.2L64.06 32.61L64.45 33.39ZM35.93 33.2L35.74 33.59L35.74 33.39L36.13 32.81L35.93 33.2ZM50.97 33.39L49.21 33.39L49.21 33.2L50.97 33.39ZM31.83 33.78L31.64 34.17L31.44 33.98L31.83 33.39L31.83 33.78ZM54.49 34.37L54.68 34.76M45.5 34.57L44.92 35.35M55.07 34.76L55.66 35.54M100 49.41L99.8 49.41L100 34.96L100 49.41ZM44.53 35.35L44.14 35.93M56.44 36.13L56.83 36.71M93.35 50.78L93.16 50.78L93.35 36.13L93.35 50.78ZM43.75 36.32L43.35 36.91M49.41 36.91L49.02 36.91L49.02 36.71L49.41 36.91ZM57.03 36.91L57.22 37.3M43.16 37.1L42.96 37.5M47.85 37.5L47.26 37.89L47.65 37.3L48.04 37.1L47.85 37.5ZM30.46 38.08L30.27 38.08L30.46 37.5L30.46 38.08ZM52.92 37.5L54.1 38.86M66.4 38.86L66.21 38.86L66.4 38.28L66.4 38.86ZM69.92 38.86L69.72 38.86L69.92 38.28L69.92 38.86ZM19.53 38.47L18.94 39.25M22.07 39.45L21.87 39.45L21.48 38.47L22.07 39.45ZM33.78 39.06L33.59 39.06L33.78 38.47L33.78 39.06ZM46.48 38.47L46.09 39.06M78.71 38.47L78.12 39.25M80.66 38.47L81.25 39.25M30.27 39.25L30.07 39.25L30.27 38.67L30.27 39.25ZM54.29 39.06L54.49 39.45M18.35 40.03L17.77 41.01L17.77 40.82L18.75 39.45L18.35 40.03ZM66.6 40.23L66.4 40.23L66.6 39.45L66.6 40.23ZM82.42 41.01L82.03 40.82L81.44 39.45L82.42 41.01ZM22.26 40.23L22.07 40.23L22.26 39.64L22.26 40.23ZM33.59 40.42L33.39 40.42L33.59 39.64L33.59 40.42ZM77.92 40.42L77.73 40.42L77.92 39.64L77.92 40.42ZM70.11 72.46L69.92 72.46L70.11 39.84L70.11 72.46ZM30.07 72.46L29.88 72.46L30.07 40.03L30.07 72.46ZM58.39 40.82L58.2 40.82L58.39 40.23L58.39 40.82ZM41.79 41.21L41.6 41.21L41.79 40.62L41.79 41.21ZM78.51 41.4L77.92 41.01L78.12 40.62L78.51 41.4ZM21.87 41.01L21.67 41.4M55.07 72.46L54.88 72.46L55.07 41.4L55.07 72.46ZM17.18 41.99L16.79 42.96L16.6 42.77L17.38 41.6L17.18 41.99ZM21.48 41.6L21.09 42.18M79.29 42.57L78.9 42.38L78.71 41.6L79.29 42.57ZM83.39 42.96L83.2 42.96L82.81 41.6L83.39 42.96ZM45.11 72.46L44.92 72.46L45.11 41.99L45.11 72.46ZM25.58 42.57L24.6 42.57L24.6 42.38L25.58 42.57ZM75.58 42.57L74.6 42.57L74.6 42.38L75.58 42.57ZM23.43 43.55L23.24 43.94L23.24 43.75L24.21 42.57L23.43 43.55ZM25.97 42.57L26.56 43.35M74.21 42.57L73.63 43.35M76.95 43.94L76.56 43.75L75.97 42.57L76.95 43.94ZM20.7 42.77L20.5 43.16M79.49 42.77L79.68 43.16M26.75 44.14L26.56 44.14L26.75 43.55L26.75 44.14ZM73.43 44.14L73.24 44.14L73.43 43.55L73.43 44.14ZM15.42 47.26L15.23 47.26L15.42 46.67L15.42 47.26ZM84.76 47.26L84.57 47.26L84.76 46.67L84.76 47.26ZM15.23 48.43L15.03 48.43L15.23 47.65L15.23 48.43ZM18.75 48.24L18.55 48.24L18.75 47.65L18.75 48.24ZM21.87 48.24L21.67 48.24L21.87 47.65L21.87 48.24ZM78.32 48.24L78.12 48.24L78.32 47.65L78.32 48.24ZM81.44 48.24L81.25 48.24L81.44 47.65L81.44 48.24ZM84.96 48.43L84.76 48.43L84.96 47.85L84.96 48.43ZM25.19 49.8L25 49.8L25.19 48.63L25.19 49.8ZM75 49.8L74.8 49.8L75 48.63L75 49.8ZM18.55 50L18.35 50L18.55 49.02L18.55 50ZM81.64 50L81.44 50L81.64 49.02L81.64 50ZM6.83 64.06L6.64 64.06L6.83 49.41L6.83 64.06ZM15.03 52.14L14.84 52.14L15.03 49.41L15.03 52.14ZM21.67 50.58L21.48 50.58L21.67 49.41L21.67 50.58ZM78.51 50.39L78.32 50.39L78.51 49.41L78.51 50.39ZM85.15 51.95L84.96 51.95L85.15 49.6L85.15 51.95ZM25.19 51.17L25 51.17L25.19 50L25.19 51.17ZM75 51.17L74.8 51.17L75 50L75 51.17ZM0.19 65.23L0 65.23L0.19 50.58L0.19 65.23ZM81.64 52.73L81.44 52.73L81.64 51.56L81.64 52.73ZM18.55 52.73L18.35 52.73L18.55 51.75L18.55 52.73ZM21.87 52.34L21.67 52.34L21.87 51.75L21.87 52.34ZM78.32 52.34L78.12 52.34L78.32 51.75L78.32 52.34ZM15.23 53.9L15.03 53.9L15.23 53.32L15.23 53.9ZM18.75 53.9L18.55 53.9L18.75 53.32L18.75 53.9ZM81.44 53.9L81.25 53.9L81.44 53.32L81.44 53.9ZM84.96 53.9L84.76 53.9L84.96 53.32L84.96 53.9ZM26.36 54.49L25.97 54.29L25.97 53.51L26.36 54.49ZM74.21 53.9L73.82 54.49L73.82 54.29L74.21 53.51L74.21 53.9ZM84.57 55.85L84.37 55.85L84.57 55.27L84.57 55.85ZM96.67 68.75L96.48 68.75L96.67 56.05L96.67 68.75ZM24.02 57.22L23.43 56.83L23.43 56.25L24.02 57.22ZM26.75 56.64L25.78 57.42L26.75 56.25L26.75 56.64ZM76.56 56.64L76.17 57.22L76.36 56.83L76.75 56.25L76.56 56.64ZM74.41 57.42L74.21 57.42L73.63 56.64L74.41 57.42ZM25.39 57.61L24.8 57.61L24.8 57.42L25.39 57.61ZM90.03 66.4L79.1 77.14L89.84 66.4L90.03 57.42L90.03 66.4ZM20.31 58.2L19.92 58L20.11 57.61L20.31 58.2ZM21.09 59.57L20.7 59.37L20.7 58.78L21.09 59.57ZM79.29 59.17L79.1 59.57L79.1 59.37L79.49 58.78L79.29 59.17ZM21.48 61.13L21.28 61.13L21.48 60.15L21.48 61.13ZM78.71 61.13L78.51 61.13L78.71 60.15L78.71 61.13ZM17.96 61.13L17.57 60.93L17.57 60.35L17.96 61.13ZM82.42 60.74L82.22 61.13L82.22 60.93L82.61 60.35L82.42 60.74ZM19.14 62.3L18.94 62.3L18.16 61.32L19.14 62.3ZM81.25 62.3L80.85 62.3L82.03 61.32L81.25 62.3ZM21.09 61.71L20.89 62.1M10.35 66.79L20.31 76.75L10.15 66.79L10.35 61.91L10.35 66.79ZM79.88 62.3L79.68 62.3L79.49 61.91L79.88 62.3ZM3.71 69.33L3.51 69.33L3.71 63.08L3.71 69.33ZM41.6 66.79L33.59 66.79L33.59 66.6L41.6 66.79ZM66.6 66.79L58.59 66.79L58.59 66.6L66.6 66.79ZM93.16 67.96L92.77 68.16L93.16 67.57L93.16 67.96ZM92.77 68.35L84.17 77.14M7.42 68.55L20.5 81.83M96.28 69.33L86.13 79.68M3.9 69.53L17.96 83.78M0.39 70.31L0.19 70.31L0.39 69.72L0.39 70.31ZM1.56 72.26L0.78 71.67L0.58 70.5L1.56 72.26ZM99.41 70.89L99.21 71.28M41.6 71.67L33.59 71.67L33.59 71.48L41.6 71.67ZM66.6 71.67L58.59 71.67L58.59 71.48L66.6 71.67ZM99.02 71.48L91.21 79.49M30.66 73.63L31.25 74.41M44.53 73.63L43.94 74.41M55.66 73.63L56.25 74.41M69.53 73.63L68.94 74.41M3.51 74.02L17.96 88.67M32.03 74.8L31.83 74.8L31.64 74.41L32.03 74.8ZM43.35 74.8L42.96 74.8L43.55 74.41L43.35 74.8ZM57.03 74.8L56.83 74.8L56.64 74.41L57.03 74.8ZM68.35 74.8L67.96 74.8L68.55 74.41L68.35 74.8ZM33.78 89.84L42.57 90.03L33.78 90.03L22.85 78.9L33.78 89.84ZM66.79 89.84L62.69 89.84L66.79 89.64L77.14 79.29L66.79 89.84ZM81.83 79.49L68.75 92.77M83.98 81.83L69.72 96.28M88.86 81.83L74.41 96.48M22.85 83.78L31.64 92.77M20.5 85.93L30.66 96.28M20.31 90.62L28.51 99.02M32.42 93.16L32.22 93.16L32.03 92.77L32.42 93.16ZM63.08 93.35L49.8 93.35L49.8 93.16L63.08 93.35ZM69.33 96.48L64.06 96.48L64.06 96.28L69.33 96.48ZM43.94 96.67L31.44 96.67L31.44 96.48L43.94 96.67ZM72.07 98.63L71.87 99.02M28.9 99.02L29.1 99.41M71.28 99.41L70.7 99.6L70.7 99.41L71.48 99.02L71.28 99.41ZM64.25 100L50.78 100L50.78 99.8L64.25 100Z" stroke="#FFFFFF" stroke-opacity="1.000000" stroke-width="0.195312"/>
				</g>
			</g>
		</g>
	</g>
</svg>
