<svg width="100.000000" height="100.000000" viewBox="0 0 100 100" fill="none" xmlns="http://www.w3.org/2000/svg" xmlns:xlink="http://www.w3.org/1999/xlink">
	<desc>
			Created with Pixso.
	</desc>
	<defs>
		<clipPath id="clip6_45993">
			<rect id="icon1_new.svg" width="100.000000" height="100.000000" fill="white" fill-opacity="0"/>
		</clipPath>
		<clipPath id="clip6_45992">
			<rect id="icon1_new.svg fill" width="100.000000" height="100.000000" fill="white" fill-opacity="0"/>
		</clipPath>
		<clipPath id="clip6_45991">
			<rect id="icon1_new.svg" width="100.000000" height="100.000000" fill="white" fill-opacity="0"/>
		</clipPath>
		<clipPath id="clip6_45990">
			<rect id="Icon=Dimensions" width="100.000000" height="100.000000" fill="white" fill-opacity="0"/>
		</clipPath>
	</defs>
	<g clip-path="url(#clip6_45990)">
		<g clip-path="url(#clip6_45991)">
			<g clip-path="url(#clip6_45992)">
				<g clip-path="url(#clip6_45993)">
					<g opacity="0.962000">
						<path id="Vector" d="M0.87 -0.1C7.12 -0.1 13.37 -0.1 19.62 -0.1C20.22 0.23 20.58 0.75 20.7 1.46C20.8 27.31 20.83 53.15 20.8 79C46.58 78.97 72.36 79 98.14 79.1C98.93 79.16 99.51 79.52 99.9 80.17C99.9 86.42 99.9 92.67 99.9 98.92C99.57 99.25 99.25 99.57 98.92 99.9C66.24 99.9 33.56 99.9 0.87 99.9C0.55 99.57 0.22 99.25 -0.1 98.92C-0.1 66.24 -0.1 33.56 -0.1 0.87C0.22 0.55 0.55 0.22 0.87 -0.1ZM4 4C8.23 4 12.46 4 16.69 4C16.69 29 16.69 54 16.69 79C12.46 79 8.23 79 4 79C4 76.33 4 73.66 4 70.99C6.41 71.02 8.82 70.99 11.23 70.89C12.56 70.27 12.99 69.26 12.5 67.87C12.26 67.43 11.9 67.14 11.42 66.99C8.95 66.89 6.47 66.86 4 66.89C4 65.65 4 64.42 4 63.18C5.45 63.26 6.88 63.16 8.3 62.89C9.84 61.67 9.84 60.43 8.3 59.17C6.87 59.08 5.43 59.04 4 59.08C4 57.84 4 56.6 4 55.37C6.28 55.4 8.56 55.37 10.83 55.27C12.05 55.13 12.7 54.45 12.79 53.22C12.71 52.38 12.32 51.77 11.62 51.36C9.08 51.26 6.54 51.23 4 51.26C4 49.96 4 48.66 4 47.36C5.43 47.39 6.87 47.36 8.3 47.26C9.49 46.4 9.72 45.33 8.98 44.04C8.8 43.8 8.58 43.64 8.3 43.55C6.87 43.45 5.43 43.42 4 43.45C4 42.15 4 40.85 4 39.55C6.54 39.58 9.08 39.55 11.62 39.45C12.81 38.59 13.04 37.52 12.3 36.23C11.9 35.81 11.41 35.59 10.83 35.54C8.56 35.44 6.28 35.41 4 35.44C4 34.21 4 32.97 4 31.73C5.43 31.77 6.87 31.73 8.3 31.64C9.84 30.38 9.84 29.14 8.3 27.92C6.88 27.65 5.45 27.56 4 27.63C4 26.39 4 25.16 4 23.92C6.47 23.95 8.95 23.92 11.42 23.82C12.79 23.04 13.08 21.97 12.3 20.6C11.99 20.3 11.63 20.07 11.23 19.92C8.82 19.82 6.41 19.79 4 19.82C4 18.58 4 17.35 4 16.11C5.56 16.14 7.12 16.11 8.69 16.01C10.15 14.85 10.22 13.62 8.88 12.3C7.27 12.03 5.64 11.93 4 12.01C4 9.34 4 6.67 4 4ZM4 83.1C34.6 83.1 65.2 83.1 95.8 83.1C95.8 87.33 95.8 91.56 95.8 95.8C93.13 95.8 90.46 95.8 87.79 95.8C87.82 93.39 87.79 90.98 87.69 88.57C87.07 87.23 86.06 86.81 84.66 87.3C84.3 87.6 84 87.96 83.78 88.37C83.69 90.85 83.65 93.32 83.69 95.8C82.45 95.8 81.21 95.8 79.98 95.8C80.01 94.49 79.98 93.19 79.88 91.89C79.26 90.52 78.25 90.1 76.85 90.62C76.42 90.86 76.12 91.22 75.97 91.69C75.87 93.06 75.84 94.43 75.87 95.8C74.64 95.8 73.4 95.8 72.16 95.8C72.2 93.45 72.16 91.11 72.07 88.76C71.55 87.27 70.54 86.78 69.04 87.3C68.68 87.53 68.39 87.82 68.16 88.18C68.06 90.72 68.03 93.26 68.06 95.8C66.82 95.8 65.59 95.8 64.35 95.8C64.43 94.35 64.33 92.91 64.06 91.5C63.2 90.3 62.13 90.07 60.83 90.82C60.6 90.99 60.44 91.22 60.35 91.5C60.25 92.93 60.22 94.36 60.25 95.8C59.01 95.8 57.78 95.8 56.54 95.8C56.57 93.52 56.54 91.24 56.44 88.96C56.3 87.75 55.62 87.1 54.39 87.01C53.16 87.1 52.48 87.75 52.34 88.96C52.24 91.24 52.21 93.52 52.24 95.8C51 95.8 49.77 95.8 48.53 95.8C48.56 94.36 48.53 92.93 48.43 91.5C47.58 90.3 46.5 90.07 45.21 90.82C44.98 90.99 44.81 91.22 44.72 91.5C44.45 92.91 44.35 94.35 44.43 95.8C43.19 95.8 41.96 95.8 40.72 95.8C40.75 93.26 40.72 90.72 40.62 88.18C39.75 86.98 38.68 86.75 37.4 87.5C37.04 87.85 36.81 88.27 36.71 88.76C36.62 91.11 36.58 93.45 36.62 95.8C35.38 95.8 34.14 95.8 32.91 95.8C32.94 94.23 32.91 92.67 32.81 91.11C31.65 89.64 30.41 89.58 29.1 90.91C28.82 92.52 28.72 94.15 28.8 95.8C20.54 95.8 12.27 95.8 4 95.8C4 91.56 4 87.33 4 83.1Z" fill="#FFFCFC" fill-opacity="1.000000" fill-rule="evenodd"/>
					</g>
					<g opacity="0.966000">
						<path id="Vector" d="M26.07 5.76C40.33 5.72 54.58 5.76 68.84 5.85C70.12 6.29 70.61 7.17 70.31 8.49C70.24 8.95 70.01 9.31 69.62 9.56C66.91 9.85 64.17 9.95 61.42 9.86C61.45 12.33 61.42 14.81 61.32 17.28C60.73 18.84 59.66 19.26 58.1 18.55C57.8 18.31 57.57 18.02 57.42 17.67C57.32 15.07 57.29 12.46 57.32 9.86C47.75 9.86 38.18 9.86 28.61 9.86C28.61 19.43 28.61 29 28.61 38.57C31.21 38.54 33.82 38.57 36.42 38.67C37.65 39.48 37.91 40.56 37.2 41.89C36.88 42.24 36.49 42.47 36.03 42.57C33.56 42.67 31.08 42.7 28.61 42.67C28.61 52.18 28.61 61.68 28.61 71.19C38.18 71.19 47.75 71.19 57.32 71.19C57.29 68.58 57.32 65.98 57.42 63.37C58.16 62.22 59.17 61.93 60.44 62.49C60.91 62.88 61.21 63.36 61.32 63.96C61.42 66.37 61.45 68.78 61.42 71.19C70.93 71.19 80.43 71.19 89.94 71.19C89.94 61.68 89.94 52.18 89.94 42.67C87.46 42.7 84.99 42.67 82.51 42.57C80.89 41.85 80.54 40.71 81.44 39.15C81.62 38.92 81.84 38.76 82.12 38.67C84.73 38.57 87.33 38.54 89.94 38.57C89.94 29 89.94 19.43 89.94 9.86C88.44 9.89 86.94 9.86 85.44 9.76C84.29 9.01 84 8 84.57 6.73C84.88 6.28 85.31 5.99 85.83 5.85C88.05 5.72 90.26 5.72 92.48 5.85C93.14 6.06 93.63 6.49 93.94 7.12C94.07 29.39 94.07 51.65 93.94 73.92C93.77 74.61 93.35 75.03 92.67 75.19C70.41 75.32 48.14 75.32 25.87 75.19C25.2 74.92 24.78 74.43 24.6 73.73C24.47 51.59 24.47 29.45 24.6 7.32C24.87 6.57 25.36 6.05 26.07 5.76Z" fill="#FFF8F8" fill-opacity="1.000000" fill-rule="evenodd"/>
					</g>
					<g opacity="0.916000">
						<path id="Vector" d="M76.85 5.76C78.77 5.82 79.58 6.79 79.29 8.69C78.65 9.78 77.71 10.14 76.46 9.76C75.31 9.01 75.02 8.01 75.58 6.73C75.93 6.28 76.36 5.95 76.85 5.76Z" fill="#FFF7F6" fill-opacity="1.000000" fill-rule="evenodd"/>
					</g>
					<g opacity="0.958000">
						<path id="Vector" d="M58.69 26.07C60.11 25.86 60.99 26.44 61.32 27.83C61.42 31.41 61.45 34.99 61.42 38.57C65.13 38.54 68.84 38.57 72.55 38.67C73.73 39.4 74.03 40.41 73.43 41.69C73.11 42.15 72.69 42.44 72.16 42.57C68.58 42.67 65 42.7 61.42 42.67C61.45 46.25 61.42 49.83 61.32 53.41C60.71 54.94 59.63 55.36 58.1 54.68C57.8 54.45 57.57 54.15 57.42 53.8C57.32 50.09 57.29 46.38 57.32 42.67C53.67 42.7 50.03 42.67 46.38 42.57C44.81 41.84 44.45 40.7 45.31 39.16C45.48 38.92 45.71 38.76 45.99 38.67C49.77 38.57 53.54 38.54 57.32 38.57C57.29 34.79 57.32 31.02 57.42 27.24C57.71 26.69 58.13 26.3 58.69 26.07Z" fill="#FFFBFB" fill-opacity="1.000000" fill-rule="evenodd"/>
					</g>
					<g opacity="0.925000">
						<path id="Vector" d="M10.05 87.4C11.97 87.64 12.65 88.68 12.1 90.52C11.39 91.46 10.45 91.75 9.27 91.4C7.98 90.14 7.98 88.9 9.27 87.69C9.58 87.65 9.84 87.55 10.05 87.4Z" fill="#FFF6F5" fill-opacity="1.000000" fill-rule="evenodd"/>
					</g>
				</g>
			</g>
		</g>
	</g>
</svg>
