<svg width="100.000000" height="100.000000" viewBox="0 0 100 100" fill="none" xmlns="http://www.w3.org/2000/svg" xmlns:xlink="http://www.w3.org/1999/xlink">
	<desc>
			Created with Pixso.
	</desc>
	<defs>
		<clipPath id="clip6_46011">
			<rect id="icon2_new.svg" width="100.000000" height="100.000000" fill="white" fill-opacity="0"/>
		</clipPath>
		<clipPath id="clip6_46010">
			<rect id="Icon=Thickness" width="100.000000" height="100.000000" fill="white" fill-opacity="0"/>
		</clipPath>
	</defs>
	<g clip-path="url(#clip6_46010)">
		<g clip-path="url(#clip6_46011)">
			<g opacity="0.981000">
				<path id="Vector" d="M11.42 -0.1C37.07 -0.1 62.72 -0.1 88.37 -0.1C94.62 1.33 98.46 5.17 99.9 11.42C99.9 37.07 99.9 62.72 99.9 88.37C98.46 94.62 94.62 98.47 88.37 99.9C62.72 99.9 37.07 99.9 11.42 99.9C5.17 98.47 1.33 94.62 -0.1 88.37C-0.1 62.72 -0.1 37.07 -0.1 11.42C1.33 5.17 5.17 1.33 11.42 -0.1ZM12.59 5.56C37.46 5.53 62.33 5.56 87.2 5.66C91.08 6.41 93.39 8.72 94.14 12.59C94.27 37.46 94.27 62.33 94.14 87.2C93.39 91.08 91.08 93.39 87.2 94.14C62.33 94.27 37.46 94.27 12.59 94.14C8.72 93.39 6.41 91.08 5.66 87.2C5.53 62.33 5.53 37.46 5.66 12.59C6.44 8.72 8.75 6.37 12.59 5.56Z" fill="#FFFDFD" fill-opacity="1.000000" fill-rule="evenodd"/>
			</g>
			<g opacity="0.987000">
				<path id="Vector" d="M41.11 21.97C42.71 21.93 43.78 22.65 44.33 24.12C44.46 41.3 44.46 58.49 44.33 75.68C43.91 77 43 77.71 41.6 77.83C40.25 77.78 39.34 77.13 38.86 75.87C38.76 68.19 38.73 60.51 38.76 52.83C34.66 52.79 30.56 52.83 26.46 52.92C27.66 54.13 28.87 55.33 30.07 56.54C31.06 59.65 29.92 61.12 26.66 60.93C26.39 60.8 26.13 60.67 25.87 60.54C22.91 57.58 19.95 54.62 16.99 51.66C16.34 50.48 16.34 49.31 16.99 48.14C19.95 45.18 22.91 42.22 25.87 39.25C27.67 38.33 29.14 38.69 30.27 40.33C30.7 41.34 30.63 42.31 30.07 43.26C28.87 44.46 27.66 45.67 26.46 46.87C30.56 46.97 34.66 47 38.76 46.97C38.73 39.29 38.76 31.6 38.86 23.92C39.29 22.87 40.04 22.22 41.11 21.97Z" fill="#FFF9F8" fill-opacity="1.000000" fill-rule="evenodd"/>
			</g>
			<g opacity="0.987000">
				<path id="Vector" d="M57.71 21.97C59.26 21.85 60.34 22.5 60.93 23.92C61.03 31.6 61.06 39.29 61.03 46.97C65.13 47 69.23 46.97 73.33 46.87C72.13 45.67 70.93 44.46 69.72 43.26C68.73 40.14 69.87 38.68 73.14 38.86C73.4 38.99 73.66 39.12 73.92 39.25C76.88 42.22 79.85 45.18 82.81 48.14C83.46 49.31 83.46 50.48 82.81 51.66C79.85 54.62 76.88 57.58 73.92 60.54C72.54 61.4 71.21 61.3 69.92 60.25C69.09 59.06 69.03 57.82 69.72 56.54C70.93 55.33 72.13 54.13 73.33 52.92C69.23 52.83 65.13 52.79 61.03 52.83C61.06 60.51 61.03 68.19 60.93 75.87C59.84 77.83 58.31 78.25 56.34 77.14C55.87 76.76 55.58 76.27 55.46 75.68C55.33 58.49 55.33 41.3 55.46 24.12C55.81 22.96 56.56 22.24 57.71 21.97Z" fill="#FFF9F8" fill-opacity="1.000000" fill-rule="evenodd"/>
			</g>
		</g>
	</g>
</svg>
