<svg width="110.000000" height="136.000000" viewBox="0 0 110 136" fill="none" xmlns="http://www.w3.org/2000/svg" xmlns:xlink="http://www.w3.org/1999/xlink">
	<desc>
			Created with Pixso.
	</desc>
	<defs>
		<clipPath id="clip2_50659">
			<rect id="logo-max.svg" width="110.000000" height="136.000000" fill="white" fill-opacity="0"/>
		</clipPath>
		<clipPath id="clip2_50660">
			<rect id="logo-max.svg fill" width="110.000000" height="136.000000" fill="white" fill-opacity="0"/>
		</clipPath>
	</defs>
	<g clip-path="url(#clip2_50660)">
		<g clip-path="url(#clip2_50659)">
			<path id="Vector" d="M0 0L110 0L110 136L0 136L0 0Z" fill="#FFFEFE" fill-opacity="1.000000" fill-rule="evenodd"/>
			<path id="Vector" d="M62.71 122.89L62.71 125.45C62.71 125.72 62.66 126 62.32 126C61.98 126 61.92 125.73 61.92 125.45L61.92 122.82C61.92 122.69 61.93 122.44 61.73 122.44C61.64 122.44 61.59 122.52 61.52 122.57L61.17 122.89L61.17 125.45C61.17 125.72 61.11 126 60.77 126C60.43 126 60.38 125.73 60.38 125.45L60.38 122.13C60.38 121.85 60.45 121.57 60.79 121.57C61 121.57 61.13 121.7 61.18 121.88L61.25 121.83C61.45 121.67 61.58 121.57 61.85 121.57C62.16 121.57 62.4 121.72 62.58 121.96L62.65 121.9C62.9 121.65 63 121.56 63.34 121.56C63.61 121.56 63.85 121.68 64 121.88C64.2 122.14 64.18 122.36 64.19 122.67L64.27 125.39C64.28 125.66 64.24 125.98 63.88 125.98C63.57 125.98 63.5 125.71 63.49 125.45L63.41 122.85C63.4 122.71 63.44 122.43 63.23 122.43C63.11 122.43 62.96 122.63 62.89 122.69L62.71 122.89Z" fill="#282828" fill-opacity="1.000000" fill-rule="evenodd"/>
			<path id="Vector" d="M67.66 122.35C67.43 122.35 67.11 122.3 67.11 121.96C67.11 121.62 67.39 121.56 67.66 121.56L68.75 121.56C69.17 121.56 69.46 121.61 69.78 121.92C70.08 122.22 70.13 122.46 70.13 122.85L70.22 125.53C70.22 125.75 70.11 125.99 69.84 125.99C69.63 125.99 69.43 125.82 69.44 125.6L68.89 125.87C68.67 125.99 68.66 125.99 68.4 125.99L67.64 125.99C67.29 125.99 67.03 125.95 66.74 125.71C66.4 125.44 66.32 125.15 66.32 124.74L66.32 124.4C66.32 124.02 66.41 123.78 66.71 123.52C66.98 123.28 67.29 123.23 67.63 123.23L69.33 123.23L69.33 123.05C69.33 122.45 69.2 122.36 68.63 122.36L67.66 122.36L67.66 122.35ZM67.65 124.01C67.44 124.01 67.13 124.07 67.13 124.36L67.13 124.88C67.13 125.14 67.45 125.2 67.64 125.2L68.52 125.2L69.39 124.74L69.39 124.57C69.39 124.13 69.27 124 68.83 124L67.65 124L67.65 124.01Z" fill="#282828" fill-opacity="1.000000" fill-rule="evenodd"/>
			<path id="Vector" d="M72.29 123.4C72.29 122.92 72.38 122.67 72.76 122.36L73.35 121.88C73.72 121.58 73.91 121.57 74.38 121.57L75.63 121.57C75.9 121.57 76.18 121.63 76.18 121.96C76.18 122.31 75.87 122.36 75.63 122.36L74.23 122.36C74.07 122.36 73.92 122.44 73.77 122.56L73.29 122.96C73.17 123.05 73.08 123.14 73.08 123.29L73.08 124.27C73.08 124.43 73.17 124.51 73.29 124.61L73.77 125.01C73.91 125.13 74.07 125.21 74.23 125.21L75.63 125.21C75.86 125.21 76.18 125.26 76.18 125.6C76.18 125.94 75.9 126 75.63 126L74.37 126C73.91 126 73.72 125.99 73.34 125.69L72.75 125.2C72.37 124.89 72.28 124.65 72.28 124.17L72.28 123.4L72.29 123.4Z" fill="#282828" fill-opacity="1.000000" fill-rule="evenodd"/>
			<path id="Vector" d="M80.45 122.35C80.37 122.35 80.29 122.38 80.2 122.42L79.03 123.16L79.03 125.44C79.03 125.71 78.97 125.99 78.63 125.99C78.29 125.99 78.24 125.72 78.24 125.44L78.24 120.47C78.24 120.21 78.29 119.93 78.63 119.93C78.97 119.93 79.03 120.2 79.03 120.47L79.03 122.24L79.67 121.82C79.88 121.69 80.12 121.56 80.38 121.56L80.91 121.56C81.07 121.56 81.35 121.56 81.68 121.85C82.04 122.15 82.02 122.49 82.04 122.91L82.12 125.4C82.13 125.67 82.08 125.99 81.73 125.99C81.41 125.99 81.34 125.72 81.33 125.46L81.25 123.03C81.24 122.65 81.26 122.35 80.81 122.35L80.45 122.35Z" fill="#282828" fill-opacity="1.000000" fill-rule="evenodd"/>
			<path id="Vector" d="M86.55 125.2L87.15 125.2C87.41 125.2 87.7 125.26 87.7 125.6C87.7 125.94 87.38 125.99 87.15 125.99L85.13 125.99C84.9 125.99 84.58 125.94 84.58 125.6C84.58 125.26 84.86 125.2 85.13 125.2L85.76 125.2L85.76 122.36L85.13 122.36C84.9 122.36 84.58 122.31 84.58 121.96C84.58 121.63 84.86 121.57 85.13 121.57L85.96 121.57C86.42 121.57 86.55 121.65 86.55 122.12L86.55 125.2ZM85.36 120.31C85.36 120.04 85.52 119.94 85.73 119.94L86.19 119.94C86.41 119.94 86.57 120.03 86.57 120.31L86.57 120.69C86.57 120.97 86.41 121.06 86.19 121.06L85.73 121.06C85.52 121.06 85.36 120.97 85.36 120.69L85.36 120.31Z" fill="#282828" fill-opacity="1.000000" fill-rule="evenodd"/>
			<path id="Vector" d="M90.95 123.16L90.95 125.44C90.95 125.71 90.89 125.99 90.55 125.99C90.21 125.99 90.16 125.72 90.16 125.44L90.16 122.14C90.16 121.85 90.19 121.56 90.55 121.56C90.91 121.56 90.95 121.85 90.95 122.13L90.95 122.22L90.95 122.23L91.59 121.81C91.8 121.68 92.02 121.55 92.28 121.55L92.87 121.55C93.18 121.55 93.36 121.63 93.61 121.84C93.96 122.14 93.95 122.48 93.96 122.91L94.04 125.39C94.05 125.66 94.01 125.98 93.66 125.98C93.34 125.98 93.27 125.71 93.26 125.45L93.18 123.02C93.16 122.54 93.12 122.34 92.64 122.34L92.38 122.34C92.29 122.34 92.21 122.37 92.13 122.42L90.95 123.16Z" fill="#282828" fill-opacity="1.000000" fill-rule="evenodd"/>
			<path id="Vector" d="M97.56 125.99C97.23 125.99 97.1 125.99 96.86 125.77L96.51 125.48C96.2 125.2 96.11 125.02 96.11 124.59L96.11 123.07C96.11 122.65 96.17 122.41 96.5 122.13L96.78 121.89C97.15 121.57 97.33 121.56 97.65 121.56L98.38 121.56C98.77 121.56 98.95 121.6 99.26 121.85L99.58 122.1C99.94 122.39 99.99 122.69 99.99 123.13L99.99 123.76C99.99 124.22 99.92 124.35 99.45 124.35L96.9 124.35L96.9 124.61C96.9 124.69 96.95 124.78 97.01 124.84L97.22 125.05C97.32 125.17 97.48 125.2 97.74 125.2L99.45 125.2C99.71 125.2 99.99 125.25 99.99 125.59C99.99 125.93 99.68 125.98 99.45 125.98L97.56 125.98L97.56 125.99ZM96.9 123.56L99.2 123.56L99.2 123.08C99.2 122.93 99.2 122.81 99.1 122.71L98.79 122.45C98.7 122.36 98.54 122.35 98.41 122.35L97.74 122.35C97.6 122.35 97.47 122.35 97.34 122.44L97.07 122.64C96.97 122.71 96.9 122.77 96.9 123L96.9 123.56L96.9 123.56Z" fill="#282828" fill-opacity="1.000000" fill-rule="evenodd"/>
			<path id="Vector" d="M59.04 121.56L10 121.56L10 125.99L59.04 125.99L59.04 121.56Z" fill="#282828" fill-opacity="1.000000" fill-rule="evenodd"/>
			<path id="Vector" d="M19.5 119.94L19.5 109.92L19.38 109.92L16.97 119.94L15.53 119.94L13.11 109.92L12.98 109.92L12.98 119.94L10 119.94L10 103L14.63 103L16.1 110.51L16.25 110.51L17.88 103L22.5 103L22.52 119.94L19.5 119.94Z" fill="#282828" fill-opacity="1.000000" fill-rule="evenodd"/>
			<path id="Vector" d="M28.84 118.42L28.57 114.85L26.98 114.85L26.73 118.42L23.43 118.42L25.13 103.01L30.64 103.01L32.23 118.42L28.84 118.42ZM27.88 106.22L27.66 106.22L27.13 111.74L28.43 111.74L27.88 106.22Z" fill="#282828" fill-opacity="1.000000" fill-rule="evenodd"/>
			<path id="Vector" d="M34.31 118.42L34.31 106.26L31.83 106.26L31.83 103L40.08 103L40.08 106.26L37.59 106.26L37.59 118.42L34.31 118.42Z" fill="#282828" fill-opacity="1.000000" fill-rule="evenodd"/>
			<path id="Vector" d="M49 112.45C49.04 112.92 49.07 113.37 49.07 113.79C49.07 114.57 49.02 115.26 48.93 115.84C48.84 116.42 48.64 116.91 48.35 117.29C48.06 117.66 47.64 117.95 47.11 118.13C46.57 118.32 45.86 118.41 44.99 118.41C43.95 118.41 43.15 118.32 42.59 118.14C42.04 117.96 41.63 117.64 41.37 117.18C41.23 116.98 41.11 116.72 41.02 116.43C40.92 116.14 40.84 115.76 40.77 115.27C40.71 114.78 40.66 114.16 40.63 113.42C40.61 112.67 40.59 111.72 40.59 110.57C40.59 109.41 40.61 108.47 40.63 107.76C40.66 107.03 40.71 106.45 40.77 105.99C40.84 105.52 40.92 105.17 41.02 104.9C41.11 104.64 41.23 104.4 41.37 104.17C41.65 103.73 42.05 103.42 42.59 103.25C43.11 103.08 43.88 103 44.88 103C45.77 103 46.5 103.07 47.04 103.23C47.58 103.39 48 103.64 48.29 103.99C48.59 104.35 48.78 104.81 48.88 105.37C48.97 105.92 49.02 106.6 49.02 107.38C49.02 107.57 49.02 107.77 49.01 108C49 108.22 48.99 108.46 48.97 108.71L45.91 108.71C45.91 108.31 45.9 107.98 45.89 107.72C45.88 107.46 45.87 107.25 45.86 107.07C45.84 106.9 45.82 106.77 45.8 106.67C45.78 106.57 45.76 106.49 45.75 106.42C45.69 106.17 45.4 106.05 44.87 106.05C44.61 106.05 44.41 106.08 44.29 106.14C44.18 106.2 44.09 106.29 44.05 106.42C44.01 106.52 43.97 106.65 43.95 106.78C43.93 106.92 43.91 107.13 43.89 107.41C43.87 107.69 43.86 108.09 43.85 108.58C43.84 109.08 43.84 109.73 43.84 110.53C43.84 111.36 43.84 112.02 43.85 112.52C43.86 113.01 43.87 113.41 43.89 113.7C43.91 113.99 43.93 114.2 43.95 114.34C43.97 114.49 44.01 114.61 44.05 114.72C44.09 114.85 44.18 114.94 44.3 114.99C44.43 115.05 44.65 115.07 44.97 115.07C45.38 115.07 45.63 114.96 45.72 114.73C45.77 114.6 45.82 114.46 45.84 114.32C45.87 114.17 45.89 114.01 45.91 113.83C45.92 113.65 45.93 113.45 45.94 113.22C45.95 112.99 45.95 112.72 45.95 112.42L49 112.42L49 112.45Z" fill="#282828" fill-opacity="1.000000" fill-rule="evenodd"/>
			<path id="Vector" d="M55.67 118.42L55.67 112.08L53.62 112.08L53.62 118.42L50.26 118.42L50.26 103.01L53.62 103.01L53.62 108.98L55.67 108.98L55.67 103.01L59.03 103.01L59.03 118.42L55.67 118.42Z" fill="#282828" fill-opacity="1.000000" fill-rule="evenodd"/>
			<path id="Vector" d="M69.88 118.42L69.88 109.18L69.75 109.18L67.35 118.42L65.91 118.42L63.48 109.18L63.36 109.18L63.36 118.42L60.37 118.42L60.37 103.01L65.01 103.01L66.47 109.71L66.62 109.71L68.25 103.01L72.87 103.01L72.89 118.42L69.88 118.42Z" fill="#282828" fill-opacity="1.000000" fill-rule="evenodd"/>
			<path id="Vector" d="M81.79 117.2C81.65 117.43 81.48 117.62 81.29 117.78C81.11 117.93 80.87 118.05 80.59 118.15C80.31 118.24 79.99 118.31 79.61 118.35C79.24 118.4 78.8 118.42 78.29 118.42C77.28 118.42 76.51 118.33 75.99 118.15C75.47 117.97 75.06 117.65 74.79 117.19C74.65 116.97 74.53 116.72 74.43 116.45C74.33 116.18 74.25 115.82 74.19 115.36C74.13 114.89 74.08 114.3 74.05 113.56C74.02 112.81 74.01 111.86 74.01 110.69C74.01 109.53 74.02 108.58 74.05 107.84C74.08 107.1 74.13 106.51 74.19 106.05C74.25 105.59 74.33 105.23 74.43 104.97C74.53 104.7 74.65 104.46 74.79 104.21C74.93 103.99 75.09 103.8 75.28 103.64C75.47 103.48 75.7 103.36 75.98 103.26C76.26 103.16 76.59 103.09 76.97 103.05C77.36 103.01 77.8 102.99 78.3 102.99C79.3 102.99 80.06 103.08 80.58 103.26C81.11 103.45 81.51 103.76 81.79 104.21C81.93 104.44 82.04 104.69 82.14 104.96C82.24 105.22 82.32 105.58 82.38 106.04C82.45 106.5 82.5 107.1 82.52 107.83C82.55 108.57 82.56 109.52 82.56 110.68C82.56 111.85 82.55 112.81 82.52 113.55C82.5 114.3 82.45 114.89 82.38 115.35C82.32 115.81 82.24 116.18 82.14 116.45C82.04 116.73 81.93 116.97 81.79 117.2ZM79.11 114.74C79.14 114.65 79.17 114.53 79.2 114.39C79.22 114.24 79.25 114.03 79.26 113.74C79.27 113.45 79.28 113.06 79.29 112.57C79.3 112.08 79.31 111.43 79.31 110.63C79.31 109.8 79.3 109.14 79.29 108.65C79.29 108.15 79.27 107.75 79.26 107.45C79.25 107.16 79.22 106.94 79.2 106.79C79.17 106.65 79.14 106.53 79.11 106.44C79.06 106.31 78.97 106.21 78.86 106.16C78.75 106.1 78.56 106.07 78.3 106.07C78.04 106.07 77.84 106.1 77.72 106.16C77.61 106.22 77.52 106.31 77.48 106.44C77.44 106.53 77.4 106.65 77.38 106.79C77.36 106.94 77.34 107.16 77.32 107.45C77.3 107.75 77.29 108.14 77.28 108.65C77.27 109.14 77.27 109.81 77.27 110.63C77.27 111.43 77.27 112.08 77.28 112.57C77.29 113.06 77.3 113.45 77.32 113.74C77.34 114.03 77.36 114.24 77.38 114.39C77.4 114.53 77.44 114.65 77.48 114.74C77.52 114.87 77.61 114.96 77.72 115.01C77.84 115.07 78.04 115.09 78.3 115.09C78.56 115.09 78.75 115.06 78.86 115.01C78.97 114.96 79.06 114.87 79.11 114.74Z" fill="#282828" fill-opacity="1.000000" fill-rule="evenodd"/>
			<path id="Vector" d="M84.95 118.42L83.07 103.01L86.61 103.01L87.49 113.86L87.72 113.86L88.55 103.01L92.04 103.01L90.05 118.42L84.95 118.42Z" fill="#282828" fill-opacity="1.000000" fill-rule="evenodd"/>
			<path id="Vector" d="M93.01 118.42L93.01 103.01L100 103.01L100 106.27L96.29 106.27L96.29 108.98L100 108.98L100 112.09L96.29 112.09L96.29 115L100 115L100 118.42L93.01 118.42Z" fill="#282828" fill-opacity="1.000000" fill-rule="evenodd"/>
			<path id="Vector" d="M12.56 99.23L97.37 99.23C98.78 99.23 99.93 98.09 99.93 96.69L99.93 12.54C99.93 11.13 98.79 10 97.37 10L12.56 10C11.14 10 10 11.13 10 12.54L10 96.68C10 98.09 11.14 99.23 12.56 99.23ZM95.58 54.61C95.58 76.87 77.4 94.92 54.96 94.92C32.52 94.92 14.33 76.87 14.33 54.61C14.33 32.35 32.52 14.3 54.96 14.3C77.4 14.3 95.58 32.35 95.58 54.61ZM18.79 88.73L13.36 88.73L13.36 90.88L18.79 90.88L18.79 96.27L20.96 96.27L20.96 90.88L26.39 90.88L26.39 88.73L20.96 88.73L20.96 83.35L18.79 83.35L18.79 88.73ZM89.33 18.38L83.9 18.38L83.9 20.53L89.33 20.53L89.33 25.91L91.5 25.91L91.5 20.53L96.93 20.53L96.93 18.38L91.5 18.38L91.5 12.99L89.33 12.99L89.33 18.38ZM96.91 96.08L91.06 94.52L85.22 92.96L89.49 88.72L93.76 84.49L95.33 90.28L96.91 96.08ZM20.52 14.99L13.25 13.05L15.2 20.26L17.16 27.48L22.47 22.2L27.79 16.93L20.52 14.99Z" fill="#282828" fill-opacity="1.000000" fill-rule="evenodd"/>
			<mask id="mask2_50647" mask-type="alpha" maskUnits="userSpaceOnUse" x="16.701172" y="16.649170" width="76.527344" height="75.932373">
				<path id="Vector" d="M54.96 92.58C76.09 92.58 93.22 75.58 93.22 54.61C93.22 33.64 76.09 16.64 54.96 16.64C33.83 16.64 16.7 33.64 16.7 54.61C16.7 75.58 33.83 92.58 54.96 92.58Z" fill="#FFFFFF" fill-opacity="1.000000" fill-rule="evenodd"/>
			</mask>
			<g mask="url(#mask2_50647)">
				<path id="Vector" d="M52.84 26.82C50.62 27.91 48.52 28.9 46.47 29.97C35.63 35.63 25.73 42.58 17.33 51.49C12.88 56.21 8.95 61.32 6.61 67.41C5.77 69.6 5.45 71.99 4.88 74.29C4.83 74.49 4.8 74.7 4.76 74.91C4.66 74.93 4.56 74.94 4.47 74.96C3.71 72.5 2.81 70.06 2.22 67.55C-1.03 53.84 0.75 40.79 7.53 28.4C9.7 24.44 13.24 22.51 17.43 21.47C21.83 20.39 26.29 20.44 30.75 20.92C38.16 21.72 45.25 23.79 52.17 26.5C52.34 26.56 52.51 26.66 52.84 26.82Z" fill="#282828" fill-opacity="1.000000" fill-rule="evenodd"/>
				<path id="Vector" d="M105.38 34.43C106.05 36.48 106.81 38.51 107.35 40.59C110.99 54.36 109.42 67.55 102.85 80.2C100.57 84.58 96.89 86.9 92.23 87.96C87.76 88.97 83.26 88.9 78.73 88.4C71.46 87.59 64.53 85.51 57.75 82.9C57.58 82.83 57.41 82.74 57.07 82.57C57.51 82.36 57.83 82.18 58.15 82.03C70.6 76.25 81.91 68.84 91.53 59.02C96.39 54.06 100.6 48.63 103.27 42.16C104.24 39.84 104.9 37.43 105.04 34.9C105.05 34.76 105.09 34.61 105.12 34.47C105.21 34.46 105.3 34.44 105.38 34.43Z" fill="#282828" fill-opacity="1.000000" fill-rule="evenodd"/>
				<path id="Vector" d="M80.35 66.79C80.5 64.4 80.68 62.13 80.77 59.87C81.31 46.67 79.99 33.7 75.63 21.16C73.72 15.67 71.26 10.44 67.38 6.01C66.03 4.48 64.35 3.22 62.83 1.84C62.7 1.73 62.54 1.62 62.4 1.51C62.43 1.44 62.46 1.35 62.49 1.28C64.34 1.65 66.22 1.93 68.04 2.4C82.24 6.07 93.24 14.1 101.16 26.35C103.89 30.57 103.98 34.94 102.54 39.52C100.97 44.46 98.2 48.73 94.99 52.75C90.85 57.95 86 62.41 80.79 66.52C80.7 66.59 80.58 66.65 80.35 66.79Z" fill="#282828" fill-opacity="1.000000" fill-rule="evenodd"/>
				<path id="Vector" d="M29.35 42.76C29.24 47.79 28.95 52.83 29.06 57.86C29.31 69.19 31.01 80.3 35.24 90.91C37.38 96.25 40.08 101.28 44.31 105.34C45.29 106.27 46.38 107.08 47.61 108.1C46.45 107.92 45.47 107.81 44.49 107.61C28.67 104.29 16.55 95.76 8.15 82.06C5.79 78.2 6.05 74.09 7.33 69.99C8.9 64.92 11.78 60.55 15.09 56.45C19.17 51.38 23.94 46.99 29.04 42.97C29.17 42.86 29.31 42.78 29.35 42.76Z" fill="#282828" fill-opacity="1.000000" fill-rule="evenodd"/>
				<path id="Vector" d="M31.67 70.49C33.97 72 36.09 73.46 38.29 74.81C48.12 80.88 58.53 85.65 69.81 88.41C76.13 89.96 82.53 90.77 89.05 90.09C92.08 89.78 94.99 89.02 97.84 87.78C97.12 88.63 96.44 89.5 95.69 90.33C87 99.97 76.23 105.9 63.35 107.91C60.22 108.4 56.98 108.48 53.79 108.42C50.81 108.36 48.33 106.78 46.14 104.85C42.25 101.44 39.72 97.09 37.64 92.46C34.73 85.96 32.98 79.12 31.92 72.1C31.83 71.62 31.76 71.13 31.67 70.49Z" fill="#282828" fill-opacity="1.000000" fill-rule="evenodd"/>
				<path id="Vector" d="M12.29 21.65C15.24 17.6 18.81 14.16 22.86 11.24C32.08 4.58 42.4 1.16 53.79 0.82C57.74 0.7 61.04 2.1 63.91 4.68C67.61 7.99 70.08 12.15 72.11 16.59C74.95 22.87 76.72 29.47 77.81 36.25C77.95 37.1 78.09 37.95 78.26 38.96C76.22 37.62 74.37 36.34 72.47 35.15C63.06 29.25 53.11 24.5 42.34 21.56C35.77 19.77 29.09 18.72 22.24 19.15C19.07 19.35 15.99 19.99 13.06 21.29C12.8 21.41 12.54 21.53 12.29 21.65Z" fill="#282828" fill-opacity="1.000000" fill-rule="evenodd"/>
			</g>
			<path id="Vector" d="M64.2 50.09L73.44 65.97L54.96 65.97L36.48 65.97L45.72 50.09L54.96 34.21L64.2 50.09Z" stroke="#282828" stroke-opacity="1.000000" stroke-width="5.000000"/>
			<path id="Vector" d="M59.35 53.83L50.58 53.83L50.58 55.4L59.35 55.4L59.35 53.83Z" fill="#282828" fill-opacity="1.000000" fill-rule="evenodd"/>
			<path id="Vector" d="M55.75 58.97L55.75 50.26L54.17 50.26L54.17 58.97L55.75 58.97Z" fill="#282828" fill-opacity="1.000000" fill-rule="evenodd"/>
		</g>
	</g>
</svg>
